<?xml version="1.0" encoding="utf-8"?>
<svg xmlns="http://www.w3.org/2000/svg" width="189" height="43" viewBox="0 0 189 43" fill="none">
<g clip-path="url(#clip0_10754_26091)">
<path d="M42.7473 15.4026C42.144 13.4421 41.0884 11.934 39.6557 10.9537C38.223 9.89808 36.4133 9.37026 34.4528 9.37026C32.4923 9.37026 30.6826 9.89808 29.25 10.9537C27.8173 12.0094 26.7616 13.5175 26.1584 15.4026C25.9322 16.0812 25.7814 16.9106 25.706 17.8155C25.6306 18.7203 25.5552 19.8514 25.5552 21.2841C25.5552 22.7168 25.5552 23.9232 25.706 24.7527C25.7814 25.6575 26.0076 26.4115 26.1584 27.0902C26.7616 29.0507 27.8173 30.6342 29.25 31.6898C30.6826 32.7455 32.5677 33.2733 34.6791 33.2733C36.7904 33.2733 38.1476 32.8963 39.5049 32.2177C40.8622 31.4636 41.9932 30.5588 42.7473 29.4277C43.0489 29.0507 42.9735 28.5983 42.6719 28.372L41.6162 27.3918C41.4654 27.241 41.3146 27.1656 41.0884 27.1656C40.8622 27.1656 40.7114 27.1656 40.4852 27.5426C39.8819 28.2966 39.1279 28.9753 38.1476 29.5031C37.2428 30.0309 36.0363 30.2571 34.7545 30.2571C33.4726 30.2571 32.1153 29.9555 31.1351 29.2769C30.1548 28.5983 29.4008 27.5426 28.9484 26.1853C28.7975 25.6575 28.7221 25.1297 28.6467 24.6019C28.6467 24.074 28.5713 23.32 28.5713 22.4151H42.5211C43.0489 22.4151 43.3505 22.1135 43.3505 21.5857C43.3505 20.0022 43.3505 18.7957 43.1997 17.9663C43.1243 17.1369 42.8981 16.3074 42.6719 15.5534L42.7473 15.4026ZM30.9843 13.3667C31.8891 12.688 33.0956 12.3864 34.3774 12.3864C35.6593 12.3864 36.9412 12.688 37.846 13.3667C38.7509 14.0453 39.4295 15.0256 39.8819 16.3828C40.0327 16.7598 40.1081 17.2877 40.1835 17.7401C40.1835 18.1925 40.259 18.7957 40.259 19.4744H28.5713C28.5713 18.7957 28.5713 18.2679 28.6467 17.7401C28.6467 17.2877 28.7975 16.7598 28.9484 16.3828C29.3254 15.0256 30.004 14.0453 30.9089 13.3667H30.9843ZM61.8999 21.5857C62.9555 22.6413 63.5588 24.1494 63.5588 25.9591C63.5588 27.7688 62.8047 30.0309 61.3721 31.3128C59.9394 32.5947 57.7527 33.2733 54.9627 33.2733C52.1728 33.2733 53.0776 33.1979 52.1728 32.9717C51.3433 32.7455 50.5139 32.5193 49.7598 32.2177C49.0058 31.916 48.4026 31.539 47.7993 31.162C47.2715 30.785 46.7437 30.408 46.2913 30.0309C45.9142 29.6539 45.9142 29.2769 46.2913 28.8999L47.2715 27.7688C47.4977 27.5426 47.6485 27.5426 47.7993 27.5426C47.9502 27.5426 48.1764 27.5426 48.3272 27.7688C49.1566 28.4475 50.1369 29.0507 51.2679 29.5785C52.399 30.1063 53.6809 30.3326 55.1135 30.3326C56.5462 30.3326 58.2805 29.9555 59.1099 29.2769C59.9394 28.5229 60.3918 27.618 60.3918 26.4115C60.3918 25.2051 60.3918 25.4313 60.241 24.9789C60.0902 24.6019 59.864 24.3002 59.5624 23.9986C59.1853 23.697 58.7329 23.4708 58.1297 23.2446C57.5265 23.0184 56.697 22.8676 55.7168 22.7922L53.53 22.5659C51.4187 22.3397 49.8353 21.7365 48.7042 20.6808C47.5731 19.6252 46.9699 18.1925 46.9699 16.3074C46.9699 14.4223 47.6485 12.4618 49.0812 11.2554C50.4385 10.0489 52.399 9.44566 54.8873 9.44566C57.3756 9.44566 57.7527 9.67187 59.0345 10.1243C60.241 10.5767 61.3721 11.1045 62.2769 11.7078C62.6539 12.0094 62.7293 12.4618 62.4277 12.8388L61.5983 13.9699C61.3721 14.2715 61.1458 14.3469 60.995 14.3469C60.8442 14.3469 60.6934 14.3469 60.5426 14.1961C59.864 13.7437 59.0345 13.3667 57.9789 13.065C56.9232 12.688 55.8676 12.5372 54.7365 12.5372C53.153 12.5372 51.9466 12.8388 51.1925 13.5175C50.4385 14.1207 50.0615 15.0256 50.0615 16.1566C50.0615 17.2877 50.3631 17.8909 51.0417 18.4187C51.7204 18.9466 52.9268 19.3236 54.7365 19.5498L56.9232 19.776C59.1099 20.0022 60.7688 20.6808 61.8245 21.7365L61.8999 21.5857ZM70.7221 9.82268H71.0238V32.8209H67.9322V9.82268H70.7221ZM113.929 11.7078C115.286 13.2159 115.965 15.4026 115.965 18.2679V32.0668C115.965 32.5947 115.663 32.8963 115.21 32.8963H113.702C113.25 32.8963 112.948 32.5947 112.948 32.0668V18.8712C112.948 14.5731 111.214 12.5372 107.67 12.5372C104.126 12.5372 104.805 13.065 103.749 14.0453C102.693 15.101 102.166 16.5336 102.166 18.4187V32.0668C102.166 32.5947 101.864 32.8963 101.412 32.8963H99.9035C99.4511 32.8963 99.1494 32.5947 99.1494 32.0668V9.82268H102.241V12.1602C102.769 11.4816 103.447 10.8783 104.202 10.3505C105.333 9.67187 106.69 9.29485 108.273 9.29485C110.762 9.29485 112.722 10.0489 114.079 11.6324L113.929 11.7078ZM146.88 18.0417L143.562 8.76702C143.562 8.69162 143.487 8.61622 143.412 8.61622H142.884C142.808 8.61622 142.733 8.61622 142.733 8.76702L139.415 18.0417C139.415 18.1171 139.415 18.1925 139.491 18.1925H140.018C140.094 18.1925 140.169 18.1925 140.169 18.0417L140.999 15.7042H145.146L145.975 18.0417C145.975 18.1171 146.051 18.1925 146.126 18.1925H146.654C146.729 18.1925 146.805 18.1925 146.729 18.0417H146.88ZM141.3 14.8747L143.11 9.89808L144.92 14.8747H141.3ZM157.437 8.69162L155.175 17.9663C155.175 18.0417 155.175 18.1171 155.024 18.1171H154.571C154.571 18.1171 154.421 18.1171 154.421 17.9663L152.158 10.1243L149.896 17.9663C149.896 18.0417 149.821 18.1171 149.745 18.1171H149.293C149.218 18.1171 149.142 18.1171 149.142 17.9663L146.88 8.69162C146.88 8.61622 146.88 8.54081 146.956 8.54081H147.483C147.559 8.54081 147.634 8.54081 147.634 8.69162L149.519 16.609L151.706 8.69162C151.706 8.61622 151.781 8.54081 151.857 8.54081H152.309C152.385 8.54081 152.46 8.54081 152.46 8.69162L154.722 16.609L156.532 8.69162C156.532 8.61622 156.607 8.54081 156.683 8.54081H157.21C157.286 8.54081 157.361 8.54081 157.286 8.69162H157.437ZM161.659 8.69162C161.659 8.61622 161.584 8.54081 161.509 8.54081H160.981C160.905 8.54081 160.83 8.54081 160.83 8.69162L157.512 17.9663C157.512 18.0417 157.512 18.1171 157.588 18.1171H158.115C158.191 18.1171 158.266 18.1171 158.266 17.9663L159.096 15.6288H163.243L164.072 17.9663C164.072 18.0417 164.148 18.1171 164.223 18.1171H164.751C164.826 18.1171 164.902 18.1171 164.826 17.9663L161.509 8.69162H161.659ZM159.397 14.8747L161.207 9.89808L163.017 14.8747H159.397ZM170.557 13.7437C171.16 13.5929 171.688 13.2913 171.99 12.8388C172.367 12.3864 172.517 11.8586 172.517 11.1799C172.517 10.5013 172.291 9.67187 171.763 9.21945C171.236 8.76702 170.557 8.54081 169.652 8.54081H166.41C166.334 8.54081 166.259 8.54081 166.259 8.69162V17.9663C166.259 18.0417 166.259 18.1171 166.41 18.1171H166.938C167.013 18.1171 167.088 18.1171 167.088 17.9663V13.8945C167.088 13.8945 167.088 13.8191 167.164 13.8191H169.728L171.763 17.9663C171.763 18.0417 171.839 18.1171 171.914 18.1171H172.593H172.668C172.668 18.1171 172.668 18.1171 172.668 18.0417L170.557 13.8191V13.7437ZM169.577 13.1405H167.164C167.164 13.1405 167.088 13.1405 167.088 13.065V9.44566C167.088 9.44566 167.088 9.37026 167.164 9.37026H169.577C170.255 9.37026 170.783 9.52106 171.16 9.89808C171.537 10.1997 171.688 10.7275 171.688 11.3308C171.688 11.934 171.537 12.3864 171.16 12.7634C170.783 13.065 170.255 13.2159 169.577 13.2159V13.1405ZM174.478 18.1925H177.494C179.078 18.1925 180.133 17.5139 180.586 16.232C180.586 16.0812 180.661 15.9304 180.737 15.7796C180.812 15.6288 180.737 15.478 180.812 15.2518C180.812 15.0256 180.812 14.7993 180.812 14.4977C180.812 14.1961 180.812 13.8191 180.812 13.3667C180.812 12.9142 180.812 12.5372 180.812 12.2356C180.812 11.934 180.812 11.7078 180.812 11.4816C180.812 11.2554 180.812 11.1045 180.737 10.9537C180.737 10.8029 180.737 10.6521 180.586 10.5013C180.133 9.21945 179.153 8.54081 177.494 8.54081H174.478C174.403 8.54081 174.327 8.54081 174.327 8.69162V17.9663C174.327 18.0417 174.327 18.1171 174.478 18.1171V18.1925ZM175.157 9.44566C175.157 9.44566 175.157 9.37026 175.232 9.37026H177.343C177.947 9.37026 178.474 9.52106 178.851 9.74728C179.228 9.97349 179.53 10.3505 179.681 10.8783C179.681 10.9537 179.681 11.1045 179.756 11.2554C179.756 11.4062 179.756 11.557 179.756 11.7078C179.756 11.934 179.756 12.1602 179.756 12.3864C179.756 12.688 179.756 12.9896 179.756 13.4421C179.756 13.8945 179.756 14.1961 179.756 14.4977C179.756 14.7993 179.756 15.0256 179.756 15.1764C179.756 15.4026 179.756 15.5534 179.756 15.6288C179.756 15.7796 179.756 15.855 179.681 16.0058C179.53 16.5336 179.228 16.9107 178.851 17.1369C178.474 17.3631 177.947 17.5139 177.343 17.5139H175.232C175.232 17.5139 175.157 17.5139 175.157 17.4385V9.52106V9.44566ZM188.729 15.5534C188.729 15.9304 188.729 16.3074 188.503 16.6844C188.352 16.9861 188.126 17.2877 187.824 17.5893C187.523 17.8909 187.221 18.0417 186.769 18.1925C186.316 18.3433 185.864 18.4187 185.336 18.4187C184.808 18.4187 184.733 18.4187 184.431 18.3433C184.13 18.3433 183.828 18.1925 183.526 18.1171C183.225 18.0417 182.999 17.8909 182.772 17.7401C182.546 17.5893 182.32 17.4385 182.169 17.2877C182.169 17.2877 182.094 17.1369 182.169 17.0615L182.471 16.609C182.471 16.609 182.622 16.5336 182.697 16.609C182.999 16.8352 183.451 17.0615 183.903 17.2877C184.356 17.5139 184.884 17.5893 185.487 17.5893C186.09 17.5893 186.844 17.4385 187.297 17.0615C187.749 16.6844 187.975 16.232 187.975 15.6288C187.975 15.0256 187.975 15.1764 187.9 14.9501C187.9 14.7239 187.674 14.5731 187.523 14.4223C187.372 14.2715 187.146 14.1207 186.844 14.0453C186.543 13.9699 186.166 13.8191 185.713 13.8191H185.261C184.356 13.6683 183.602 13.3667 183.149 12.9142C182.697 12.4618 182.471 11.934 182.471 11.1799C182.471 10.4259 182.772 9.67187 183.3 9.21945C183.828 8.76702 184.582 8.46541 185.487 8.46541C186.392 8.46541 186.543 8.46541 186.995 8.69162C187.447 8.84243 187.9 9.06864 188.202 9.29485C188.277 9.29485 188.277 9.37026 188.202 9.52106L187.9 9.97349C187.9 9.97349 187.749 9.97349 187.674 9.97349C187.297 9.74728 186.92 9.59647 186.543 9.44566C186.166 9.29485 185.789 9.29485 185.336 9.29485C184.658 9.29485 184.13 9.44566 183.753 9.82268C183.376 10.1997 183.149 10.6521 183.149 11.1799C183.149 11.7078 183.3 12.0848 183.677 12.3864C184.054 12.688 184.582 12.9142 185.412 12.9896H185.864C186.844 13.1405 187.523 13.4421 187.975 13.8945C188.428 14.3469 188.654 14.8747 188.654 15.6288L188.729 15.5534ZM149.067 30.9358H153.591C153.742 30.9358 153.742 30.9358 153.742 31.0866V32.5193C153.742 32.6701 153.742 32.6701 153.591 32.6701H146.729C146.579 32.6701 146.579 32.6701 146.579 32.5193V31.162C146.579 31.0866 146.579 31.0112 146.654 30.9358L150.952 25.5821C151.178 25.2805 151.404 24.9789 151.555 24.6773C151.706 24.3756 151.781 24.074 151.781 23.697C151.781 23.32 151.631 22.8676 151.329 22.5659C151.027 22.2643 150.65 22.1135 150.123 22.1135C149.595 22.1135 149.218 22.2643 148.991 22.4905C148.765 22.7168 148.539 23.1692 148.464 23.6216C148.464 23.7724 148.388 23.7724 148.237 23.7724L146.654 23.4708C146.503 23.4708 146.503 23.3954 146.503 23.2446C146.503 22.8676 146.654 22.5659 146.805 22.1889C146.956 21.8119 147.182 21.5103 147.483 21.2087C147.785 20.9071 148.162 20.6808 148.614 20.53C149.067 20.3792 149.595 20.3038 150.123 20.3038C150.65 20.3038 151.178 20.3792 151.631 20.6054C152.083 20.8317 152.46 21.0579 152.762 21.3595C153.063 21.6611 153.289 22.0381 153.44 22.4151C153.591 22.7922 153.666 23.2446 153.666 23.7724C153.666 24.3002 153.591 24.8281 153.365 25.2805C153.139 25.7329 152.912 26.1853 152.535 26.6378L148.991 30.9358H149.067ZM163.092 23.8478C163.092 23.5462 163.092 23.32 163.017 23.1692C163.017 23.0184 163.017 22.8676 162.941 22.7168C162.715 21.9627 162.263 21.3595 161.659 20.9071C161.056 20.53 160.302 20.3038 159.397 20.3038C158.492 20.3038 157.738 20.53 157.135 20.9071C156.532 21.2841 156.155 21.8873 155.929 22.7168C155.929 22.8676 155.929 23.0184 155.853 23.1692C155.853 23.32 155.853 23.5462 155.778 23.8478C155.702 24.1494 155.778 24.5264 155.778 24.9789C155.778 25.4313 155.778 26.0345 155.778 26.7132C155.778 27.3918 155.778 27.995 155.778 28.4475C155.778 28.8999 155.778 29.2769 155.778 29.5785C155.778 29.8801 155.778 30.1063 155.853 30.2571C155.929 30.408 155.853 30.5588 155.929 30.7096C156.155 31.4636 156.607 32.0668 157.135 32.5193C157.663 32.9717 158.492 33.1225 159.397 33.1225C160.302 33.1225 161.056 32.8963 161.659 32.5193C162.263 32.1422 162.64 31.539 162.941 30.7096C162.941 30.5588 162.941 30.4834 163.017 30.2571C163.017 30.1063 163.017 29.8801 163.092 29.5785C163.092 29.2769 163.092 28.8999 163.092 28.4475C163.092 27.995 163.092 27.3918 163.092 26.7132C163.092 26.0345 163.092 25.4313 163.092 24.9789C163.092 24.5264 163.092 24.1494 163.092 23.8478ZM161.056 28.2966C161.056 28.7491 161.056 29.0507 161.056 29.2769C161.056 29.5031 161.056 29.7293 161.056 29.8047C161.056 29.9555 161.056 30.0309 160.981 30.1063C160.754 30.785 160.227 31.0866 159.473 31.0866C158.719 31.0866 158.191 30.785 157.965 30.1063C157.965 30.0309 157.965 29.8801 157.889 29.8047C157.889 29.6539 157.889 29.5031 157.889 29.2769C157.889 29.0507 157.889 28.6737 157.889 28.2966C157.889 27.8442 157.889 27.3164 157.889 26.6378C157.889 25.9591 157.889 25.4313 157.889 24.9789C157.889 24.5264 157.889 24.2248 157.889 23.9986C157.889 23.7724 157.889 23.5462 157.889 23.4708C157.889 23.3954 157.889 23.2446 157.965 23.1692C158.191 22.4905 158.719 22.1889 159.473 22.1889C160.227 22.1889 160.754 22.4905 160.981 23.1692C160.981 23.2446 160.981 23.3954 161.056 23.4708C161.056 23.6216 161.056 23.7724 161.056 23.9986C161.056 24.2248 161.056 24.6019 161.056 24.9789C161.056 25.4313 161.056 25.9591 161.056 26.6378C161.056 27.3164 161.056 27.8442 161.056 28.2966ZM170.18 20.6808V32.5947C170.18 32.7455 170.18 32.7455 170.029 32.7455H168.37C168.219 32.7455 168.219 32.7455 168.219 32.5947V22.943L166.334 24.2248C166.184 24.3002 166.108 24.2248 166.108 24.1494V22.3397C166.108 22.2643 166.108 22.1889 166.259 22.1135L168.219 20.6808C168.295 20.6808 168.446 20.6054 168.521 20.6054H170.029C170.18 20.6054 170.18 20.6054 170.18 20.7563V20.6808ZM180.284 26.3361C180.586 26.1099 180.887 25.8083 181.114 25.3559C181.34 24.9035 181.491 24.3756 181.491 23.7724C181.491 23.1692 181.415 22.8676 181.264 22.4905C181.114 22.0381 180.887 21.6611 180.586 21.3595C180.284 21.0579 179.907 20.7563 179.455 20.6054C179.002 20.4546 178.474 20.3038 177.871 20.3038C177.268 20.3038 176.74 20.3792 176.288 20.6054C175.835 20.8317 175.458 21.0579 175.157 21.3595C174.855 21.6611 174.629 22.0381 174.478 22.4905C174.327 22.943 174.252 23.32 174.252 23.7724C174.252 24.2248 174.403 24.9035 174.629 25.3559C174.855 25.8083 175.157 26.1099 175.458 26.3361C175.006 26.6378 174.704 27.0148 174.403 27.5426C174.101 28.0704 173.95 28.6737 173.95 29.3523C173.95 30.0309 174.026 30.408 174.252 30.8604C174.478 31.3128 174.704 31.6898 175.081 31.9914C175.458 32.2931 175.835 32.5947 176.363 32.7455C176.816 32.8963 177.343 33.0471 177.947 33.0471C178.55 33.0471 179.078 32.9717 179.53 32.7455C179.982 32.5193 180.435 32.2931 180.812 31.9914C181.189 31.6898 181.415 31.3128 181.641 30.8604C181.868 30.408 181.943 29.8801 181.943 29.3523C181.943 28.8245 181.792 28.0704 181.491 27.5426C181.189 27.0148 180.812 26.6378 180.435 26.4115L180.284 26.3361ZM176.589 22.6413C176.891 22.3397 177.268 22.1889 177.796 22.1889C178.324 22.1889 178.701 22.3397 179.002 22.6413C179.304 22.943 179.455 23.32 179.455 23.8478C179.455 24.3756 179.304 24.6773 179.002 24.9789C178.701 25.2805 178.324 25.5067 177.796 25.5067C177.268 25.5067 176.891 25.3559 176.589 24.9789C176.288 24.6773 176.137 24.2248 176.137 23.8478C176.137 23.4708 176.288 23.0184 176.589 22.6413ZM179.228 30.6342C178.851 31.0112 178.399 31.162 177.796 31.162C177.193 31.162 176.74 31.0112 176.438 30.6342C176.061 30.2571 175.911 29.8047 175.911 29.2015C175.911 28.5983 176.061 28.1458 176.438 27.7688C176.816 27.3918 177.268 27.241 177.796 27.241C178.324 27.241 178.851 27.3918 179.228 27.7688C179.605 28.1458 179.756 28.5983 179.756 29.2015C179.756 29.8047 179.605 30.2571 179.228 30.6342ZM5.95015 36.7419V42.6988C5.95015 42.6988 5.95015 42.7742 5.87475 42.7742H5.57313C5.57313 42.7742 5.49773 42.7742 5.49773 42.6988V37.8729L3.76344 41.7185C3.76344 41.7185 3.76344 41.7185 3.76344 41.794C3.76344 41.794 3.76344 41.794 3.68803 41.794H3.53723C3.53723 41.794 3.38642 41.794 3.38642 41.7185L1.65213 37.8729V42.6988C1.65213 42.6988 1.65213 42.7742 1.57672 42.7742H1.27511C1.27511 42.7742 1.1997 42.7742 1.1997 42.6988V36.7419C1.1997 36.7419 1.1997 36.6665 1.27511 36.6665H1.65213C1.65213 36.6665 1.72753 36.6665 1.80293 36.7419L3.76344 41.1153L5.72394 36.7419C5.72394 36.7419 5.72394 36.6665 5.87475 36.6665H6.25177C6.25177 36.6665 6.32717 36.6665 6.32717 36.7419H5.95015ZM7.75985 38.5516V42.6988C7.75985 42.6988 7.75985 42.7742 7.68444 42.7742H7.38283C7.38283 42.7742 7.30742 42.7742 7.30742 42.6988V38.5516C7.30742 38.5516 7.30742 38.4762 7.38283 38.4762H7.68444C7.68444 38.4762 7.75985 38.4762 7.75985 38.5516ZM7.83525 36.7419V37.2697C7.83525 37.2697 7.83525 37.3451 7.75985 37.3451H7.38283C7.38283 37.3451 7.30742 37.3451 7.30742 37.2697V36.7419C7.30742 36.7419 7.30742 36.6665 7.38283 36.6665H7.75985C7.75985 36.6665 7.83525 36.6665 7.83525 36.7419ZM12.1333 36.5911H11.8317C11.8317 36.5911 11.7563 36.5911 11.7563 36.6665V39.004C11.6809 38.7778 11.53 38.627 11.3038 38.4762C11.0776 38.3254 10.8514 38.25 10.4744 38.25C9.72035 38.25 9.26793 38.627 9.04171 39.3056C9.04171 39.4564 8.96631 39.6826 8.89091 39.8335C8.8155 39.9843 8.89091 40.2859 8.89091 40.5121C8.89091 40.7383 8.89091 40.9645 8.89091 41.1907C8.89091 41.4169 8.89091 41.5677 9.04171 41.7185C9.26793 42.3972 9.72035 42.7742 10.4744 42.7742C11.2284 42.7742 11.153 42.7742 11.3038 42.548C11.53 42.3972 11.6809 42.2464 11.7563 42.0202V42.548C11.7563 42.548 11.7563 42.6234 11.8317 42.6234H12.1333C12.1333 42.6234 12.2087 42.6234 12.2087 42.548V36.5911C12.2087 36.5911 12.2087 36.5157 12.1333 36.5157V36.5911ZM11.6809 41.1907C11.6809 41.3415 11.6809 41.4923 11.6054 41.6431C11.53 41.8694 11.3792 42.0956 11.2284 42.2464C11.0022 42.3972 10.776 42.4726 10.5498 42.4726C10.3236 42.4726 10.022 42.4726 9.87116 42.2464C9.72035 42.0956 9.56954 41.9448 9.49414 41.7185C9.49414 41.5677 9.41873 41.4169 9.41873 41.2661C9.41873 41.1153 9.41873 40.8891 9.41873 40.7383C9.41873 40.5875 9.41873 40.3613 9.41873 40.2105C9.41873 40.0597 9.41873 39.9089 9.49414 39.758C9.56954 39.5318 9.72035 39.3056 9.87116 39.2302C10.022 39.0794 10.3236 39.004 10.5498 39.004C10.776 39.004 11.0776 39.004 11.2284 39.2302C11.4546 39.381 11.53 39.5318 11.6054 39.8335C11.6054 39.9843 11.6054 40.0597 11.6809 40.2859C11.7563 40.5121 11.6809 40.6629 11.6809 40.8891C11.6809 41.1153 11.6809 41.3415 11.6809 41.4923V41.1907ZM16.5821 36.5911H16.2805C16.2805 36.5911 16.2051 36.5911 16.2051 36.6665V39.004C16.1297 38.7778 15.9789 38.627 15.7527 38.4762C15.5265 38.3254 15.3002 38.25 14.9232 38.25C14.1692 38.25 13.7168 38.627 13.4905 39.3056C13.4905 39.4564 13.4151 39.6826 13.3397 39.8335C13.2643 39.9843 13.3397 40.2859 13.3397 40.5121C13.3397 40.7383 13.3397 40.9645 13.3397 41.1907C13.3397 41.4169 13.3397 41.5677 13.4905 41.7185C13.7168 42.3972 14.1692 42.7742 14.9232 42.7742C15.6773 42.7742 15.6019 42.7742 15.7527 42.548C15.9789 42.3972 16.1297 42.2464 16.2051 42.0202V42.548C16.2051 42.548 16.2051 42.6234 16.2805 42.6234H16.5821C16.5821 42.6234 16.6575 42.6234 16.6575 42.548V36.5911C16.6575 36.5911 16.6575 36.5157 16.5821 36.5157V36.5911ZM16.1297 41.1907C16.1297 41.3415 16.1297 41.4923 16.0543 41.6431C15.9789 41.8694 15.8281 42.0956 15.6773 42.2464C15.451 42.3972 15.2248 42.4726 14.9986 42.4726C14.7724 42.4726 14.4708 42.4726 14.32 42.2464C14.1692 42.0956 14.0184 41.9448 13.943 41.7185C13.943 41.5677 13.8676 41.4169 13.8676 41.2661C13.8676 41.1153 13.8676 40.8891 13.8676 40.7383C13.8676 40.5875 13.8676 40.3613 13.8676 40.2105C13.8676 40.0597 13.8676 39.9089 13.943 39.758C14.0184 39.5318 14.1692 39.3056 14.32 39.2302C14.4708 39.0794 14.7724 39.004 14.9986 39.004C15.2248 39.004 15.5265 39.004 15.6773 39.2302C15.9035 39.381 15.9789 39.5318 16.0543 39.8335C16.0543 39.9843 16.0543 40.0597 16.1297 40.2859C16.2051 40.5121 16.1297 40.6629 16.1297 40.8891C16.1297 41.1153 16.1297 41.3415 16.1297 41.4923V41.1907ZM19.1458 42.3972V42.6988C19.1458 42.6988 19.1458 42.7742 19.0704 42.7742H18.8442C18.5426 42.7742 18.3164 42.6988 18.1656 42.548C18.0148 42.3972 17.9394 42.171 17.9394 41.794V36.7419C17.9394 36.7419 17.9394 36.6665 18.0148 36.6665H18.3164C18.3164 36.6665 18.3918 36.6665 18.3918 36.7419V41.794C18.3918 42.0202 18.3918 42.171 18.4672 42.2464C18.5426 42.3218 18.6934 42.3972 18.8442 42.3972H18.995C18.995 42.3972 19.0704 42.3972 19.0704 42.4726L19.1458 42.3972ZM23.0668 39.4564C22.916 39.0794 22.7652 38.8532 22.4636 38.627C22.162 38.4008 21.8604 38.3254 21.4834 38.3254C21.1063 38.3254 20.7293 38.4008 20.5031 38.627C20.2015 38.8532 20.0507 39.0794 19.8999 39.4564C19.8999 39.6072 19.8999 39.758 19.8245 39.9089C19.7491 40.0597 19.8245 40.2859 19.8245 40.5875C19.8245 40.8891 19.8245 41.1153 19.8245 41.2661C19.8245 41.4169 19.8245 41.5677 19.8999 41.7185C20.0507 42.0956 20.2015 42.3972 20.5031 42.548C20.8047 42.7742 21.1063 42.8496 21.5588 42.8496C22.0112 42.8496 22.2374 42.8496 22.4636 42.6234C22.7652 42.4726 22.916 42.3218 23.0668 42.0956C23.0668 42.0956 23.0668 42.0202 23.0668 41.9448L22.8406 41.7185C22.8406 41.7185 22.7652 41.7185 22.6898 41.7185C22.539 41.8694 22.3882 42.0202 22.2374 42.0956C22.0112 42.171 21.785 42.2464 21.5588 42.2464C21.3326 42.2464 21.0309 42.2464 20.8047 42.0202C20.5785 41.8694 20.4277 41.6431 20.3523 41.4169C20.3523 41.3415 20.3523 41.1907 20.3523 41.1153C20.3523 41.0399 20.3523 40.8891 20.3523 40.6629H23.1423C23.1423 40.6629 23.2177 40.6629 23.2177 40.5875C23.2177 40.2859 23.2177 40.0597 23.2177 39.9089C23.2177 39.758 23.2177 39.6072 23.1423 39.4564H23.0668ZM22.6144 40.2859H20.2769C20.2769 40.1351 20.2769 40.0597 20.2769 39.9089C20.2769 39.758 20.2769 39.6826 20.2769 39.6072C20.3523 39.3056 20.5031 39.1548 20.7293 39.004C20.9555 38.8532 21.1818 38.7778 21.4834 38.7778C21.785 38.7778 22.0112 38.7778 22.2374 39.004C22.4636 39.1548 22.539 39.3056 22.6898 39.6072C22.6898 39.6826 22.6898 39.758 22.6898 39.9089C22.6898 40.0597 22.6898 40.1351 22.6898 40.2859H22.6144ZM29.7778 36.7419V37.0435C29.7778 37.0435 29.7778 37.1189 29.7024 37.1189H26.6862V39.3056H29.3254C29.3254 39.3056 29.4008 39.3056 29.4008 39.381V39.6826C29.4008 39.6826 29.4008 39.758 29.3254 39.758H26.6862V42.0202H29.7024C29.7024 42.0202 29.7778 42.0202 29.7778 42.0956V42.3972C29.7778 42.3972 29.7778 42.4726 29.7024 42.4726H26.1584C26.1584 42.4726 26.083 42.4726 26.083 42.3972V36.4403C26.083 36.4403 26.083 36.3649 26.1584 36.3649H29.7024C29.7024 36.3649 29.7778 36.3649 29.7778 36.4403V36.7419ZM33.3972 38.7024C33.2464 38.5516 33.0956 38.4762 32.9448 38.4762C32.7186 38.4762 32.4923 38.4762 32.2661 38.4762C32.0399 38.4762 31.6629 38.4762 31.4367 38.5516C31.2105 38.5516 30.9843 38.7024 30.8335 38.8532C30.8335 38.8532 30.8335 38.9286 30.8335 39.004L30.9843 39.2302C30.9843 39.2302 31.0597 39.2302 31.1351 39.2302C31.2859 39.1548 31.4367 39.0794 31.5875 39.004C31.7383 39.004 31.9645 38.9286 32.2661 38.9286C32.5677 38.9286 32.6431 38.9286 32.794 38.9286C32.9448 38.9286 33.0202 39.004 33.171 39.0794C33.2464 39.1548 33.3218 39.2302 33.3218 39.381C33.3218 39.5318 33.3218 39.6826 33.3218 39.8335V40.2859H32.2661C31.7383 40.2859 31.3613 40.3613 31.0597 40.5875C30.7581 40.8137 30.6072 41.1153 30.6072 41.5677C30.6072 42.0202 30.7581 42.3218 30.9843 42.548C31.2859 42.7742 31.5875 42.8496 32.0399 42.8496C32.4923 42.8496 32.7186 42.8496 32.9448 42.6988C33.171 42.548 33.3218 42.3972 33.3972 42.2464V42.6988C33.3972 42.6988 33.3972 42.7742 33.4726 42.7742H33.7742C33.7742 42.7742 33.8496 42.7742 33.8496 42.6988V39.8335C33.8496 39.6072 33.8496 39.381 33.7742 39.1548C33.6988 38.9286 33.6234 38.8532 33.4726 38.7024H33.3972ZM33.3218 41.4169C33.3218 41.7185 33.2464 41.9448 33.0202 42.0956C32.794 42.2464 32.4923 42.3218 32.1153 42.3218C31.7383 42.3218 31.5121 42.3218 31.3613 42.0956C31.2105 41.9448 31.0597 41.7185 31.0597 41.4923C31.0597 41.2661 31.1351 40.9645 31.3613 40.8891C31.5875 40.8137 31.8891 40.6629 32.2661 40.6629H33.3218V41.3415V41.4169ZM37.6952 40.6629C37.9214 40.8891 37.9968 41.1153 37.9968 41.4923C37.9968 41.8694 37.846 42.2464 37.5444 42.4726C37.2428 42.6988 36.8658 42.8496 36.3379 42.8496C35.8101 42.8496 35.9609 42.8496 35.8101 42.8496C35.6593 42.8496 35.5085 42.7742 35.3577 42.6988C35.2069 42.6988 35.0561 42.548 34.9807 42.4726C34.9053 42.4726 34.7545 42.3218 34.6791 42.2464C34.6791 42.2464 34.6791 42.171 34.6791 42.0956L34.9053 41.8694C34.9053 41.8694 34.9807 41.8694 35.0561 41.8694C35.2069 42.0202 35.4331 42.0956 35.6593 42.2464C35.8855 42.3218 36.1871 42.3972 36.4888 42.3972C36.7904 42.3972 37.1674 42.3972 37.3182 42.171C37.469 42.0202 37.6198 41.794 37.6198 41.5677C37.6198 41.3415 37.6198 41.3415 37.6198 41.2661C37.6198 41.1907 37.5444 41.1153 37.469 41.0399C37.469 41.0399 37.3182 40.8891 37.1674 40.8891C37.0166 40.8891 36.8658 40.8891 36.715 40.8137H36.2625C35.8855 40.7383 35.5839 40.5875 35.3577 40.4367C35.1315 40.2105 35.0561 39.9843 35.0561 39.6072C35.0561 39.2302 35.2069 38.9286 35.4331 38.7024C35.7347 38.4762 36.0363 38.4008 36.5642 38.4008C37.092 38.4008 37.092 38.4008 37.3936 38.5516C37.6952 38.7024 37.846 38.7024 37.9968 38.8532C37.9968 38.8532 37.9968 38.9286 37.9968 39.004L37.846 39.2302C37.846 39.2302 37.846 39.2302 37.6952 39.2302C37.5444 39.1548 37.3936 39.0794 37.1674 39.004C36.9412 39.004 36.715 38.9286 36.4888 38.9286C36.1871 38.9286 35.8855 38.9286 35.7347 39.1548C35.5839 39.3056 35.5085 39.4564 35.5085 39.6826C35.5085 39.9089 35.5085 40.0597 35.7347 40.2105C35.9609 40.3613 36.1117 40.4367 36.4888 40.4367H36.9412C37.3936 40.5121 37.6952 40.6629 37.846 40.8137L37.6952 40.6629ZM40.636 38.5516V38.7778C40.636 38.7778 40.636 38.8532 40.5606 38.8532H39.7311V41.4923C39.7311 41.794 39.7311 41.9448 39.8819 42.0956C39.9573 42.171 40.1835 42.2464 40.4098 42.2464H40.5606C40.5606 42.2464 40.636 42.2464 40.636 42.3218V42.6234C40.636 42.6234 40.636 42.6988 40.5606 42.6988H40.3344C39.9573 42.6988 39.6557 42.6234 39.5049 42.4726C39.3541 42.3218 39.2787 42.0202 39.2787 41.5677V38.9286H38.8263C38.8263 38.9286 38.7509 38.9286 38.7509 38.8532V38.627C38.7509 38.627 38.7509 38.5516 38.8263 38.5516H39.2787V37.3451C39.2787 37.3451 39.2787 37.2697 39.3541 37.2697H39.6557C39.6557 37.2697 39.7311 37.2697 39.7311 37.3451V38.5516H40.5606C40.5606 38.5516 40.636 38.5516 40.636 38.627V38.5516ZM134.137 7.86218L134.891 8.16379L125.692 33.1225L124.938 32.8209L134.137 7.86218ZM72.1548 3.48875C72.1548 4.92142 70.9484 6.12789 69.5157 6.12789C68.083 6.12789 66.8765 4.92142 66.8765 3.48875C66.8765 2.05607 68.083 0.849609 69.5157 0.849609C70.9484 0.849609 72.1548 2.05607 72.1548 3.48875ZM92.5893 9.82268H92.8909V17.5139H89.5731C89.4977 17.0615 89.4223 16.609 89.2715 16.1566C88.8191 14.7993 88.2159 13.8945 87.311 13.2913C86.4062 12.688 85.4259 12.4618 84.2195 12.4618C81.6557 12.4618 80.0722 13.6683 79.2428 16.0812C79.0166 16.6844 78.8658 17.4385 78.7904 18.1925C78.715 19.022 78.6396 20.0022 78.6396 21.0579C78.6396 23.2446 78.8658 24.9035 79.2428 26.0345C79.9968 28.5229 81.6557 29.7293 84.2195 29.7293C86.7832 29.7293 86.4816 29.4277 87.311 28.8999C88.1405 28.3721 88.8191 27.3918 89.2715 26.0345C89.4223 25.5821 89.4977 25.1297 89.5731 24.6019H92.8909V31.9914C92.8909 35.1584 92.0615 37.6467 90.478 39.2302C88.8945 40.8137 86.7078 41.6431 83.9178 41.6431C81.1279 41.6431 80.8263 41.3415 79.469 40.6629C78.1117 39.9843 77.1315 39.2302 76.5283 38.25C76.302 37.8729 76.3774 37.4205 76.6791 37.1943L77.8101 36.1387C77.9609 35.9878 78.1871 35.9124 78.3379 35.9124C78.4888 35.9124 78.715 35.9124 78.9412 36.2895C80.223 37.7975 81.8819 38.5516 83.9932 38.5516C86.1046 38.5516 87.2356 38.0238 88.2913 37.0435C89.2715 36.0633 89.7993 34.4044 89.7993 32.0668V30.0309C89.3469 30.7096 88.7437 31.3128 87.9897 31.7652C86.934 32.4439 85.5013 32.8209 83.6916 32.8209C81.8819 32.8209 80.223 32.3685 78.9412 31.3882C77.6593 30.408 76.7545 29.0507 76.1512 27.241C75.925 26.4115 75.6988 25.5067 75.6234 24.5264C75.4726 23.5462 75.4726 22.4151 75.4726 21.0579C75.4726 19.7006 75.4726 18.5695 75.6234 17.5893C75.7742 16.609 75.925 15.7042 76.1512 14.8747C76.6791 13.065 77.6593 11.7078 78.9412 10.7275C80.223 9.74728 81.8065 9.21945 83.6916 9.21945C85.5767 9.21945 86.934 9.59647 87.9897 10.2751C88.6683 10.7275 89.2715 11.3308 89.7993 12.0094V9.67187H92.5893V9.82268ZM11.0776 33.1225H0.671875V25.8837H3.98965V30.0309H10.776C12.6611 30.0309 14.32 29.6539 15.5265 28.9753C16.7329 28.2966 17.6378 27.1656 18.0902 25.5821C18.241 25.2051 18.3164 24.8281 18.3918 24.451C18.4672 24.074 18.5426 23.5462 18.618 22.943C18.618 22.3397 18.6934 21.5857 18.7688 20.6808C18.7688 19.776 18.7688 18.7203 18.7688 17.4385C18.7688 16.1566 18.7688 15.101 18.7688 14.1961C18.7688 13.2913 18.7688 12.5372 18.618 11.934C18.618 11.3308 18.4672 10.8029 18.3918 10.4259C18.3164 10.0489 18.1656 9.59647 18.0902 9.29485C17.5624 7.78677 16.7329 6.65571 15.5265 5.90167C14.32 5.22304 12.6611 4.84602 10.776 4.84602H3.98965V8.99324H0.671875V1.75446H11.0776C16.3559 1.75446 19.8245 3.94117 21.1818 8.2392C21.3326 8.69162 21.4834 9.14404 21.5588 9.67187C21.6342 10.1997 21.785 10.7275 21.8604 11.4816C21.9358 12.1602 22.0112 12.9896 22.0112 13.9699C22.0112 14.9501 22.0112 16.1566 22.0112 17.5139C22.0112 18.8712 22.0112 20.0776 22.0112 21.0579C22.0112 22.0381 21.9358 22.8676 21.8604 23.5462C21.785 24.2248 21.7096 24.8281 21.5588 25.3559C21.4834 25.8837 21.3326 26.3361 21.1818 26.7886C19.7491 31.0866 16.3559 33.2733 11.0776 33.2733V33.1225Z" fill="white"/>
</g>
<defs>
<clipPath id="clip0_10754_26091">
<rect width="188.057" height="42" fill="white" transform="translate(0.671875 0.849609)"/>
</clipPath>
</defs>
</svg>