<?xml version="1.0" encoding="utf-8"?>
<svg xmlns="http://www.w3.org/2000/svg" width="137" height="56" viewBox="0 0 137 56" fill="none">
<g clip-path="url(#clip0_10754_25866)">
<path d="M4.95317 22.2019L0 26.9608L2.62227 29.486L18.2199 14.0826L26.6112 22.4738L24.1443 24.9407L18.589 19.3659L0.602151 37.1391C0.640999 37.1779 18.1228 54.6597 18.2005 54.7374C18.3753 54.5626 36.129 36.9254 36.129 36.9254L31.2536 32.0111L35.9542 27.427L33.6039 25.0378L18.1811 40.5189L9.7898 32.1276L12.2761 29.6413L18.2393 35.5852C18.2393 35.5852 36.0902 18.1422 35.8182 17.948L18.453 0C18.453 0 0.485605 17.4624 0.330212 17.5983L4.95317 22.2019ZM18.1228 45.0059L28.9226 34.4003L31.4089 36.8866C31.4089 36.8866 18.4142 49.9396 18.1811 50.1727L4.99202 36.9643L7.53659 34.4197L18.1228 45.0059ZM31.3895 17.6372L28.9615 20.0652L18.3365 9.47902L7.51717 20.1235L5.01145 17.6178L18.2005 4.44814L31.3895 17.6372ZM14.607 27.2522L18.1422 23.7364L21.7163 27.2522L18.1616 30.8068L14.5876 27.2522H14.607Z" fill="white"/>
<path d="M46.8907 3.68945V10.6045H45.8418V3.68945H46.8907Z" fill="white"/>
<path d="M49.6289 10.6039V3.22266L54.6404 8.46719V3.68884H55.6893V11.0312L50.6778 5.78665V10.6233H49.6289V10.6039Z" fill="white"/>
<path d="M61.8657 4.68009H59.4571V6.42827H61.7686V7.4189H59.4571V10.585H58.4082V3.68945H61.8657V4.68009Z" fill="white"/>
<path d="M65.3818 3.68945C66.2171 3.68945 66.7609 3.78657 67.2077 4.09736C67.9652 4.60239 68.0235 5.41821 68.0235 5.729C68.0235 6.71963 67.4214 7.45775 66.489 7.65199L68.6451 10.6045H67.3631L65.3818 7.76854H65.1876V10.6045H64.1387V3.68945H65.3624H65.3818ZM65.207 6.8556H65.5372C65.8286 6.8556 67.0135 6.81675 67.0135 5.729C67.0135 4.64124 66.1005 4.66066 65.5761 4.66066H65.207V6.8556Z" fill="white"/>
<path d="M74.8033 8.9337H71.8508L71.0933 10.6042H69.9473L73.3853 3.28125L76.668 10.6042H75.522L74.8033 8.9337ZM74.376 7.94306L73.3465 5.59273L72.2782 7.94306H74.376Z" fill="white"/>
<path d="M81.3875 5.22322C81.3292 5.06782 81.2321 4.93185 81.0767 4.79588C80.8631 4.62107 80.63 4.54337 80.3386 4.54337C79.6976 4.54337 79.3674 4.93185 79.3674 5.37861C79.3674 5.82537 79.4451 5.94191 80.1055 6.21385L80.8048 6.48579C82.0868 7.01024 82.4364 7.72894 82.4364 8.52533C82.4364 9.84618 81.5041 10.7397 80.2026 10.7397C78.9012 10.7397 78.9206 10.4483 78.571 10.0404C78.2019 9.63251 78.0271 9.16633 77.9883 8.70015L79.0372 8.46706C79.0372 8.8167 79.1537 9.12748 79.3286 9.34115C79.5228 9.59366 79.8142 9.74906 80.2221 9.74906C80.8631 9.74906 81.3681 9.28288 81.3681 8.58361C81.3681 7.88433 80.8242 7.59297 80.3775 7.39873L79.717 7.12679C79.1537 6.8937 78.2991 6.40809 78.2991 5.37861C78.2991 4.34913 79.0178 3.55273 80.3192 3.55273C81.6206 3.55273 81.4846 3.82467 81.6983 4.01892C81.8925 4.19373 82.0868 4.42682 82.2228 4.71819L81.3681 5.22322H81.3875Z" fill="white"/>
<path d="M86.5147 4.68009V10.6045H85.4658V4.68009H83.873V3.68945H88.1075V4.68009H86.5147Z" fill="white"/>
<path d="M91.333 3.68945C92.1682 3.68945 92.7121 3.78657 93.1589 4.09736C93.9164 4.60239 93.9747 5.41821 93.9747 5.729C93.9747 6.71963 93.3725 7.45775 92.4402 7.65199L94.5963 10.6045H93.3143L91.333 7.76854H91.1388V10.6045H90.0898V3.68945H91.3136H91.333ZM91.1582 6.8556H91.4884C91.7798 6.8556 92.9646 6.81675 92.9646 5.729C92.9646 4.64124 92.0517 4.66066 91.5272 4.66066H91.1582V6.8556Z" fill="white"/>
<path d="M97.7616 3.68945V7.84623C97.7616 8.21529 97.7616 8.68148 97.9752 9.03111C98.1889 9.38075 98.6551 9.74981 99.2572 9.74981C99.8594 9.74981 100.326 9.38075 100.539 9.03111C100.753 8.66205 100.753 8.21529 100.753 7.84623V3.68945H101.802V8.1376C101.802 8.68148 101.685 9.3419 101.161 9.92462C100.792 10.3131 100.19 10.7404 99.2378 10.7404C98.286 10.7404 97.6839 10.3325 97.3148 9.92462C96.7904 9.3419 96.6738 8.68148 96.6738 8.1376V3.68945H97.7227H97.7616Z" fill="white"/>
<path d="M109.669 5.30113C108.911 4.60186 108.193 4.54358 107.785 4.54358C106.289 4.54358 105.26 5.65076 105.26 7.16585C105.26 8.68094 106.309 9.74927 107.785 9.74927C109.261 9.74927 109.261 9.32194 109.65 8.95288V10.2155C108.95 10.6234 108.232 10.7399 107.746 10.7399C106.483 10.7399 105.706 10.1766 105.299 9.78812C104.483 9.03058 104.191 8.15649 104.191 7.18528C104.191 6.21407 104.716 5.02919 105.299 4.48531C106.017 3.80546 106.833 3.5918 107.804 3.5918C108.776 3.5918 109.047 3.70834 109.65 4.09683V5.33998L109.669 5.30113Z" fill="white"/>
<path d="M113.962 4.68009V10.6045H112.913V4.68009H111.32V3.68945H115.555V4.68009H113.962Z" fill="white"/>
<path d="M118.586 3.68945V7.84623C118.586 8.21529 118.586 8.68148 118.799 9.03111C119.013 9.38075 119.479 9.74981 120.081 9.74981C120.684 9.74981 121.15 9.38075 121.363 9.03111C121.577 8.66205 121.577 8.21529 121.577 7.84623V3.68945H122.626V8.1376C122.626 8.68148 122.509 9.3419 121.985 9.92462C121.616 10.3131 121.014 10.7404 120.062 10.7404C119.11 10.7404 118.508 10.3325 118.139 9.92462C117.615 9.3419 117.498 8.68148 117.498 8.1376V3.68945H118.547H118.586Z" fill="white"/>
<path d="M126.606 3.68945C127.442 3.68945 127.986 3.78657 128.432 4.09736C129.19 4.60239 129.248 5.41821 129.248 5.729C129.248 6.71963 128.646 7.45775 127.714 7.65199L129.87 10.6045H128.588L126.606 7.76854H126.412V10.6045H125.363V3.68945H126.587H126.606ZM126.432 6.8556H126.762C127.053 6.8556 128.238 6.81675 128.238 5.729C128.238 4.64124 127.325 4.66066 126.801 4.66066H126.432V6.8556Z" fill="white"/>
<path d="M135.795 4.68009H133.037V6.42827H135.718V7.4189H133.037V9.59441H135.795V10.585H131.988V3.68945H135.795V4.68009Z" fill="white"/>
<path d="M51.2402 19.442L50.4244 20.3938L51.7064 21.9865H50.4244L49.7446 21.1319C49.5892 21.3067 49.3755 21.4815 49.1618 21.6369C48.7345 21.9283 48.3072 22.1225 47.6467 22.1225C46.3453 22.1225 45.5684 21.2678 45.5684 20.1412C45.5684 19.0146 46.0345 18.7621 46.559 18.3542C46.7532 18.2182 47.0446 18.0046 47.1029 17.9657C46.8698 17.7326 46.423 17.2082 46.423 16.5283C46.423 15.8485 46.9281 14.9355 48.0547 14.9355C49.1813 14.9355 49.7057 15.6931 49.7057 16.4312C49.7057 17.1693 49.5309 17.1693 49.4144 17.3247C49.2395 17.5384 49.0064 17.7715 48.5597 18.1211L49.7834 19.6168L50.5798 18.7233L51.2597 19.4225L51.2402 19.442ZM47.7244 18.7233C47.4914 18.8398 47.1611 19.0729 46.9669 19.2866C46.6755 19.5974 46.5978 19.9276 46.5978 20.1607C46.5978 20.724 47.0252 21.2096 47.6662 21.2096C48.3072 21.2096 48.1906 21.1124 48.4431 20.9376C48.6568 20.7822 48.9676 20.4909 49.0841 20.3743L47.7244 18.7233ZM48.3266 17.1111C48.5791 16.9362 48.7345 16.6837 48.7345 16.4312C48.7345 16.1787 48.5403 15.8096 48.0547 15.8096C47.5691 15.8096 47.3942 16.0622 47.3942 16.4118C47.3942 16.7614 47.5108 16.878 47.6273 17.0139L47.9381 17.383L48.3266 17.1111Z" fill="white"/>
<path d="M58.3115 15.0723C59.1468 15.0723 59.6906 15.1694 60.1374 15.4802C60.8949 15.9852 60.9532 16.801 60.9532 17.1118C60.9532 18.1024 60.3511 18.8406 59.4187 19.0348L61.5748 21.9873H60.2928L58.3115 19.1514H58.1173V21.9873H57.0684V15.0723H58.2921H58.3115ZM58.1367 18.2384H58.4669C58.7583 18.2384 59.9431 18.1996 59.9431 17.1118C59.9431 16.0241 59.0302 16.0435 58.5058 16.0435H58.1367V18.2384Z" fill="white"/>
<path d="M67.4986 16.0628H64.7403V17.811H67.4209V18.8016H64.7403V20.9771H67.4986V21.9678H63.6914V15.0527H67.4986V16.0434V16.0628Z" fill="white"/>
<path d="M73.9869 20.3165H71.0344L70.2769 21.987H69.1309L72.5689 14.6641L75.8516 21.987H74.7056L73.9869 20.3165ZM73.5596 19.3259L72.5301 16.9755L71.4618 19.3259H73.5596Z" fill="white"/>
<path d="M78.8438 15.0723V20.9967H80.8834V21.9873H77.7949V15.0723H78.8438Z" fill="white"/>
<path d="M90.2251 16.0628H87.4669V17.811H90.1474V18.8016H87.4669V20.9771H90.2251V21.9678H86.418V15.0527H90.2251V16.0434V16.0628Z" fill="white"/>
<path d="M95.6453 16.606C95.5871 16.4506 95.4899 16.3147 95.3345 16.1787C95.1209 16.0039 94.8878 15.9262 94.5964 15.9262C93.9554 15.9262 93.6252 16.3147 93.6252 16.7614C93.6252 17.2082 93.7029 17.3247 94.3633 17.5967L95.0626 17.8686C96.3446 18.3931 96.6942 19.1118 96.6942 19.9081C96.6942 21.229 95.7619 22.1225 94.4605 22.1225C93.159 22.1225 93.1785 21.8311 92.8288 21.4232C92.4598 21.0153 92.2849 20.5491 92.2461 20.083L93.295 19.8499C93.295 20.1995 93.4115 20.5103 93.5864 20.724C93.7806 20.9765 94.072 21.1319 94.4799 21.1319C95.1209 21.1319 95.6259 20.6657 95.6259 19.9664C95.6259 19.2671 95.082 18.9758 94.6353 18.7815L93.9748 18.5096C93.4115 18.2765 92.5569 17.7909 92.5569 16.7614C92.5569 15.7319 93.2756 14.9355 94.577 14.9355C95.8784 14.9355 95.7425 15.2075 95.9561 15.4017C96.1504 15.5765 96.3446 15.8096 96.4806 16.101L95.6259 16.606H95.6453Z" fill="white"/>
<path d="M100.792 16.0629V21.9873H99.7432V16.0629H98.1504V15.0723H102.385V16.0629H100.792Z" fill="white"/>
<path d="M108.018 20.3165H105.066L104.308 21.987H103.162L106.6 14.6641L109.883 21.987H108.737L108.018 20.3165ZM107.591 19.3259L106.561 16.9755L105.493 19.3259H107.591Z" fill="white"/>
<path d="M113.321 16.0629V21.9873H112.272V16.0629H110.68V15.0723H114.914V16.0629H113.321Z" fill="white"/>
<path d="M120.721 16.0628H117.963V17.811H120.644V18.8016H117.963V20.9771H120.721V21.9678H116.914V15.0527H120.721V16.0434V16.0628Z" fill="white"/>
<path d="M49.6489 27.4456H46.8907V29.1938H49.5712V30.1844H46.8907V32.3599H49.6489V33.3506H45.8418V26.4355H49.6489V27.4262V27.4456Z" fill="white"/>
<path d="M53.5329 29.7552L51.6294 26.4531H52.8142L54.1545 28.8035L55.5336 26.4531H56.7185L54.7372 29.7552L56.8156 33.3681H55.6307L54.1157 30.7265L52.5423 33.3681H51.3574L53.5329 29.7552Z" fill="white"/>
<path d="M63.712 28.0668C62.9545 27.3675 62.2358 27.3092 61.8279 27.3092C60.3322 27.3092 59.3027 28.4164 59.3027 29.9315C59.3027 31.4466 60.3516 32.5149 61.8279 32.5149C63.3041 32.5149 63.3041 32.0876 63.6926 31.7185V32.9811C62.9933 33.389 62.2746 33.5055 61.789 33.5055C60.5264 33.5055 59.7495 32.9422 59.3416 32.5537C58.5257 31.7962 58.2344 30.9221 58.2344 29.9509C58.2344 28.9797 58.7588 27.7948 59.3416 27.2509C60.0603 26.5711 60.8761 26.3574 61.8473 26.3574C62.8185 26.3574 63.0904 26.474 63.6926 26.8625V28.1056L63.712 28.0668Z" fill="white"/>
<path d="M69.9087 27.4456H67.1505V29.1938H69.831V30.1844H67.1505V32.3599H69.9087V33.3506H66.1016V26.4355H69.9087V27.4262V27.4456Z" fill="white"/>
<path d="M73.4044 26.4355V32.3599H75.4439V33.3506H72.3555V26.4355H73.4044Z" fill="white"/>
<path d="M78.5509 26.4355V32.3599H80.5904V33.3506H77.502V26.4355H78.5509Z" fill="white"/>
<path d="M86.4575 27.4456H83.6993V29.1938H86.3798V30.1844H83.6993V32.3599H86.4575V33.3506H82.6504V26.4355H86.4575V27.4262V27.4456Z" fill="white"/>
<path d="M88.8848 33.35V25.9688L93.8962 31.2133V26.4349H94.9451V33.7773L89.9337 28.5327V33.3694H88.8848V33.35Z" fill="white"/>
<path d="M102.792 28.0668C102.035 27.3675 101.316 27.3092 100.908 27.3092C99.4123 27.3092 98.3828 28.4164 98.3828 29.9315C98.3828 31.4466 99.4317 32.5149 100.908 32.5149C102.384 32.5149 102.384 32.0876 102.773 31.7185V32.9811C102.073 33.389 101.355 33.5055 100.869 33.5055C99.6065 33.5055 98.8295 32.9422 98.4216 32.5537C97.6058 31.7962 97.3145 30.9221 97.3145 29.9509C97.3145 28.9797 97.8389 27.7948 98.4216 27.2509C99.1403 26.5711 99.9561 26.3574 100.927 26.3574C101.899 26.3574 102.171 26.474 102.773 26.8625V28.1056L102.792 28.0668Z" fill="white"/>
<path d="M108.989 27.4456H106.231V29.1938H108.911V30.1844H106.231V32.3599H108.989V33.3506H105.182V26.4355H108.989V27.4262V27.4456Z" fill="white"/>
<path d="M49.901 43.0626H46.9485L46.191 44.7331H45.0449L48.483 37.4102L51.7657 44.7331H50.6197L49.901 43.0626ZM49.4736 42.072L48.4442 39.7216L47.3758 42.072H49.4736Z" fill="white"/>
<path d="M53.6891 37.8165L55.515 42.4395L57.3797 37.4863L59.1862 42.4395L61.0703 37.8165H62.2163L59.1279 45.1783L57.3214 40.2834L55.4956 45.1783L52.5625 37.8165H53.7085H53.6891Z" fill="white"/>
<path d="M67.7135 43.0626H64.761L64.0034 44.7331H62.8574L66.2955 37.4102L69.5782 44.7331H68.4322L67.7135 43.0626ZM67.2861 42.072L66.2567 39.7216L65.1883 42.072H67.2861Z" fill="white"/>
<path d="M72.7431 37.8164C73.5784 37.8164 74.1223 37.9135 74.569 38.2243C75.3266 38.7293 75.3848 39.5452 75.3848 39.8559C75.3848 40.8466 74.7827 41.5847 73.8503 41.7789L76.0064 44.7314H74.7244L72.7431 41.8955H72.5489V44.7314H71.5V37.8164H72.7237H72.7431ZM72.5683 40.9826H72.8985C73.1899 40.9826 74.3748 40.9437 74.3748 39.8559C74.3748 38.7682 73.4618 38.7876 72.9374 38.7876H72.5683V40.9826Z" fill="white"/>
<path d="M79.5623 37.8163C80.5335 37.8163 81.3687 37.9134 82.1263 38.4961C82.9615 39.1371 83.4471 40.1278 83.4471 41.2738C83.4471 42.4198 82.9615 43.4105 82.068 44.0515C81.2522 44.6148 80.4946 44.7119 79.5429 44.7119H78.1055V37.7969H79.5623V37.8163ZM79.1738 43.7407H79.6206C80.145 43.7407 80.8443 43.7018 81.4464 43.2551C81.932 42.886 82.3982 42.2256 82.3982 41.2932C82.3982 40.3609 81.9709 39.6616 81.4659 39.312C80.8637 38.8846 80.1256 38.8264 79.6206 38.8264H79.1738V43.7407Z" fill="white"/>
<path d="M88.827 39.3521C88.7687 39.1967 88.6716 39.0608 88.5162 38.9248C88.3025 38.75 88.0694 38.6723 87.7781 38.6723C87.1371 38.6723 86.8069 39.0608 86.8069 39.5075C86.8069 39.9543 86.8846 40.0708 87.545 40.3428L88.2442 40.6147C89.5262 41.1392 89.8759 41.8578 89.8759 42.6542C89.8759 43.9751 88.9435 44.8686 87.6421 44.8686C86.3407 44.8686 86.3601 44.5772 86.0105 44.1693C85.6414 43.7614 85.4666 43.2952 85.4277 42.8291L86.4766 42.596C86.4766 42.9456 86.5932 43.2564 86.768 43.4701C86.9623 43.7226 87.2536 43.878 87.6615 43.878C88.3025 43.878 88.8076 43.4118 88.8076 42.7125C88.8076 42.0132 88.2637 41.7219 87.8169 41.5276L87.1565 41.2557C86.5932 41.0226 85.7385 40.537 85.7385 39.5075C85.7385 38.478 86.4572 37.6816 87.7586 37.6816C89.0601 37.6816 88.9241 37.9536 89.1378 38.1478C89.332 38.3226 89.5262 38.5557 89.6622 38.8471L88.8076 39.3521H88.827Z" fill="white"/>
<path d="M47.4327 51.8254H46.3838L46.209 52.3888C46.2672 52.3888 46.3061 52.3888 46.3644 52.3888C46.6557 52.3888 46.9471 52.4859 47.1413 52.6801C47.2967 52.8355 47.4715 53.1075 47.4715 53.5542C47.4715 54.001 47.355 54.2341 47.1219 54.4477C46.85 54.7197 46.5197 54.7974 46.1895 54.7974C45.8593 54.7974 45.7622 54.7779 45.5485 54.642C45.4903 54.6031 45.296 54.4866 45.1406 54.2535L45.5291 53.9233C45.5291 53.9427 45.6262 54.1175 45.7816 54.2146C45.8982 54.2923 46.0536 54.3312 46.2284 54.3312C46.5003 54.3312 46.6557 54.2341 46.7528 54.1369C46.85 54.0398 46.9665 53.8456 46.9665 53.5542C46.9665 53.2628 46.8694 53.1074 46.7723 53.0103C46.5974 52.8549 46.3838 52.8161 46.2284 52.8161C46.073 52.8161 45.9759 52.8355 45.8399 52.8938C45.7428 52.9326 45.6457 52.9715 45.5485 53.0492L46.0536 51.3398H47.4521V51.8254H47.4327Z" fill="white"/>
<path d="M49.3174 50.8146V52.7764H48.9678V50.8146H48.4434V50.4844H49.8419V50.8146H49.3174Z" fill="white"/>
<path d="M50.8711 51.3778H51.8618V50.4648H52.2114V52.7569H51.8618V51.708H50.8711V52.7569H50.5215V50.4648H50.8711V51.3778Z" fill="white"/>
<path d="M55.6484 51.3398C56.1146 51.3398 56.5225 51.3981 56.911 51.6701C57.3189 51.9808 57.552 52.4665 57.552 53.0298C57.552 53.5931 57.3189 54.0787 56.8721 54.3894C56.4836 54.6614 56.1146 54.7197 55.629 54.7197H54.9297V51.3398H55.6484ZM55.4541 54.2341H55.6872C55.9398 54.2341 56.2894 54.2146 56.5807 54.001C56.8138 53.8261 57.0469 53.4959 57.0469 53.0298C57.0469 52.5636 56.8333 52.2334 56.5807 52.0585C56.2894 51.8449 55.9203 51.8254 55.6678 51.8254H55.4347V54.2341H55.4541Z" fill="white"/>
<path d="M60.603 51.8254H59.2433V52.6801H60.5447V53.1657H59.2433V54.2341H60.603V54.7197H58.7383V51.3398H60.603V51.8254Z" fill="white"/>
<path d="M64.2938 52.1359C63.9248 51.7863 63.5751 51.7669 63.3809 51.7669C62.6428 51.7669 62.1377 52.3107 62.1377 53.0489C62.1377 53.787 62.6622 54.3114 63.3809 54.3114C64.0996 54.3114 64.0996 54.0978 64.2938 53.9229V54.5445C63.9442 54.7388 63.5946 54.797 63.3615 54.797C62.7399 54.797 62.3514 54.5251 62.1572 54.3309C61.7687 53.9618 61.6133 53.5345 61.6133 53.0489C61.6133 52.5632 61.8658 51.9999 62.1572 51.728C62.5068 51.3978 62.9147 51.2812 63.3809 51.2812C63.8471 51.2812 63.983 51.3395 64.2938 51.5338V52.1359Z" fill="white"/>
<path d="M67.3432 51.8254H65.9835V52.6801H67.285V53.1657H65.9835V54.2341H67.3432V54.7197H65.4785V51.3398H67.3432V51.8254Z" fill="white"/>
<path d="M68.4297 54.7183L69.1484 51.0859L70.3333 53.7082L71.5181 51.0859L72.1591 54.7183H71.6347L71.285 52.6787L70.2944 54.8737L69.3232 52.6787L68.9736 54.7183H68.4491H68.4297Z" fill="white"/>
<path d="M73.8877 51.3398C74.3151 51.3398 74.6064 51.3981 74.8201 51.6118C74.9949 51.7866 75.092 52.0003 75.092 52.2916C75.092 52.583 75.0726 52.5636 74.9949 52.6995C74.9172 52.8355 74.8201 52.8938 74.7424 52.9326C74.8007 52.9326 75.0143 53.0103 75.1697 53.1851C75.3445 53.3794 75.4028 53.6125 75.4028 53.8261C75.4028 54.0398 75.3445 54.2535 75.1697 54.4283C74.8978 54.7197 74.4705 54.7585 74.2179 54.7585H73.3633V51.3787H73.8683L73.8877 51.3398ZM73.8877 52.7967H74.0431C74.1791 52.7967 74.3345 52.7967 74.4705 52.6607C74.587 52.5441 74.6064 52.3888 74.6064 52.2722C74.6064 52.1557 74.6064 52.0391 74.4899 51.942C74.3733 51.8255 74.2179 51.806 74.082 51.806H73.9072V52.7772L73.8877 52.7967ZM73.8877 54.2341H74.1985C74.3539 54.2341 74.587 54.2146 74.7036 54.0981C74.8007 54.0204 74.8784 53.865 74.8784 53.729C74.8784 53.5931 74.8201 53.4571 74.7424 53.3794C74.6064 53.2434 74.3928 53.224 74.2179 53.224H73.8877V54.2341Z" fill="white"/>
<path d="M78.4331 51.8254H77.0734V52.6801H78.3748V53.1657H77.0734V54.2341H78.4331V54.7197H76.5684V51.3398H78.4331V51.8254Z" fill="white"/>
<path d="M80.2407 51.3398C80.6486 51.3398 80.9206 51.3981 81.1342 51.5341C81.5033 51.7866 81.5421 52.1751 81.5421 52.3305C81.5421 52.8161 81.2508 53.1657 80.7846 53.2823L81.8335 54.7391H81.2119L80.2407 53.36H80.1436V54.7391H79.6191V51.3593H80.2213L80.2407 51.3398ZM80.1436 52.8938H80.299C80.435 52.8938 81.0177 52.8938 81.0177 52.3499C81.0177 51.806 80.5709 51.8254 80.3184 51.8254H80.1436V52.8938Z" fill="white"/>
<path d="M86.6105 54.7194H84.3379L85.5033 53.3015C85.6199 53.1655 85.7947 52.9324 85.9112 52.777C86.0084 52.6411 86.0861 52.4857 86.0861 52.2914C86.0861 52.0001 85.8918 51.7475 85.5228 51.7475C85.1537 51.7475 84.94 52.0389 84.9206 52.3691H84.4156C84.4156 52.0389 84.571 51.767 84.7069 51.631C84.8235 51.495 85.076 51.3008 85.5033 51.3008C86.222 51.3008 86.5911 51.7864 86.5911 52.3303C86.5911 52.8741 86.494 52.8353 86.3386 53.049C86.222 53.2238 86.0666 53.418 85.853 53.6511L85.3285 54.2727H86.5911V54.7583L86.6105 54.7194Z" fill="white"/>
<path d="M88.2437 54.4281C87.8941 54.0202 87.8164 53.4957 87.8164 53.049C87.8164 52.6022 87.8941 52.0777 88.2437 51.6698C88.4574 51.4173 88.7099 51.3008 89.0013 51.3008C89.2926 51.3008 89.5452 51.4173 89.7588 51.6698C90.1085 52.0777 90.1862 52.6216 90.1862 53.049C90.1862 53.4763 90.1085 54.0202 89.7588 54.4281C89.5452 54.6806 89.2926 54.7971 89.0013 54.7971C88.7099 54.7971 88.4574 54.6806 88.2437 54.4281ZM88.5545 52.0195C88.3603 52.2914 88.3214 52.7382 88.3214 53.0295C88.3214 53.3209 88.3603 53.7677 88.5545 54.0396C88.7099 54.2727 88.8847 54.3115 89.0207 54.3115C89.1567 54.3115 89.3315 54.2533 89.4869 54.0396C89.6811 53.7482 89.72 53.3209 89.72 53.0295C89.72 52.7382 89.6811 52.2914 89.4869 52.0195C89.3315 51.7864 89.1567 51.7475 89.0207 51.7475C88.8847 51.7475 88.7099 51.8058 88.5545 52.0195Z" fill="white"/>
<path d="M91.8171 51.8254H91.2344L91.5257 51.3398H92.3416V54.7197H91.8171V51.806V51.8254Z" fill="white"/>
<path d="M95.1977 51.8254H93.5272V51.3398H96.0524L93.9157 54.8362L93.5078 54.5837L95.1977 51.806V51.8254Z" fill="white"/>
<path d="M99.3926 50.9121H99.8782V55.9818H99.3926V50.9121Z" fill="white"/>
<path d="M104.248 51.3398C104.714 51.3398 105.122 51.3981 105.511 51.6701C105.918 51.9808 106.152 52.4665 106.152 53.0298C106.152 53.5931 105.918 54.0787 105.472 54.3894C105.083 54.6614 104.714 54.7197 104.229 54.7197H103.529V51.3398H104.248ZM104.054 54.2341H104.287C104.539 54.2341 104.889 54.2146 105.18 54.001C105.413 53.8261 105.647 53.4959 105.647 53.0298C105.647 52.5636 105.433 52.2334 105.18 52.0585C104.889 51.8449 104.52 51.8254 104.267 51.8254H104.034V54.2341H104.054Z" fill="white"/>
<path d="M107.843 51.3398V53.3794C107.843 53.5542 107.843 53.7873 107.94 53.9621C108.037 54.1369 108.27 54.3118 108.562 54.3118C108.853 54.3118 109.086 54.1369 109.183 53.9621C109.28 53.7873 109.28 53.5542 109.28 53.3794V51.3398H109.805V53.5154C109.805 53.7873 109.746 54.1175 109.494 54.3894C109.319 54.5837 109.008 54.7779 108.562 54.7779C108.115 54.7779 107.804 54.5837 107.629 54.3894C107.377 54.0981 107.318 53.7873 107.318 53.5154V51.3398H107.843Z" fill="white"/>
<path d="M111.689 51.3398C112.116 51.3398 112.407 51.3981 112.621 51.6118C112.796 51.7866 112.893 52.0003 112.893 52.2916C112.893 52.583 112.873 52.5636 112.796 52.6995C112.718 52.8355 112.621 52.8938 112.543 52.9326C112.601 52.9326 112.815 53.0103 112.971 53.1851C113.145 53.3794 113.204 53.6125 113.204 53.8261C113.204 54.0398 113.145 54.2535 112.971 54.4283C112.699 54.7197 112.271 54.7585 112.019 54.7585H111.164V51.3787H111.669L111.689 51.3398ZM111.689 52.7967H111.844C111.98 52.7967 112.135 52.7967 112.271 52.6607C112.388 52.5441 112.407 52.3888 112.407 52.2722C112.407 52.1557 112.407 52.0391 112.291 51.942C112.174 51.8255 112.019 51.806 111.883 51.806H111.708V52.7772L111.689 52.7967ZM111.689 54.2341H111.999C112.155 54.2341 112.388 54.2146 112.504 54.0981C112.601 54.0204 112.679 53.865 112.679 53.729C112.679 53.5931 112.621 53.4571 112.543 53.3794C112.407 53.2434 112.194 53.224 112.019 53.224H111.689V54.2341Z" fill="white"/>
<path d="M116.35 53.9027H114.893L114.524 54.7185H113.961L115.651 51.125L117.263 54.7185H116.7L116.35 53.9027ZM116.156 53.4171L115.651 52.271L115.126 53.4171H116.156Z" fill="white"/>
<path d="M118.739 51.3398V54.7197H118.215V51.3398H118.739Z" fill="white"/>
<path d="M120.274 54.1738C120.449 54.1738 120.584 54.3098 120.584 54.4846C120.584 54.6594 120.449 54.7954 120.274 54.7954C120.099 54.7954 119.963 54.6594 119.963 54.4846C119.963 54.3098 120.099 54.1738 120.274 54.1738Z" fill="white"/>
<path d="M124.042 51.3398V53.3794C124.042 53.5542 124.042 53.7873 124.139 53.9621C124.236 54.1369 124.469 54.3118 124.761 54.3118C125.052 54.3118 125.285 54.1369 125.382 53.9621C125.479 53.7873 125.479 53.5542 125.479 53.3794V51.3398H126.004V53.5154C126.004 53.7873 125.946 54.1175 125.693 54.3894C125.518 54.5837 125.207 54.7779 124.761 54.7779C124.314 54.7779 124.003 54.5837 123.828 54.3894C123.576 54.0981 123.518 53.7873 123.518 53.5154V51.3398H124.042Z" fill="white"/>
<path d="M127.576 54.1738C127.751 54.1738 127.887 54.3098 127.887 54.4846C127.887 54.6594 127.751 54.7954 127.576 54.7954C127.402 54.7954 127.266 54.6594 127.266 54.4846C127.266 54.3098 127.402 54.1738 127.576 54.1738Z" fill="white"/>
<path d="M131.092 53.9027H129.635L129.266 54.7185H128.703L130.393 51.125L132.005 54.7185H131.442L131.092 53.9027ZM130.898 53.4171L130.393 52.271L129.869 53.4171H130.898Z" fill="white"/>
<path d="M133.268 54.1738C133.443 54.1738 133.579 54.3098 133.579 54.4846C133.579 54.6594 133.443 54.7954 133.268 54.7954C133.093 54.7954 132.957 54.6594 132.957 54.4846C132.957 54.3098 133.093 54.1738 133.268 54.1738Z" fill="white"/>
<path d="M136.687 51.8254H135.327V52.6801H136.629V53.1657H135.327V54.2341H136.687V54.7197H134.822V51.3398H136.687V51.8254Z" fill="white"/>
</g>
<defs>
<clipPath id="clip0_10754_25866">
<rect width="136.688" height="56" fill="white"/>
</clipPath>
</defs>
</svg>