<?xml version="1.0" encoding="utf-8"?>
<svg xmlns="http://www.w3.org/2000/svg" width="49" height="91" viewBox="0 0 49 91" fill="none">
<g clip-path="url(#clip0_10754_26129)">
<path d="M0.853516 0.150391V63.5378C12.7095 68.2296 25.6361 70.8188 39.1663 70.8188C52.6965 70.8188 45.5323 70.6825 48.6472 70.3905V0.150391H0.853516Z" fill="white"/>
<path d="M19.0569 25.1858C26.6494 25.1858 33.3074 27.3272 36.9673 29.6439V4.25781H12.5352V26.1592C12.5352 26.1592 16.7792 25.1858 19.0569 25.1858Z" fill="url(#paint0_linear_10754_26129)"/>
<path d="M24.5078 33.4602H33.7551L24.5078 12.2402V33.4602Z" fill="url(#paint1_linear_10754_26129)"/>
<path d="M24.5089 33.4602H15.2422L24.5089 12.2402V33.4602Z" fill="white"/>
<path d="M15.2195 48.3125H15.7841L17.361 51.953H16.6212L16.2903 51.1159H14.7134L14.3824 51.953H13.6621L15.239 48.3125H15.2195ZM16.0372 50.5708L15.4726 49.0912L14.9081 50.5708H16.0372Z" fill="#010101"/>
<path d="M17.283 48.3125H17.9839L18.6847 50.9796L19.4829 48.3125H20.1448L20.9235 50.9796L21.6438 48.3125H22.3252L21.2545 51.953H20.6315L19.7749 49.2275L18.9183 51.953H18.2953L17.2246 48.3125H17.283Z" fill="#010101"/>
<path d="M23.9012 48.3125H24.4657L26.0426 51.953H25.3029L24.9719 51.1159H23.395L23.0641 51.953H22.3438L23.9206 48.3125H23.9012ZM24.7188 50.5708L24.1543 49.0912L23.5897 50.5708H24.7188Z" fill="#010101"/>
<path d="M26.3945 48.3125H27.6599C27.8352 48.3125 27.9909 48.3125 28.1661 48.3709C28.3219 48.4098 28.4776 48.4682 28.5944 48.5461C28.7112 48.624 28.828 48.7408 28.8864 48.8771C28.9643 49.0133 29.0032 49.1691 29.0032 49.3638C29.0032 49.5584 28.9254 49.8505 28.7696 50.0062C28.6139 50.1814 28.4192 50.2788 28.1661 50.3372L29.1395 51.953H28.3608L27.5237 50.415H27.0564V51.953H26.414V48.3125H26.3945ZM27.5626 49.8699C27.6599 49.8699 27.7573 49.8699 27.8352 49.8505C27.913 49.831 28.0104 49.8115 28.0882 49.7726C28.1661 49.7337 28.2245 49.6753 28.2634 49.6169C28.3024 49.539 28.3413 49.4611 28.3413 49.3443C28.3413 49.2275 28.3219 49.1691 28.2829 49.0912C28.244 49.0328 28.1856 48.9744 28.1077 48.9355C28.0298 48.8965 27.952 48.8771 27.8741 48.8576C27.7962 48.8576 27.6989 48.8381 27.621 48.8381H27.037V49.8699H27.5626Z" fill="#010101"/>
<path d="M29.625 48.3125H30.9099C31.1435 48.3125 31.3771 48.3514 31.6302 48.4098C31.8638 48.4682 32.078 48.5656 32.2726 48.7213C32.4673 48.8576 32.6231 49.0523 32.7399 49.2859C32.8567 49.5195 32.9151 49.8115 32.9151 50.1425C32.9151 50.4734 32.8567 50.7265 32.7399 50.9601C32.6231 51.1937 32.4673 51.3884 32.2726 51.5247C32.078 51.6804 31.8638 51.7778 31.6302 51.8557C31.3966 51.9335 31.1435 51.953 30.9099 51.953H29.625V48.3125ZM30.8125 51.3884C30.9877 51.3884 31.1435 51.369 31.3187 51.33C31.4939 51.2911 31.6302 51.2327 31.7665 51.1353C31.9027 51.038 32.0195 50.9212 32.0974 50.746C32.1753 50.5708 32.2337 50.3761 32.2337 50.1425C32.2337 49.9089 32.1948 49.6753 32.0974 49.5C32.0195 49.3443 31.9027 49.208 31.7665 49.1107C31.6302 49.0133 31.4744 48.9549 31.3187 48.916C31.1435 48.8771 30.9877 48.8576 30.8125 48.8576H30.2674V51.3884H30.8125Z" fill="#010101"/>
<path d="M35.407 49.0715C35.3292 48.9742 35.2318 48.9158 35.115 48.8379C34.9982 48.7795 34.8619 48.7405 34.7451 48.7405C34.6283 48.7405 34.5894 48.7405 34.5115 48.76C34.4336 48.76 34.3752 48.7989 34.2974 48.8379C34.239 48.8768 34.1806 48.9352 34.1416 48.9936C34.1027 49.052 34.0832 49.1299 34.0832 49.2272C34.0832 49.3246 34.0832 49.383 34.1416 49.4414C34.1806 49.4998 34.2195 49.5582 34.2779 49.5971C34.3363 49.6361 34.4142 49.675 34.492 49.7139C34.5699 49.7529 34.6673 49.7723 34.7841 49.8113C34.9009 49.8502 35.0177 49.8891 35.1539 49.9475C35.2708 49.9865 35.3876 50.0644 35.5044 50.1422C35.6017 50.2201 35.699 50.3174 35.7575 50.4342C35.8159 50.5511 35.8548 50.7068 35.8548 50.882C35.8548 51.0572 35.8159 51.2519 35.738 51.3882C35.6601 51.5244 35.5628 51.6607 35.446 51.7581C35.3292 51.8554 35.1929 51.9333 35.0177 51.9722C34.8619 52.0111 34.6867 52.0501 34.5115 52.0501C34.3363 52.0501 34.0443 52.0111 33.8107 51.9138C33.577 51.8359 33.4018 51.6997 33.2461 51.5244L33.7133 51.0962C33.8107 51.213 33.9275 51.3103 34.0637 51.3882C34.2195 51.466 34.3558 51.505 34.5115 51.505C34.6672 51.505 34.6673 51.505 34.7451 51.4855C34.823 51.4855 34.9009 51.4271 34.9593 51.3882C35.0177 51.3492 35.0761 51.2908 35.115 51.213C35.1539 51.1351 35.1734 51.0572 35.1734 50.9599C35.1734 50.8625 35.1539 50.7847 35.115 50.7263C35.0761 50.6679 35.0177 50.6095 34.9398 50.5705C34.8619 50.5316 34.7841 50.4926 34.6672 50.4537C34.5699 50.4148 34.4531 50.3758 34.3363 50.3369C34.2195 50.298 34.1222 50.259 34.0053 50.2201C33.8885 50.1812 33.7912 50.1033 33.7133 50.0254C33.6355 49.9476 33.5576 49.8502 33.4992 49.7334C33.4408 49.6166 33.4213 49.4803 33.4213 49.3051C33.4213 49.1299 33.4602 48.9547 33.5381 48.8184C33.616 48.6821 33.7133 48.5653 33.8496 48.4875C33.9859 48.4096 34.1221 48.3317 34.2779 48.2928C34.4336 48.2538 34.6088 48.2344 34.7646 48.2344C34.9203 48.2344 35.1345 48.2733 35.3292 48.3317C35.5238 48.3901 35.6796 48.4875 35.8353 48.6237L35.407 49.091V49.0715Z" fill="#010101"/>
<path d="M8.07709 40.9169C7.92135 40.7027 7.72667 40.547 7.47359 40.4496C7.22051 40.3523 6.98689 40.3134 6.75328 40.3134C6.51966 40.3134 6.16924 40.3718 5.91616 40.4886C5.66308 40.6054 5.44893 40.7417 5.27372 40.9363C5.09851 41.131 4.96223 41.3646 4.86489 41.6177C4.76756 41.8708 4.72862 42.1628 4.72862 42.4548C4.72862 42.7469 4.76756 43.0778 4.86489 43.3309C4.96223 43.6034 5.09851 43.8176 5.27372 44.0123C5.44893 44.2069 5.66308 44.3432 5.89669 44.46C6.13031 44.5574 6.42233 44.6158 6.71434 44.6158C7.00636 44.6158 7.31785 44.5574 7.55146 44.4211C7.78508 44.3043 7.99922 44.1291 8.1355 43.9344L8.97262 44.5184C8.71953 44.8494 8.38858 45.1025 8.01869 45.2777C7.6488 45.4529 7.20104 45.5502 6.69488 45.5502C6.18871 45.5502 5.81882 45.4724 5.42946 45.3166C5.04011 45.1609 4.70915 44.9467 4.4366 44.6742C4.16405 44.4016 3.9499 44.0707 3.79416 43.7008C3.63842 43.3309 3.56055 42.9026 3.56055 42.4548C3.56055 42.0071 3.63842 41.5593 3.81363 41.1894C3.96937 40.8195 4.20299 40.4886 4.47554 40.216C4.76756 39.9435 5.09851 39.7488 5.48787 39.5931C5.87722 39.4568 6.28605 39.3789 6.75328 39.3789C7.22051 39.3789 7.14264 39.3789 7.33732 39.4373C7.53199 39.4762 7.74614 39.5346 7.92135 39.6125C8.11603 39.6904 8.29124 39.7877 8.44698 39.8851C8.6222 40.0019 8.75847 40.1187 8.87528 40.2744L8.07709 40.8974V40.9169Z" fill="#010101" stroke="#010101" stroke-width="0.194679"/>
<path d="M9.36133 39.5547H10.4126V45.4145H9.36133V39.5547Z" fill="#010101" stroke="#010101" stroke-width="0.194679"/>
<path d="M12.8848 40.4501H11.0938V39.5352H14.8511L15.3572 40.4501H13.9361V45.4145H12.8848V40.4501Z" fill="#010101" stroke="#010101" stroke-width="0.194679"/>
<path d="M17.5967 43.1172L15.5137 39.5352H16.7986L18.1418 42.1244L19.5046 39.5352H20.7116L18.6285 43.1172V45.4145H17.5773V43.1172H17.5967Z" fill="#010101" stroke="#010101" stroke-width="0.194679"/>
<path d="M24.061 40.7806C23.9442 40.6443 23.7885 40.508 23.5938 40.4107C23.3991 40.3134 23.185 40.2744 22.9903 40.2744C22.7956 40.2744 22.7567 40.2744 22.6204 40.3134C22.5036 40.3523 22.3868 40.3912 22.2895 40.4496C22.1921 40.508 22.1143 40.6054 22.0364 40.7027C21.978 40.8001 21.9391 40.9363 21.9391 41.0726C21.9391 41.2089 21.9585 41.3257 22.0169 41.4036C22.0753 41.5009 22.1532 41.5788 22.2505 41.6372C22.3479 41.6956 22.4647 41.754 22.601 41.8124C22.7372 41.8708 22.893 41.9097 23.0487 41.9681C23.2434 42.0265 23.4381 42.1044 23.6328 42.1823C23.8274 42.2602 24.0221 42.3575 24.1973 42.4938C24.3725 42.63 24.5088 42.7858 24.6061 42.9805C24.723 43.1751 24.7619 43.4088 24.7619 43.7008C24.7619 43.9928 24.7035 44.2848 24.5867 44.5184C24.4699 44.752 24.3141 44.9467 24.1195 45.1025C23.9248 45.2582 23.6912 45.375 23.4381 45.4529C23.185 45.5308 22.9124 45.5697 22.6204 45.5697C22.3284 45.5697 21.8612 45.4918 21.5108 45.3555C21.1409 45.2193 20.8488 45.0051 20.6152 44.7326L21.355 44.0317C21.4913 44.2264 21.686 44.3822 21.9391 44.499C22.1727 44.6158 22.4063 44.6742 22.6399 44.6742C22.8735 44.6742 22.893 44.6742 23.0098 44.6352C23.1461 44.5963 23.2434 44.5574 23.3602 44.4795C23.4575 44.4016 23.5549 44.3237 23.6133 44.2069C23.6717 44.0901 23.7106 43.9733 23.7106 43.7981C23.7106 43.6229 23.6717 43.5061 23.5938 43.4088C23.5159 43.3114 23.4186 43.2141 23.3018 43.1362C23.185 43.0583 23.0293 42.9999 22.8735 42.9415C22.6983 42.8831 22.5426 42.8247 22.3479 42.7663C22.1727 42.7079 21.9975 42.6495 21.8222 42.5716C21.647 42.4938 21.4913 42.3964 21.355 42.2602C21.2187 42.1239 21.1019 41.9681 21.0046 41.7929C20.9073 41.5982 20.8683 41.3841 20.8683 41.0921C20.8683 40.8001 20.9267 40.5275 21.063 40.3134C21.1798 40.0992 21.355 39.924 21.5497 39.7877C21.7444 39.6515 21.978 39.5346 22.2311 39.4762C22.4842 39.3984 22.7567 39.3789 23.0098 39.3789C23.2629 39.3789 23.6133 39.4373 23.9248 39.5346C24.2363 39.632 24.4893 39.7877 24.723 40.0019L24.0416 40.7417L24.061 40.7806Z" fill="#010101" stroke="#010101" stroke-width="0.194679"/>
<path d="M29.8232 40.9169C29.6674 40.7027 29.4728 40.547 29.2197 40.4496C28.9666 40.3523 28.733 40.3134 28.4994 40.3134C28.2658 40.3134 27.9153 40.3718 27.6623 40.4886C27.4092 40.6054 27.195 40.7417 27.0198 40.9363C26.8446 41.131 26.7083 41.3646 26.611 41.6177C26.5136 41.8708 26.4747 42.1628 26.4747 42.4548C26.4747 42.7469 26.5136 43.0778 26.611 43.3309C26.7083 43.6034 26.8446 43.8176 27.0198 44.0123C27.195 44.2069 27.4092 44.3432 27.6428 44.46C27.8764 44.5574 28.1684 44.6158 28.4604 44.6158C28.7525 44.6158 29.0639 44.5574 29.2976 44.4211C29.5312 44.3043 29.7453 44.1291 29.8816 43.9344L30.7187 44.5184C30.4656 44.8494 30.1347 45.1025 29.7648 45.2777C29.3949 45.4529 28.9471 45.5502 28.441 45.5502C27.9348 45.5502 27.5649 45.4724 27.1756 45.3166C26.7862 45.1609 26.4552 44.9467 26.1827 44.6742C25.9101 44.4016 25.696 44.0707 25.5403 43.7008C25.3845 43.3309 25.3066 42.9026 25.3066 42.4548C25.3066 42.0071 25.3845 41.5593 25.5597 41.1894C25.7155 40.8195 25.9491 40.4886 26.2216 40.216C26.5136 39.9435 26.8446 39.7488 27.234 39.5931C27.6233 39.4568 28.0321 39.3789 28.4994 39.3789C28.9666 39.3789 28.8887 39.3789 29.0834 39.4373C29.2781 39.4762 29.4922 39.5346 29.6674 39.6125C29.8621 39.6904 30.0373 39.7877 30.1931 39.8851C30.3683 40.0019 30.5046 40.1187 30.6214 40.2744L29.8232 40.8974V40.9169Z" fill="#010101" stroke="#010101" stroke-width="0.194679"/>
<path d="M33.1912 39.5547H34.0672L36.5202 45.4145H35.3521L34.8265 44.0712H32.3541L31.8479 45.4145H30.7188L33.1912 39.5547ZM34.4761 43.1757L33.6 40.7812L32.7045 43.1757H34.4761Z" fill="#010101" stroke="#010101" stroke-width="0.194679"/>
<path d="M37.1035 39.5547H39.0114C39.3423 39.5547 39.6538 39.5936 39.9264 39.652C40.1989 39.7104 40.4325 39.8078 40.6272 39.944C40.8219 40.0803 40.9776 40.2555 41.075 40.4697C41.1723 40.6838 41.2307 41.0732 41.2307 41.3847C41.2307 41.6962 41.1723 42.105 41.0555 42.3386C40.9387 42.5527 40.7635 42.7474 40.5688 42.8642C40.3547 43.0005 40.121 43.0978 39.8485 43.1562C39.5759 43.2146 39.2839 43.2536 38.9724 43.2536H38.1742V45.434H37.123V39.5742L37.1035 39.5547ZM38.8751 42.3581C39.0503 42.3581 39.206 42.3581 39.3618 42.3191C39.5175 42.2997 39.6538 42.2413 39.7706 42.1829C39.8874 42.1244 39.9848 42.0271 40.0626 41.9298C40.1405 41.813 40.1794 41.5404 40.1794 41.3652C40.1794 41.19 40.1405 40.9174 40.0626 40.8201C39.9848 40.7033 39.8874 40.6254 39.7706 40.567C39.6538 40.5086 39.5175 40.4697 39.3618 40.4502C39.206 40.4502 39.0503 40.4307 38.8946 40.4307H38.1353V42.3775H38.8556L38.8751 42.3581Z" fill="#010101" stroke="#010101" stroke-width="0.194679"/>
<path d="M42.166 39.5547H45.787V40.4697H43.1977V41.9687H45.6312V42.8448H43.1977V44.4995H45.9233V45.434H42.1465V39.5742L42.166 39.5547Z" fill="#010101" stroke="#010101" stroke-width="0.194679"/>
<path d="M0.853516 63.5371V90.1497H48.6472V70.3898C45.5323 70.6623 42.359 70.8181 39.1663 70.8181C25.6361 70.8181 12.7095 68.2289 0.853516 63.5371Z" fill="#010101"/>
<path d="M4.90234 57.6191H6.73232V58.0474H5.38904V58.7482H6.65445V59.157H5.38904V59.9358H6.79073V60.364H4.90234V57.5996V57.6191Z" fill="#010101"/>
<path d="M7.27734 57.6191H8.03659L8.7569 59.5854L9.45775 57.6191H10.2365V60.3836H9.74976V58.1642L8.91265 60.3836H8.56222L7.74457 58.1642V60.3836H7.27734V57.6191Z" fill="#010101"/>
<path d="M10.8594 57.6191H12.6894V58.0474H11.3461V58.7482H12.6115V59.157H11.3461V59.9358H12.7478V60.364H10.8594V57.5996V57.6191Z" fill="#010101"/>
<path d="M13.2344 57.6191H14.1883C14.3246 57.6191 14.4414 57.6191 14.5582 57.6581C14.675 57.6775 14.7918 57.7359 14.8891 57.7944C14.9865 57.8528 15.0644 57.9306 15.1228 58.0474C15.1812 58.1448 15.2006 58.281 15.2006 58.4173C15.2006 58.5536 15.1422 58.7872 15.0254 58.904C14.9086 59.0208 14.7529 59.1182 14.5582 59.1571L15.298 60.3836H14.7139L14.0715 59.2155H13.7211V60.3836H13.2344V57.6191ZM14.1299 58.8067C14.2078 58.8067 14.2662 58.8067 14.344 58.8067C14.4219 58.8067 14.4803 58.7677 14.5387 58.7483C14.5971 58.7288 14.6361 58.6704 14.675 58.6315C14.7139 58.5731 14.7334 58.5147 14.7334 58.4368C14.7334 58.3589 14.7334 58.3005 14.675 58.2421C14.6361 58.2032 14.5971 58.1642 14.5387 58.1253C14.4803 58.1058 14.4219 58.0864 14.3635 58.0669C14.3051 58.0669 14.2272 58.0669 14.1688 58.0669H13.7211V58.8456H14.1299V58.8067Z" fill="#010101"/>
<path d="M18.1011 60.2276C17.9648 60.286 17.8091 60.3444 17.6338 60.3833C17.4586 60.4223 17.2834 60.4417 17.0498 60.4417C16.8162 60.4417 16.6215 60.4028 16.4463 60.3249C16.2711 60.2471 16.0959 60.1497 15.9791 60.0329C15.8428 59.8966 15.7455 59.7604 15.6676 59.5657C15.5897 59.3905 15.5508 59.1958 15.5508 58.9816C15.5508 58.7675 15.5897 58.5533 15.6676 58.3781C15.7455 58.2029 15.8428 58.0472 15.9791 57.9304C16.1153 57.8136 16.2711 57.7162 16.4463 57.6384C16.6215 57.58 16.8162 57.541 17.0303 57.541C17.2445 57.541 17.4586 57.58 17.6338 57.6384C17.8091 57.6968 17.9648 57.7941 18.0816 57.8914L17.7507 58.2613C17.6728 58.1835 17.5754 58.1251 17.4586 58.0667C17.3418 58.0082 17.1861 57.9888 17.0498 57.9888C16.9135 57.9888 16.7773 58.0082 16.6604 58.0667C16.5436 58.1251 16.4463 58.1835 16.3684 58.2808C16.2906 58.3781 16.2127 58.4755 16.1738 58.5923C16.1348 58.7091 16.1154 58.8454 16.1154 58.9816C16.1154 59.1179 16.1348 59.2737 16.1738 59.3905C16.2127 59.5073 16.2906 59.6241 16.3684 59.7214C16.4463 59.8188 16.5631 59.8772 16.6799 59.9356C16.7967 59.994 16.933 60.0134 17.0887 60.0134C17.2445 60.0134 17.4781 59.9745 17.6338 59.9161V59.2153H17.0498V58.8064H18.1011V60.2276Z" fill="#010101"/>
<path d="M18.6855 57.6191H19.1722V60.3836H18.6855V57.6191Z" fill="#010101"/>
<path d="M19.7949 57.6191H20.4374L21.7222 59.6827V57.6191H22.2089V60.3836H21.586L20.2816 58.2616V60.3836H19.7949V57.6191Z" fill="#010101"/>
<path d="M25.2456 60.2276C25.1093 60.286 24.9536 60.3444 24.7784 60.3833C24.6032 60.4223 24.428 60.4417 24.1943 60.4417C23.9607 60.4417 23.766 60.4028 23.5908 60.3249C23.4156 60.2471 23.2404 60.1497 23.1236 60.0329C22.9873 59.8966 22.89 59.7604 22.8121 59.5657C22.7342 59.3905 22.6953 59.1958 22.6953 58.9816C22.6953 58.7675 22.7342 58.5533 22.8121 58.3781C22.89 58.2029 22.9873 58.0472 23.1236 57.9304C23.2599 57.8136 23.4156 57.7162 23.5908 57.6384C23.766 57.58 23.9607 57.541 24.1749 57.541C24.389 57.541 24.6032 57.58 24.7784 57.6384C24.9536 57.6968 25.1093 57.7941 25.2261 57.8914L24.8952 58.2613C24.8173 58.1835 24.72 58.1251 24.6032 58.0667C24.4864 58.0082 24.3306 57.9888 24.1943 57.9888C24.0581 57.9888 23.9218 58.0082 23.805 58.0667C23.6882 58.1251 23.5908 58.1835 23.513 58.2808C23.4351 58.3781 23.3572 58.4755 23.3183 58.5923C23.2793 58.7091 23.2599 58.8454 23.2599 58.9816C23.2599 59.1179 23.2793 59.2737 23.3183 59.3905C23.3572 59.5073 23.4351 59.6241 23.513 59.7214C23.5908 59.8188 23.7076 59.8772 23.8245 59.9356C23.9413 59.994 24.0775 60.0134 24.2333 60.0134C24.389 60.0134 24.6226 59.9745 24.7784 59.9161V59.2153H24.1943V58.8064H25.2456V60.2276Z" fill="#010101"/>
<path d="M26.8027 57.6191H27.562L28.2823 59.5854L28.9831 57.6191H29.7619V60.3836H29.2752V58.1642L28.438 60.3836H28.0876L27.27 58.1642V60.3836H26.8027V57.6191Z" fill="#010101"/>
<path d="M31.2618 57.6191H31.6901L32.8776 60.3836H32.313L32.0599 59.7606H30.8724L30.6193 60.3836H30.0742L31.2812 57.6191H31.2618ZM31.8847 59.3128L31.4564 58.1837L31.0281 59.3128H31.8847Z" fill="#010101"/>
<path d="M33.1309 57.6191H34.0848C34.2211 57.6191 34.3379 57.6191 34.4547 57.6581C34.5715 57.6775 34.6883 57.7359 34.7856 57.7944C34.883 57.8528 34.9608 57.9306 35.0192 58.0474C35.0776 58.1448 35.0971 58.281 35.0971 58.4173C35.0971 58.5536 35.0387 58.7872 34.9219 58.904C34.8051 59.0208 34.6494 59.1182 34.4547 59.1571L35.1945 60.3836H34.6104L33.968 59.2155H33.6176V60.3836H33.1309V57.6191ZM34.0264 58.8067C34.1043 58.8067 34.1627 58.8067 34.2405 58.8067C34.3184 58.8067 34.3768 58.7677 34.4352 58.7483C34.4936 58.7288 34.5325 58.6704 34.5715 58.6315C34.6104 58.5731 34.6299 58.5147 34.6299 58.4368C34.6299 58.3589 34.6299 58.3005 34.5715 58.2421C34.5325 58.2032 34.4936 58.1642 34.4352 58.1253C34.3768 58.1058 34.3184 58.0864 34.26 58.0669C34.2016 58.0669 34.1237 58.0669 34.0653 58.0669H33.6176V58.8456H34.0264V58.8067Z" fill="#010101"/>
<path d="M35.584 57.6191H36.0707V58.8066L37.2193 57.6191H37.8812L36.5963 58.8845L37.9785 60.364H37.2972L36.0902 58.9818V60.364H35.6035V57.5996L35.584 57.6191Z" fill="#010101"/>
<path d="M38.2695 57.6191H40.0995V58.0474H38.7562V58.7482H40.0216V59.157H38.7562V59.9358H40.1579V60.364H38.2695V57.5996V57.6191Z" fill="#010101"/>
<path d="M41.2102 58.0474H40.373V57.6191H42.5534V58.0474H41.7163V60.3836H41.2296V58.0474H41.2102Z" fill="#010101"/>
<path d="M44.2662 58.1833C44.2078 58.1249 44.1494 58.0665 44.0521 58.0081C43.9547 57.9692 43.8574 57.9497 43.7601 57.9497C43.6627 57.9497 43.6433 57.9497 43.5848 57.9692C43.5264 57.9886 43.468 58.0081 43.4291 58.0276C43.3902 58.0471 43.3512 58.1055 43.3123 58.1444C43.2734 58.1833 43.2734 58.2417 43.2734 58.3196C43.2734 58.3975 43.2734 58.4364 43.3123 58.4753C43.3318 58.5143 43.3707 58.5532 43.4096 58.5922C43.4486 58.6311 43.507 58.6506 43.5848 58.67C43.6433 58.6895 43.7211 58.709 43.799 58.7479C43.8963 58.7674 43.9742 58.8063 44.0715 58.8452C44.1689 58.8842 44.2468 58.9231 44.3246 58.9815C44.4025 59.0399 44.4609 59.1178 44.5193 59.2151C44.5777 59.3125 44.5972 59.4098 44.5972 59.5461C44.5972 59.6824 44.5777 59.8186 44.5193 59.9354C44.4609 60.0522 44.383 60.1301 44.3052 60.208C44.2078 60.2859 44.1105 60.3443 43.9937 60.3637C43.8769 60.3832 43.7406 60.4221 43.6043 60.4221C43.468 60.4221 43.2539 60.3832 43.0787 60.3248C42.9035 60.2664 42.7672 60.1691 42.6504 60.0328L43.0008 59.7018C43.0592 59.7992 43.1566 59.877 43.2734 59.916C43.3902 59.9744 43.4875 59.9938 43.6043 59.9938C43.7211 59.9938 43.7211 59.9938 43.7795 59.9744C43.8379 59.9549 43.8963 59.9354 43.9353 59.8965C43.9742 59.8576 44.0131 59.8186 44.0521 59.7602C44.091 59.7018 44.091 59.6434 44.091 59.5655C44.091 59.4877 44.091 59.4293 44.0326 59.3903C43.9937 59.3514 43.9547 59.293 43.8963 59.2735C43.8379 59.2346 43.7795 59.2151 43.7017 59.1762C43.6238 59.1567 43.5459 59.1178 43.4486 59.0983C43.3707 59.0788 43.2734 59.0399 43.1955 59.001C43.1176 58.962 43.0397 58.9231 42.9619 58.8647C42.9035 58.8063 42.8451 58.7284 42.8061 58.6506C42.7672 58.5727 42.7477 58.4559 42.7477 58.3196C42.7477 58.1833 42.7672 58.0665 42.8451 57.9497C42.9035 57.8524 42.9813 57.755 43.0787 57.6966C43.176 57.6382 43.2734 57.5798 43.4096 57.5409C43.5264 57.5019 43.6433 57.502 43.7795 57.502C43.9158 57.502 44.0715 57.5214 44.2078 57.5798C44.3441 57.6382 44.4804 57.6966 44.5777 57.794L44.2662 58.1444V58.1833Z" fill="#010101"/>
<path d="M21.937 79.2672H19.9902V78.9363L21.2362 77.6708C21.2751 77.6319 21.3335 77.5735 21.3725 77.5151C21.4114 77.4567 21.4503 77.3983 21.4893 77.3399C21.5282 77.2815 21.5477 77.2231 21.5671 77.1647C21.5866 77.1063 21.6061 77.0284 21.6061 76.97C21.6061 76.9116 21.6061 76.7948 21.5671 76.7364C21.5282 76.678 21.4893 76.6001 21.4309 76.5612C21.3725 76.5028 21.314 76.4638 21.2362 76.4444C21.1583 76.4249 21.0804 76.4054 21.0026 76.4054C20.8468 76.4054 20.6911 76.4638 20.5937 76.5612C20.4769 76.6585 20.4185 76.7948 20.3796 76.9505L20.0681 76.8921C20.0876 76.7948 20.1265 76.678 20.1849 76.6001C20.2433 76.5028 20.3017 76.4249 20.3991 76.3665C20.4964 76.3081 20.5743 76.2497 20.6716 76.2108C20.7689 76.1718 20.8858 76.1523 21.0026 76.1523C21.1194 76.1523 21.2362 76.1523 21.353 76.2108C21.4698 76.2497 21.5671 76.3081 21.645 76.3665C21.7229 76.4444 21.8007 76.5222 21.8397 76.639C21.8981 76.7364 21.9176 76.8727 21.9176 77.0089C21.9176 77.1452 21.9176 77.2036 21.8786 77.2815C21.8592 77.3594 21.8202 77.4372 21.7618 77.5151C21.7229 77.593 21.6645 77.6708 21.6061 77.7292C21.5477 77.7876 21.4893 77.8655 21.4114 77.9239L20.3017 79.0141H21.9176V79.2867L21.937 79.2672Z" fill="white"/>
<path d="M23.5143 76.1328C23.709 76.1328 23.8648 76.1718 23.9816 76.2691C24.1179 76.3664 24.2152 76.4832 24.2931 76.639C24.3709 76.7947 24.4293 76.9699 24.4683 77.1646C24.5072 77.3593 24.5267 77.554 24.5267 77.7486C24.5267 77.9433 24.5267 78.138 24.4683 78.3327C24.4099 78.5274 24.3709 78.7026 24.2931 78.8389C24.2152 78.9751 24.1179 79.1114 23.9816 79.2087C23.8453 79.3061 23.6896 79.345 23.5143 79.345C23.3391 79.345 23.1639 79.3061 23.0276 79.2087C22.8914 79.1114 22.794 78.9946 22.7162 78.8389C22.6383 78.6831 22.5799 78.5079 22.5604 78.3327C22.5215 78.138 22.5215 77.9433 22.5215 77.7486C22.5215 77.554 22.5215 77.3593 22.5604 77.1646C22.5994 76.9699 22.6383 76.7947 22.7162 76.639C22.794 76.4832 22.8914 76.3664 23.0276 76.2691C23.1639 76.1718 23.3197 76.1328 23.5143 76.1328ZM23.5143 76.4054C23.3781 76.4054 23.2613 76.4443 23.1834 76.5222C23.0861 76.6 23.0276 76.7169 22.9692 76.8337C22.9108 76.9699 22.8719 77.1062 22.8524 77.262C22.833 77.4177 22.8135 77.5734 22.8135 77.7292C22.8135 77.8849 22.8135 78.0407 22.8524 78.1964C22.8719 78.3522 22.9108 78.5079 22.9692 78.6247C23.0276 78.761 23.0861 78.8583 23.1834 78.9362C23.2807 79.0141 23.3781 79.053 23.5143 79.053C23.6506 79.053 23.7674 79.0141 23.8453 78.9362C23.9426 78.8583 24.001 78.7415 24.0594 78.6247C24.1178 78.4884 24.1568 78.3522 24.1763 78.1964C24.1957 78.0407 24.2152 77.8849 24.2152 77.7292C24.2152 77.5734 24.2152 77.4177 24.1763 77.262C24.1568 77.1062 24.1178 76.9505 24.0594 76.8337C24.001 76.6974 23.9426 76.6 23.8453 76.5222C23.748 76.4443 23.6506 76.4054 23.5143 76.4054Z" fill="white"/>
<path d="M26.3169 79.2674H26.0054V76.6003L25.4603 77.0675L25.2656 76.8534L26.0443 76.2109H26.3169V79.2674Z" fill="white"/>
<path d="M28.9447 77.6514C29.1199 77.7098 29.2562 77.7876 29.3535 77.9434C29.4704 78.0797 29.5093 78.2549 29.5093 78.469C29.5093 78.6832 29.4898 78.7221 29.4314 78.8389C29.373 78.9557 29.3146 79.0336 29.2173 79.1115C29.1199 79.1893 29.0226 79.2477 28.9058 79.2867C28.789 79.3256 28.6527 79.3451 28.5359 79.3451C28.4191 79.3451 28.2828 79.3256 28.166 79.2867C28.0492 79.2477 27.9324 79.1893 27.8545 79.1115C27.7766 79.0336 27.6988 78.9363 27.6404 78.8389C27.582 78.7416 27.5625 78.6053 27.5625 78.469C27.5625 78.3327 27.5625 78.2743 27.6014 78.177C27.6209 78.0797 27.6793 78.0018 27.7182 77.9434C27.7766 77.8655 27.835 77.8071 27.8935 77.7682C27.9713 77.7098 28.0492 77.6903 28.1271 77.6514C28.0492 77.6124 27.9908 77.593 27.9324 77.5346C27.874 77.4956 27.835 77.4372 27.7961 77.3788C27.7572 77.3204 27.7182 77.2425 27.6988 77.1841C27.6793 77.1063 27.6598 77.0284 27.6598 76.9505C27.6598 76.8337 27.6793 76.7169 27.7377 76.6196C27.7766 76.5222 27.8545 76.4249 27.9324 76.3665C28.0103 76.2886 28.1076 76.2497 28.2049 76.2108C28.3023 76.1718 28.4191 76.1523 28.5359 76.1523C28.6527 76.1523 28.7695 76.1523 28.8668 76.2108C28.9642 76.2497 29.0615 76.3081 29.1394 76.3665C29.2173 76.4444 29.2757 76.5222 29.3341 76.6196C29.373 76.7169 29.4119 76.8337 29.4119 76.9505C29.4119 77.0673 29.4119 77.1063 29.373 77.1841C29.3535 77.262 29.3146 77.3204 29.2757 77.3788C29.2367 77.4372 29.1783 77.4956 29.1394 77.5346C29.081 77.5735 29.0226 77.6124 28.9447 77.6319V77.6514ZM27.874 78.4301C27.874 78.5274 27.874 78.6053 27.9129 78.6832C27.9519 78.761 27.9908 78.8389 28.0492 78.8973C28.1076 78.9557 28.1855 78.9947 28.2633 79.0336C28.3412 79.0725 28.4386 79.092 28.5359 79.092C28.6332 79.092 28.7306 79.092 28.8084 79.0336C28.8863 78.9752 28.9642 78.9557 29.0226 78.8973C29.081 78.8389 29.1199 78.761 29.1589 78.6832C29.1978 78.6053 29.1978 78.508 29.1978 78.4301C29.1978 78.3522 29.1978 78.2549 29.1589 78.177C29.1199 78.0991 29.081 78.0407 29.0226 77.9823C28.9642 77.9239 28.8863 77.885 28.8084 77.8461C28.7306 77.8071 28.6332 77.8071 28.5359 77.8071C28.4386 77.8071 28.3412 77.8071 28.2633 77.8461C28.1855 77.885 28.1076 77.9239 28.0492 77.9823C27.9908 78.0407 27.9519 78.0991 27.9129 78.177C27.874 78.2549 27.874 78.3327 27.874 78.4301ZM27.9713 76.97C27.9713 77.0479 27.9713 77.1257 28.0103 77.1841C28.0297 77.2425 28.0881 77.301 28.1271 77.3594C28.166 77.4178 28.2439 77.4372 28.3023 77.4762C28.3607 77.4956 28.4386 77.5151 28.5164 77.5151C28.5943 77.5151 28.6722 77.5151 28.7306 77.4762C28.789 77.4567 28.8668 77.4178 28.9058 77.3594C28.9642 77.301 29.0031 77.262 29.0226 77.1841C29.0421 77.1257 29.0615 77.0479 29.0615 76.97C29.0615 76.8921 29.0615 76.8143 29.0226 76.7364C29.0031 76.6585 28.9447 76.6001 28.9058 76.5612C28.8474 76.5028 28.789 76.4638 28.7306 76.4444C28.6722 76.4249 28.5943 76.4054 28.5164 76.4054C28.4386 76.4054 28.3607 76.4054 28.3023 76.4444C28.2439 76.4638 28.166 76.5222 28.1271 76.5612C28.0881 76.6001 28.0297 76.678 28.0103 76.7364C27.9908 76.8143 27.9713 76.8921 27.9713 76.97Z" fill="white"/>
<path d="M19.2697 84.4647H18.5299L17.9264 82.4011L17.3229 84.4647H16.5831L15.707 81.4082H16.5052L16.9919 83.4523L17.537 81.4082H18.3157L18.8608 83.4523L19.3475 81.4082H20.1262L19.2502 84.4647H19.2697Z" fill="white"/>
<path d="M20.457 84.4647V81.4082H21.1968V84.4647H20.457Z" fill="white"/>
<path d="M23.7867 84.4647L22.5602 82.4595V84.4647H21.8594V81.4082H22.6965L23.923 83.4134V81.4082H24.6238V84.4647H23.7867Z" fill="white"/>
<path d="M27.1929 84.4647L25.9665 82.4595V84.4647H25.2656V81.4082H26.1027L27.3292 83.4134V81.4082H28.0301V84.4647H27.1929Z" fill="white"/>
<path d="M28.6523 84.4647V81.4082H30.7159V82.0312H29.3727V82.6152H30.6381V83.1993H29.3727V83.8417H30.7938V84.4647H28.6523Z" fill="white"/>
<path d="M32.9166 84.4647L32.2546 83.2577H32.0016V84.4647H31.2812V81.4082H32.4493C32.6051 81.4082 32.7413 81.4082 32.8776 81.4471C33.0139 81.4861 33.1502 81.525 33.2475 81.6029C33.3643 81.6808 33.4422 81.7781 33.5201 81.8949C33.5785 82.0117 33.6174 82.1675 33.6174 82.3427C33.6174 82.5179 33.559 82.732 33.4422 82.8683C33.3254 83.0046 33.1696 83.1019 32.975 83.1798L33.7731 84.4841H32.9166V84.4647ZM32.8971 82.3427C32.8971 82.2648 32.8971 82.2064 32.8581 82.1674C32.8192 82.1285 32.7803 82.0896 32.7413 82.0701C32.7024 82.0506 32.644 82.0312 32.5856 82.0117C32.5272 81.9922 32.4688 82.0117 32.4104 82.0117H32.021V82.732H32.3714C32.4299 82.732 32.4883 82.732 32.5661 82.732C32.6245 82.732 32.6829 82.7126 32.7413 82.6736C32.7997 82.6347 32.8387 82.6152 32.8776 82.5568C32.9166 82.4984 32.936 82.44 32.936 82.3621L32.8971 82.3427Z" fill="white"/>
<path d="M42.6128 81.5062V81.5451C42.6128 81.5451 42.5933 81.5646 42.5738 81.5841C42.6128 81.5841 42.6517 81.5841 42.7101 81.5841C42.788 81.5841 42.8658 81.5841 42.9048 81.5841C42.9826 81.5841 43.08 81.5841 43.1384 81.5451C43.2941 81.5062 43.7614 81.3505 44.1312 81.1363C44.4427 80.9611 44.6569 80.6302 44.7542 80.4549C44.7542 80.4549 44.7542 80.416 44.7737 80.416C44.7932 80.3576 44.8516 80.2992 44.8905 80.2213C44.7737 80.2603 44.6179 80.2992 44.4233 80.2992C44.2286 80.2992 44.3065 80.2992 44.2481 80.2992C43.8587 80.2603 43.703 80.2992 43.372 80.4549C43.0021 80.6107 42.788 81.1363 42.6128 81.5257V81.5062ZM39.3421 85.3414C39.3616 85.4193 39.42 85.4971 39.459 85.575C39.4784 85.6334 39.4979 85.6723 39.5174 85.6918C39.5174 85.6918 39.5174 85.6918 39.5174 85.6723C39.7704 85.3024 40.1014 84.7963 40.0235 84.3485C39.9457 83.9397 39.9067 83.7645 39.6342 83.3946C39.459 83.161 39.3616 82.9274 39.3227 82.7327C39.2837 82.8106 39.2448 82.8884 39.2253 82.9274V82.9663C39.1085 83.1804 38.9139 83.5698 38.9723 83.9397C39.0307 84.3875 39.3032 85.1467 39.3616 85.3024L39.3421 85.3414ZM42.2818 79.2479C42.1261 78.878 41.8924 78.3524 41.5226 78.2161C41.1721 78.0799 41.0164 78.0215 40.6076 78.0799C40.5492 78.0799 40.4908 78.0799 40.4324 78.0799C40.2571 78.0799 40.0819 78.0604 39.9651 78.002C40.0041 78.0604 40.043 78.1188 40.0625 78.1772C40.0625 78.1967 40.0625 78.2161 40.0625 78.2161C40.1793 78.3913 40.3739 78.7223 40.6854 78.8586C41.0359 79.0143 41.7172 79.1701 41.9119 79.209C41.9898 79.209 42.0677 79.2285 42.165 79.2479H42.2039C42.2234 79.2479 42.2429 79.2479 42.2623 79.2479H42.2818ZM40.2377 87.1519C39.9457 86.8209 39.7704 86.7431 39.4006 86.5873C39.3032 86.5484 39.2059 86.5289 39.1085 86.5289C38.7581 86.5289 38.3688 86.7041 38.0573 86.8404H38.0183C38.0183 86.8599 37.9989 86.8599 37.9794 86.8793C37.9989 86.8988 38.0378 86.9377 38.0767 86.9767C38.1351 87.0351 38.213 87.113 38.2325 87.1324C38.3104 87.1908 38.3882 87.2492 38.4466 87.2882C38.6024 87.3855 39.1085 87.6191 39.5368 87.7165C39.6342 87.7359 39.751 87.7554 39.8873 87.7554C40.1403 87.7554 40.3739 87.697 40.5297 87.6581H40.5686C40.627 87.6386 40.7244 87.5997 40.8022 87.5607C40.627 87.4828 40.4129 87.3466 40.1987 87.113L40.2377 87.1519ZM42.5154 79.2869C42.5543 79.2674 42.6128 79.2479 42.6906 79.209C42.749 79.1895 42.8269 79.1506 42.8464 79.1311C42.9048 79.0922 42.9632 79.0533 43.0216 79.0143C43.1384 78.917 43.4499 78.6055 43.664 78.3135C43.8392 78.0604 43.9171 77.71 43.9366 77.5348V77.4958C43.9366 77.4569 43.9366 77.3985 43.956 77.3401C43.8392 77.4374 43.703 77.5348 43.5083 77.6126C43.1968 77.7294 43.0995 77.8268 42.8658 78.0604C42.6712 78.2745 42.6322 78.6834 42.6322 79.0533C42.6322 79.1117 42.5933 79.1701 42.5349 79.1701C42.5349 79.1701 42.5349 79.1701 42.5349 79.1895C42.5349 79.1895 42.5349 79.2285 42.5349 79.2479C42.5349 79.2479 42.5349 79.2674 42.5349 79.2869H42.5154ZM44.2675 83.2388C44.2675 83.2194 44.2675 83.1999 44.287 83.1999C44.3259 83.161 44.4038 83.0636 44.4622 82.9858C44.4038 82.9858 44.3259 82.9858 44.2481 82.9858C44.0728 82.9858 43.8782 82.9468 43.703 82.8884C43.4888 82.8106 43.3331 82.7911 43.1579 82.7911C42.9826 82.7911 42.8853 82.8106 42.6906 82.8495C42.3402 82.9079 42.0287 83.2778 41.834 83.5503C41.7951 83.6087 41.7367 83.6087 41.6783 83.5893C41.6199 83.6671 41.581 83.7645 41.5226 83.8424C41.5226 83.8618 41.4836 83.8813 41.4641 83.9202C41.5226 83.9202 41.6004 83.9397 41.7367 83.9786C41.8146 83.9981 41.9119 84.0176 41.9508 84.037C42.0482 84.037 42.1455 84.0565 42.2234 84.0565C42.3986 84.0565 42.9437 83.9981 43.3915 83.8424C43.7614 83.7255 44.0728 83.4141 44.2091 83.2583L44.2675 83.2388ZM41.8924 77.1454C41.8924 77.1843 41.9508 77.2427 41.9703 77.3011C41.9703 77.3206 42.0092 77.3596 42.0092 77.379C42.0092 77.379 42.0092 77.379 42.0092 77.3596C42.2234 77.087 42.4959 76.6976 42.457 76.3667C42.4181 76.0552 42.3791 75.8995 42.1845 75.6269C42.0677 75.4517 41.9898 75.2765 41.9703 75.1207C41.9508 75.1597 41.9119 75.2181 41.9119 75.2376C41.9119 75.2376 41.9119 75.2375 41.9119 75.257C41.834 75.4128 41.6978 75.7048 41.6978 76.0163C41.6978 76.3862 41.7756 76.8145 41.8146 76.9507C41.8146 77.0091 41.873 77.087 41.8924 77.1454ZM37.2202 87.0156C37.2202 87.0156 37.2201 87.0156 37.2396 87.0156C37.6095 86.7625 38.0962 86.4316 38.1935 85.9838C38.2714 85.575 38.2909 85.3998 38.1935 84.952C38.1157 84.66 38.1157 84.4069 38.1351 84.2122C38.0767 84.2706 37.9989 84.3291 37.9599 84.368C37.9599 84.368 37.9405 84.3875 37.921 84.4069C37.7458 84.5627 37.4343 84.8547 37.3564 85.2246C37.2591 85.6529 37.2202 86.451 37.2007 86.6457C37.2007 86.7236 37.2007 86.8404 37.2007 86.9183C37.2007 86.9572 37.2007 86.9961 37.2007 87.0351L37.2202 87.0156ZM41.0164 84.037C41.0553 84.0954 41.0748 84.1344 41.0943 84.1538C41.0943 84.1538 41.0943 84.1344 41.0943 84.1149C41.25 83.6671 41.4447 83.0636 41.2305 82.6353C41.0359 82.246 40.9385 82.0708 40.5881 81.7982C40.335 81.6035 40.1793 81.3894 40.0819 81.2142C40.0625 81.3115 40.043 81.4089 40.0235 81.4673C40.0235 81.4673 40.0235 81.5062 40.0235 81.5257C39.9846 81.7788 39.9067 82.2265 40.0625 82.5769C40.2571 83.0052 40.7244 83.7061 40.8217 83.8618C40.8606 83.9202 40.9385 83.9981 40.9969 84.0565L41.0164 84.037ZM41.6199 85.1662C41.542 85.1467 41.4641 85.1272 41.3863 85.1272C41.0164 85.1272 40.5881 85.3608 40.2961 85.5166C40.2766 85.5166 40.2571 85.5361 40.2182 85.5555C40.2571 85.575 40.2766 85.6139 40.335 85.6529C40.3934 85.7113 40.4713 85.7697 40.5102 85.7891C40.5881 85.8475 40.666 85.906 40.7438 85.9254C40.8996 86.0033 41.4252 86.198 41.873 86.2758C41.9508 86.2758 42.0287 86.2758 42.1066 86.2758C42.4181 86.2758 42.7101 86.1785 42.8464 86.1396C42.8464 86.1396 42.8464 86.1396 42.8658 86.1396C42.9048 86.1201 43.0021 86.0812 43.0995 86.0422C42.9242 85.9838 42.6906 85.8475 42.4765 85.6334C42.165 85.3219 41.9898 85.2635 41.6004 85.1467L41.6199 85.1662ZM39.3227 73.427C39.3227 73.6217 39.3616 73.9721 39.5563 74.2252C39.7899 74.5172 40.2766 74.965 40.3934 75.0623C40.4518 75.1013 40.5102 75.1402 40.5686 75.1986C40.5686 75.2181 40.6076 75.2376 40.627 75.2376C40.6465 74.8677 40.6854 74.3615 40.4518 74.0695C40.2377 73.8164 40.1209 73.6996 39.7899 73.5633C39.5758 73.466 39.42 73.3492 39.3032 73.2324C39.3032 73.2908 39.3032 73.3492 39.3032 73.3881V73.427H39.3227ZM39.9262 76.0747C39.712 76.1136 39.4784 76.0941 39.3032 76.0552C39.3421 76.1136 39.3811 76.172 39.4006 76.2109C39.4006 76.2109 39.4006 76.2109 39.42 76.2499C39.5368 76.4251 39.751 76.7366 40.043 76.8534C40.3934 76.9897 41.0943 77.1259 41.25 77.1454C41.3084 77.1454 41.3863 77.1454 41.4641 77.1454C41.5226 77.1454 41.5615 77.1454 41.6004 77.1454C41.5615 77.0675 41.5226 77.0091 41.4641 76.9313C41.4252 76.8534 41.3863 76.795 41.3473 76.7171L41.2889 76.6198C41.25 76.5419 41.2111 76.4835 41.1721 76.4056V76.3472C41.1137 76.3472 41.0553 76.3472 41.0359 76.3083C40.9385 76.2304 40.8606 76.172 40.7633 76.1331C40.4324 76.0163 40.2766 75.9773 39.8873 76.0357L39.9262 76.0747ZM42.1066 81.8566C42.1261 81.8566 42.165 81.8956 42.1845 81.8956C42.1845 81.4867 42.2234 80.9222 41.9508 80.6302C41.6978 80.3576 41.581 80.2408 41.2111 80.1045C40.9775 80.0072 40.7828 79.8904 40.666 79.7736C40.666 79.8514 40.666 79.9293 40.666 79.9488V79.9877C40.6854 80.2019 40.7438 80.5912 40.958 80.8443C41.2111 81.1558 41.7756 81.6035 41.8924 81.7204C41.9508 81.7593 42.0287 81.8177 42.1066 81.8566ZM9.92619 83.4141C9.65364 83.7645 9.6147 83.9592 9.53683 84.368C9.45896 84.8157 9.78991 85.3219 10.043 85.6918C10.043 85.6918 10.043 85.6918 10.043 85.7113C10.043 85.6723 10.0819 85.6529 10.1014 85.5945C10.1403 85.4971 10.1793 85.4193 10.2182 85.3414C10.2766 85.1662 10.5297 84.4069 10.6076 83.9592C10.666 83.5893 10.4713 83.1999 10.3739 82.9858V82.9468C10.335 82.9079 10.2961 82.83 10.2571 82.7522C10.2182 82.9468 10.1209 83.1804 9.94565 83.4141H9.92619ZM7.47323 77.379C7.47323 77.3596 7.4927 77.3401 7.51217 77.3011C7.5511 77.2427 7.59004 77.1843 7.59004 77.1454C7.62898 77.0675 7.64844 77.0091 7.66791 76.9507C7.70685 76.8145 7.78472 76.3862 7.78472 76.0163C7.78472 75.7048 7.64844 75.4128 7.57057 75.257C7.57057 75.2375 7.57057 75.2376 7.57057 75.2181C7.5511 75.1791 7.53164 75.1402 7.4927 75.1013C7.45376 75.2376 7.39536 75.4128 7.27855 75.6074C7.08388 75.8995 7.06441 76.0357 7.006 76.3472C6.96707 76.6976 7.23962 77.0675 7.45377 77.3401C7.45377 77.3401 7.45377 77.3401 7.45377 77.3596L7.47323 77.379ZM4.74773 80.4549C4.84507 80.6302 5.05922 80.9611 5.3707 81.1363C5.72112 81.3505 6.20782 81.5257 6.36356 81.5451C6.42197 81.5451 6.51931 81.5646 6.59718 81.5841C6.63611 81.5841 6.71399 81.5841 6.79186 81.5841C6.83079 81.5841 6.86973 81.5841 6.92813 81.5841C6.92813 81.5841 6.92813 81.5646 6.92813 81.5451V81.5062C6.75292 81.1169 6.53877 80.5717 6.16888 80.4355C5.83793 80.2992 5.68219 80.2408 5.29283 80.2797C5.23443 80.2797 5.17602 80.2797 5.11762 80.2797C4.92294 80.2797 4.7672 80.2408 4.65039 80.2019C4.68933 80.2797 4.72826 80.3576 4.7672 80.3965C4.7672 80.3965 4.7672 80.416 4.78667 80.4355L4.74773 80.4549ZM5.56538 77.5348C5.58485 77.71 5.66272 78.0604 5.83793 78.3135C6.03261 78.6055 6.36356 78.917 6.48037 79.0143C6.51931 79.0533 6.59718 79.0922 6.65558 79.1311C6.69452 79.1506 6.75292 79.1895 6.81133 79.209C6.90866 79.2479 6.9476 79.2674 6.98654 79.2869C6.98654 79.2869 6.98654 79.2674 6.98654 79.2479C6.98654 79.2479 6.98654 79.209 6.98654 79.1895C6.98654 79.1895 6.98654 79.1895 6.98654 79.1701C6.92813 79.1701 6.8892 79.1117 6.8892 79.0533C6.8892 78.6834 6.85026 78.2745 6.65558 78.0604C6.44144 77.8268 6.32463 77.7294 6.01314 77.6126C5.81846 77.5348 5.66272 77.4374 5.54591 77.3401C5.54591 77.3985 5.54591 77.4569 5.54591 77.4958C5.54591 77.4958 5.54591 77.5153 5.54591 77.5348H5.56538ZM6.77239 82.8495C6.59718 82.8106 6.44144 82.7911 6.30516 82.7911C6.16889 82.7911 5.99367 82.83 5.76006 82.8884C5.58485 82.9468 5.39017 82.9858 5.21496 82.9858C5.03975 82.9858 5.07868 82.9858 5.00081 82.9858C5.07868 83.0636 5.15656 83.161 5.17602 83.1999C5.17602 83.1999 5.17602 83.1999 5.19549 83.2194C5.35123 83.3946 5.64325 83.7061 6.01314 83.8229C6.4609 83.9786 7.006 84.037 7.18121 84.037C7.25909 84.037 7.35643 84.037 7.45377 84.0176C7.51217 84.0176 7.59004 83.9786 7.66791 83.9592C7.82365 83.9202 7.90153 83.9008 7.95993 83.9008C7.95993 83.8813 7.92099 83.8424 7.90153 83.8229C7.84312 83.745 7.78472 83.6671 7.74578 83.5698C7.68738 83.6087 7.62898 83.5893 7.59004 83.5309C7.39536 83.2583 7.10334 82.8884 6.73345 82.83L6.77239 82.8495ZM11.4836 86.8793H11.4447C11.1332 86.7236 10.7438 86.5484 10.3934 86.5484C10.043 86.5484 10.1793 86.5484 10.1014 86.6068C9.73151 86.7625 9.5563 86.8209 9.26428 87.1714C9.05013 87.405 8.83598 87.5412 8.66077 87.6191C8.75811 87.6581 8.85545 87.6775 8.89439 87.697H8.95279C9.10853 87.7554 9.32268 87.8138 9.57576 87.8138C9.82885 87.8138 9.80938 87.8138 9.92619 87.7749C10.3739 87.6775 10.8606 87.4439 11.0164 87.3466C11.0748 87.3076 11.1527 87.2492 11.2305 87.1908C11.2695 87.1519 11.3279 87.0935 11.3863 87.0351C11.4252 86.9961 11.4641 86.9572 11.4836 86.9377C11.4836 86.9377 11.4641 86.9377 11.4447 86.9377L11.4836 86.8793ZM6.30516 86.4121C6.30516 86.4121 6.32463 86.4121 6.3441 86.4121C6.49984 86.4705 6.79186 86.5679 7.12281 86.5679C7.45377 86.5679 7.27855 86.5679 7.35643 86.5679C7.84312 86.49 8.36876 86.2953 8.54397 86.198C8.62184 86.159 8.69971 86.1006 8.77758 86.0422C8.81652 86.0033 8.89439 85.9449 8.95279 85.8865C8.99173 85.8475 9.03066 85.8086 9.0696 85.7891C9.05013 85.7891 9.03066 85.7697 8.99173 85.7502C8.66077 85.575 8.23248 85.3219 7.84312 85.3219C7.45377 85.3219 7.66791 85.3219 7.60951 85.3609C7.20068 85.4971 7.02547 85.5555 6.69452 85.8865C6.4609 86.1201 6.22729 86.2369 6.03261 86.3148C6.12995 86.3537 6.24676 86.3926 6.28569 86.4121H6.30516ZM8.07674 77.1454C8.15461 77.1454 8.23248 77.1454 8.29088 77.1454C8.44663 77.1259 9.128 76.9897 9.49789 76.8534C9.78991 76.7366 10.0041 76.4251 10.1209 76.2499C10.1209 76.2304 10.1209 76.2109 10.1403 76.2109C10.1598 76.172 10.1987 76.1136 10.2377 76.0747C10.0625 76.1136 9.82885 76.1331 9.6147 76.0941C9.22534 76.0357 9.0696 76.0941 8.73865 76.1915C8.64131 76.2304 8.54397 76.2888 8.46609 76.3667C8.42716 76.4056 8.38822 76.4056 8.34929 76.4056V76.4446C8.29088 76.503 8.25195 76.5808 8.21301 76.6587L8.15461 76.7366C8.11567 76.8144 8.07674 76.8729 8.01833 76.9507C7.9794 77.0286 7.94046 77.087 7.88206 77.1649C7.92099 77.1649 7.9794 77.1649 8.01833 77.1649L8.07674 77.1454ZM8.44663 84.1538C8.46609 84.1149 8.50503 84.0954 8.5245 84.0565C8.5829 83.9592 8.64131 83.9008 8.69971 83.8424C8.79705 83.6866 9.26428 82.9858 9.45896 82.5575C9.6147 82.2071 9.53683 81.7593 9.49789 81.5062C9.49789 81.4867 9.49789 81.4673 9.49789 81.4478C9.49789 81.3894 9.45896 81.2921 9.43949 81.2142C9.34215 81.3894 9.18641 81.6035 8.93332 81.7982C8.56343 82.0902 8.46609 82.246 8.29088 82.6353C8.07674 83.0636 8.29088 83.6671 8.42716 84.1149V84.1538H8.44663ZM9.18641 79.1506L9.24481 79.1895H9.18641V79.1506ZM8.87492 75.2181C8.87492 75.2181 8.91386 75.1986 8.93332 75.1791C8.99173 75.1207 9.0696 75.0818 9.10854 75.0429C9.22534 74.9455 9.71204 74.4978 9.94565 74.2058C10.1403 73.9721 10.1598 73.6022 10.1793 73.4076V73.3686C10.1793 73.3297 10.1793 73.2713 10.1793 73.2129C10.0625 73.3297 9.90672 73.4465 9.69257 73.5438C9.36162 73.6801 9.24481 73.7969 9.03066 74.05C8.79705 74.3226 8.83598 74.8482 8.85545 75.2181H8.87492ZM12.3013 87.0156C12.3013 87.0156 12.3013 87.0156 12.3207 87.0156C12.3207 86.9767 12.3207 86.9377 12.3207 86.8988C12.3207 86.8015 12.3207 86.7041 12.3207 86.6263C12.3207 86.4316 12.2623 85.6334 12.165 85.2051C12.0871 84.8352 11.7756 84.5432 11.6004 84.3875C11.6004 84.3875 11.581 84.368 11.5615 84.3485C11.5226 84.3096 11.4447 84.2512 11.3863 84.1928C11.4252 84.3875 11.4057 84.6405 11.3279 84.9326C11.2111 85.3608 11.2305 85.5555 11.3279 85.9644C11.4057 86.4121 11.9119 86.7431 12.2818 86.9962L12.3013 87.0156ZM9.14747 78.0409C9.08907 78.0409 9.03066 78.0409 8.97226 78.0409C8.87492 78.0409 8.79705 78.0409 8.73865 78.0409C8.48556 78.0409 8.34929 78.0993 8.07674 78.1967C7.70685 78.3524 7.47323 78.8586 7.31749 79.2285C7.31749 79.2285 7.35643 79.2285 7.37589 79.2285H7.41483C7.4927 79.2285 7.59004 79.2285 7.66791 79.1895C7.88206 79.1506 8.54397 78.9754 8.89439 78.8391C9.20587 78.7028 9.40055 78.3719 9.51736 78.1772C9.51736 78.1772 9.51736 78.1772 9.51736 78.1577C9.53683 78.0993 9.57576 78.0409 9.6147 77.9825C9.49789 78.0215 9.32268 78.0604 9.14747 78.0604V78.0409ZM8.60237 80.8443C8.81652 80.5912 8.85545 80.2019 8.87492 79.9877C8.87492 79.9488 8.87492 79.9488 8.87492 79.9293C8.87492 79.8904 8.87492 79.832 8.87492 79.7541C8.75811 79.8709 8.56343 80.0072 8.32982 80.0851C7.95993 80.2213 7.84312 80.3381 7.59004 80.6107C7.31749 80.9027 7.33696 81.4673 7.35643 81.8761C7.37589 81.8761 7.39536 81.8761 7.4343 81.8372C7.51217 81.7982 7.59004 81.7398 7.64844 81.7009C7.76525 81.6035 8.32982 81.1363 8.5829 80.8248L8.60237 80.8443Z" fill="white"/>
</g>
<defs>
<linearGradient id="paint0_linear_10754_26129" x1="24.8194" y1="20.2215" x2="24.5663" y2="1.37657" gradientUnits="userSpaceOnUse">
<stop stop-color="#C2C2C2"/>
<stop offset="1" stop-color="#010101"/>
</linearGradient>
<linearGradient id="paint1_linear_10754_26129" x1="29.0633" y1="29.1384" x2="28.9465" y2="19.969" gradientUnits="userSpaceOnUse">
<stop stop-color="#C2C2C2"/>
<stop offset="1" stop-color="#010101"/>
</linearGradient>
<clipPath id="clip0_10754_26129">
<rect width="47.7936" height="90" fill="white" transform="translate(0.853516 0.150391)"/>
</clipPath>
</defs>
</svg>