<?xml version="1.0" encoding="utf-8"?>
<svg xmlns="http://www.w3.org/2000/svg" width="156" height="57" viewBox="0 0 156 57" fill="none">
<g clip-path="url(#clip0_10766_12887)">
<path d="M29.9711 15.5653V15.2184C30.7806 15.1316 30.8673 14.9871 30.6939 14.5245C30.5204 14.033 30.2891 13.4259 30.0289 12.6742H27.3691C27.1668 13.2235 26.9933 13.715 26.8198 14.2065C26.5596 15.016 26.7331 15.1027 27.7161 15.2184V15.5653H24.8828V15.2184C25.6634 15.1316 25.8369 15.0449 26.2705 13.9463L28.8147 7.52814L29.2194 7.44141C30 9.52298 30.8384 11.8647 31.619 13.9752C32.0238 15.0449 32.1105 15.1316 32.9778 15.2473V15.5942H29.9422L29.9711 15.5653ZM28.7568 9.0604C28.3521 10.1012 27.9473 11.2287 27.5715 12.1828H29.8554L28.7279 9.0604H28.7568Z" fill="white"/>
<path d="M36.07 15.5645H33.2656V15.2176C34.0462 15.1309 34.104 15.073 34.104 14.2925V11.7483C34.104 10.9388 34.0462 10.9099 33.3524 10.8232V10.5052C33.9595 10.4184 34.5088 10.2739 35.087 10.0137V11.3725C35.5207 10.7364 36.041 10.0715 36.6482 10.0715C37.2553 10.0715 37.3709 10.3606 37.3709 10.6497C37.3709 10.9388 37.1686 11.199 36.9662 11.3147C36.8505 11.4014 36.7349 11.3725 36.6482 11.3147C36.4747 11.1412 36.3302 10.9966 36.0989 10.9966C35.8676 10.9966 35.3761 11.3725 35.1159 12.0085V14.3214C35.1159 15.1309 35.1737 15.1887 36.1278 15.2754V15.6223L36.07 15.5645Z" fill="white"/>
<path d="M41.5658 15.7372C41.3924 15.7372 41.1033 15.6505 40.9876 15.5059C40.8141 15.3324 40.7563 15.1879 40.6985 14.9566C40.207 15.2746 39.5999 15.7372 39.2241 15.7372C38.3567 15.7372 37.7207 15.0144 37.7207 14.2338C37.7207 13.4532 38.0387 13.2509 38.7326 13.0196C39.4843 12.7594 40.4094 12.4414 40.6696 12.2101V11.9788C40.6696 11.1115 40.2359 10.62 39.5999 10.62C38.9639 10.62 39.1373 10.7646 39.0217 10.9091C38.8771 11.0826 38.7904 11.3428 38.7037 11.7186C38.6458 11.921 38.5302 12.0077 38.3567 12.0077C38.1833 12.0077 37.8074 11.7764 37.8074 11.4584C37.8074 11.1404 37.9809 11.1404 38.2122 10.9669C38.5591 10.7067 39.2819 10.2442 39.9757 10.0996C40.3516 10.0996 40.7274 10.2153 41.0165 10.4176C41.4502 10.7935 41.6526 11.1982 41.6526 11.8343V14.2049C41.6526 14.7542 41.8549 14.9277 42.0862 14.9277C42.3175 14.9277 42.4042 14.8699 42.5199 14.7831L42.6355 15.1301L41.5947 15.7372H41.5658ZM40.6696 12.6148C40.4094 12.7594 39.8023 13.0196 39.5421 13.1352C39.0795 13.3376 38.7904 13.5689 38.7904 14.0315C38.7904 14.6675 39.2819 14.9855 39.6866 14.9855C40.0914 14.9855 40.4383 14.7831 40.6985 14.5519V12.6437L40.6696 12.6148Z" fill="white"/>
<path d="M45.3809 10.1872C45.5833 10.1005 45.7856 10.0716 45.9302 10.0716C47.2312 10.0716 48.3298 11.1991 48.3298 12.6736C48.3298 14.148 46.9132 15.767 45.2942 15.7381C44.7738 15.7381 44.0799 15.6224 43.415 15.3044V8.42369C43.415 7.67201 43.3861 7.58528 42.6055 7.52745V7.20944C43.1837 7.1227 43.9354 6.94924 44.3979 6.80469V10.6498L45.3809 10.2161V10.1872ZM44.3979 14.148C44.3979 14.3504 44.3979 14.466 44.4558 14.5817C44.6003 14.8997 45.0918 15.2466 45.67 15.2466C46.7108 15.2466 47.2601 14.3504 47.2601 12.9627C47.2601 11.575 46.4217 10.7365 45.4098 10.7365C44.3979 10.7365 44.6581 10.8522 44.4268 10.9678V14.148H44.3979Z" fill="white"/>
<path d="M48.9355 15.5645V15.2176C49.7161 15.1309 49.8029 15.073 49.8029 14.2635V11.7483C49.8029 10.9966 49.774 10.9388 49.0223 10.8232V10.5341C49.6583 10.4184 50.2365 10.2739 50.7569 10.0426V14.2924C50.7569 15.1309 50.8437 15.1887 51.6531 15.2465V15.5934H48.9355V15.5645ZM50.2076 8.82832C49.8607 8.82832 49.5716 8.51031 49.5716 8.19229C49.5716 7.87427 49.8896 7.52734 50.2365 7.52734C50.5835 7.52734 50.8726 7.81645 50.8726 8.19229C50.8726 8.56813 50.5835 8.82832 50.2365 8.82832H50.2076Z" fill="white"/>
<path d="M55.933 15.7372C55.7595 15.7372 55.4704 15.6505 55.3548 15.5059C55.1813 15.3324 55.1235 15.1879 55.0657 14.9566C54.5742 15.2746 53.9671 15.7372 53.5912 15.7372C52.7239 15.7372 52.0879 15.0144 52.0879 14.2338C52.0879 13.4532 52.4059 13.2509 53.0998 13.0196C53.8514 12.7594 54.7766 12.4414 55.0368 12.2101V11.9788C55.0368 11.1115 54.6031 10.62 53.9671 10.62C53.3311 10.62 53.5045 10.7646 53.3889 10.9091C53.2443 11.0826 53.1576 11.3428 53.0709 11.7186C53.013 11.921 52.8974 12.0077 52.7239 12.0077C52.5505 12.0077 52.1746 11.7764 52.1746 11.4584C52.1746 11.1404 52.3481 11.1404 52.5794 10.9669C52.9263 10.7067 53.6491 10.2442 54.3429 10.0996C54.7188 10.0996 55.0946 10.2153 55.3837 10.4176C55.8174 10.7935 56.0197 11.1982 56.0197 11.8343V14.2049C56.0197 14.7542 56.2221 14.9277 56.4534 14.9277C56.6847 14.9277 56.7714 14.8699 56.8871 14.7831L57.0027 15.1301L55.9619 15.7372H55.933ZM55.0368 12.6148C54.7766 12.7594 54.1695 13.0196 53.9093 13.1352C53.4467 13.3376 53.1576 13.5689 53.1576 14.0315C53.1576 14.6675 53.6491 14.9855 54.0538 14.9855C54.4586 14.9855 54.8055 14.7831 55.0657 14.5519V12.6437L55.0368 12.6148Z" fill="white"/>
<path d="M60.8197 15.5661V15.2192C61.5425 15.1324 61.6003 15.0457 61.6003 14.2362V12.2125C61.6003 11.3451 61.2823 10.7669 60.4728 10.7669C59.6633 10.7669 59.4898 11.056 59.114 11.403V14.2651C59.114 15.1035 59.2007 15.1324 59.9235 15.2192V15.5661H57.2637V15.2192C58.0732 15.1324 58.1599 15.0746 58.1599 14.2651V11.7499C58.1599 10.9404 58.0732 10.9115 57.4082 10.7958V10.4778C58.0153 10.3911 58.6225 10.2176 59.114 9.98633V10.9404C59.3452 10.7669 59.6343 10.5935 59.9524 10.3911C60.2993 10.1598 60.6173 10.0152 60.9642 10.0152C61.9472 10.0152 62.5543 10.738 62.5543 11.9233V14.2651C62.5543 15.1035 62.6411 15.1324 63.3349 15.2192V15.5661H60.7908H60.8197Z" fill="white"/>
<path d="M68.7117 11.1978C69.9837 11.4291 70.9089 12.0362 70.9089 13.1927C70.9089 14.3491 70.4174 14.6671 69.7235 15.0429C69.0875 15.3899 68.3069 15.5633 67.3818 15.5633H63.9414V15.1008C64.8955 15.014 64.9822 14.9273 64.9822 13.9154V9.2608C64.9822 8.22002 64.8087 8.13329 63.9414 8.04656V7.58398H67.6709C68.596 7.58398 69.2032 7.69963 69.6657 8.01764C70.1283 8.30675 70.4174 8.76932 70.4174 9.37645C70.4174 10.3883 69.4633 10.9954 68.6538 11.1689L68.7117 11.1978ZM67.1505 11.0244C68.3069 11.0244 68.7406 10.5329 68.7406 9.60773C68.7406 8.68259 68.0467 8.13329 67.3818 8.13329C66.7168 8.13329 66.8903 8.1622 66.8036 8.22002C66.659 8.30675 66.6879 8.42239 66.6879 8.68259V11.0244H67.1794H67.1505ZM66.659 13.9154C66.659 14.8117 67.0638 15.0719 67.7287 15.0429C68.3937 15.0429 69.0586 14.4358 69.0586 13.3083C69.0586 12.1808 68.4515 11.5447 67.0927 11.5447H66.659V13.8865V13.9154Z" fill="white"/>
<path d="M77.7322 15.277C77.0095 15.3637 76.2 15.5372 75.3905 15.7106V14.8722C74.899 15.277 74.3786 15.7106 73.7136 15.7106C72.6728 15.7106 72.0946 15.0457 72.0946 13.9471V11.403C72.0946 10.8536 72.0079 10.7669 71.6899 10.6802L71.4297 10.5935V10.1887C72.0657 10.1887 73.0198 10.0731 73.7136 9.98633C73.7136 10.5067 73.6847 11.1428 73.6847 11.8366V13.6291C73.6847 14.4386 74.0895 14.6988 74.5231 14.6988C74.9568 14.6988 75.1303 14.612 75.4194 14.3518V11.403C75.4194 10.8536 75.3615 10.738 75.0146 10.6802L74.6388 10.5935V10.1887C75.3615 10.1887 76.4023 10.0731 77.0095 9.98633V13.976C77.0095 14.612 77.0962 14.7566 77.472 14.7855H77.7322V15.2192V15.277Z" fill="white"/>
<path d="M81.5478 11.7202C81.2298 10.8529 80.825 10.477 80.2468 10.477C79.6686 10.477 79.6108 10.7083 79.6108 11.1131C79.6108 11.5178 79.9288 11.778 80.5648 12.0671C81.5478 12.5008 82.2416 12.9344 82.2416 13.8885C82.2416 14.8426 81.0852 15.7099 80.0155 15.7099C78.9458 15.7099 78.7145 15.4786 78.4543 15.334C78.3965 15.0449 78.2809 14.2065 78.252 13.7729L78.6567 13.6861C78.9169 14.4667 79.4084 15.1895 80.2179 15.1895C81.0274 15.1895 80.9117 14.9004 80.9117 14.5534C80.9117 14.2065 80.7383 13.8885 79.9577 13.5127C79.1482 13.1079 78.3676 12.7032 78.3676 11.6624C78.3676 10.6216 79.1771 9.92773 80.4492 9.92773C81.7212 9.92773 81.49 10.0434 81.7791 10.1012C81.808 10.4192 81.9236 11.2287 81.9814 11.5467L81.5767 11.6624L81.5478 11.7202Z" fill="white"/>
<path d="M82.7031 15.5661V15.1613C83.3681 15.0746 83.4259 15.0168 83.4259 14.1495V11.7499C83.4259 10.9404 83.3681 10.8826 82.7899 10.7958V10.3911C83.5705 10.3043 84.3221 10.1598 85.016 9.95741V14.1205C85.016 14.959 85.0738 15.0457 85.7677 15.1324V15.5372H82.7031V15.5661ZM84.1487 9.23464C83.6861 9.23464 83.2524 8.82989 83.2524 8.36732C83.2524 7.90475 83.6572 7.5 84.1487 7.5C84.6401 7.5 85.0449 7.87584 85.0449 8.36732C85.0449 8.8588 84.6401 9.23464 84.1487 9.23464Z" fill="white"/>
<path d="M89.6736 15.5661V15.1613C90.194 15.0746 90.2229 15.0457 90.2229 14.2073V12.1257C90.2229 11.2584 89.7892 10.9982 89.3556 10.9982C88.9219 10.9982 88.7774 11.1138 88.4304 11.374V14.3518C88.4304 15.1035 88.4883 15.1613 88.9797 15.2192V15.6239H86.1465V15.2192C86.7825 15.1035 86.8693 15.1035 86.8693 14.294V11.7499C86.8693 11.0271 86.7825 10.9693 86.2332 10.8536V10.4489C86.956 10.3622 87.7944 10.2176 88.4883 9.98633C88.4883 10.1598 88.4883 10.5935 88.4883 10.8826C88.7195 10.7091 88.9797 10.5356 89.2688 10.3622C89.6447 10.1309 89.876 10.0441 90.2229 10.0441C91.2059 10.0441 91.8419 10.7669 91.8419 12.0101V14.3229C91.8419 15.0746 91.9286 15.1324 92.5068 15.2192V15.6239H89.7025L89.6736 15.5661Z" fill="white"/>
<path d="M97.8242 14.3792C97.0725 15.4778 96.0895 15.738 95.5691 15.738C93.9212 15.738 92.9961 14.5237 92.9961 13.0782C92.9961 11.6327 93.4008 11.3725 93.9212 10.881C94.4705 10.3317 95.1644 10.0137 95.8293 10.0137C97.0436 10.0137 97.8531 10.9966 97.8531 12.0085C97.8531 12.2109 97.8531 12.4133 97.6796 12.4711C97.4483 12.5289 95.7137 12.6156 94.5284 12.6735C94.5862 13.9744 95.3089 14.6394 96.1763 14.6394C97.0436 14.6394 97.1303 14.4659 97.564 14.0901L97.7953 14.4081L97.8242 14.3792ZM95.5981 10.5052C95.1066 10.5052 94.7018 11.0834 94.6151 12.0374C95.1066 12.0374 95.5691 12.0374 96.0895 12.0085C96.263 12.0085 96.3208 11.9796 96.3208 11.7772C96.3208 11.1701 96.0606 10.5052 95.5691 10.5052H95.5981Z" fill="white"/>
<path d="M101.843 11.7202C101.525 10.8529 101.12 10.477 100.542 10.477C99.9635 10.477 99.9057 10.7083 99.9057 11.1131C99.9057 11.5178 100.224 11.778 100.86 12.0671C101.843 12.5008 102.537 12.9344 102.537 13.8885C102.537 14.8426 101.38 15.7099 100.31 15.7099C99.2407 15.7099 99.0094 15.4786 98.7492 15.334C98.6914 15.0449 98.5758 14.2065 98.5469 13.7729L98.9516 13.6861C99.2118 14.4667 99.7033 15.1895 100.513 15.1895C101.322 15.1895 101.207 14.9004 101.207 14.5534C101.207 14.2065 101.033 13.8885 100.253 13.5127C99.4431 13.1079 98.6625 12.7032 98.6625 11.6624C98.6625 10.6216 99.472 9.92773 100.744 9.92773C102.016 9.92773 101.785 10.0434 102.074 10.1012C102.103 10.4192 102.219 11.2287 102.276 11.5467L101.872 11.6624L101.843 11.7202Z" fill="white"/>
<path d="M106.47 11.7202C106.152 10.8529 105.747 10.477 105.169 10.477C104.59 10.477 104.533 10.7083 104.533 11.1131C104.533 11.5178 104.851 11.778 105.487 12.0671C106.47 12.5008 107.163 12.9344 107.163 13.8885C107.163 14.8426 106.007 15.7099 104.937 15.7099C103.868 15.7099 103.636 15.4786 103.376 15.334C103.318 15.0449 103.203 14.2065 103.174 13.7729L103.579 13.6861C103.839 14.4667 104.33 15.1895 105.14 15.1895C105.949 15.1895 105.834 14.9004 105.834 14.5534C105.834 14.2065 105.66 13.8885 104.88 13.5127C104.07 13.1079 103.289 12.7032 103.289 11.6624C103.289 10.6216 104.099 9.92773 105.371 9.92773C106.643 9.92773 106.412 10.0434 106.701 10.1012C106.73 10.4192 106.845 11.2287 106.903 11.5467L106.499 11.6624L106.47 11.7202Z" fill="white"/>
<path d="M11.7578 4.40625L19.0144 8.71394V20.4517L11.7578 16.4909V4.40625Z" fill="white"/>
<path d="M17.8 14.4082L10.8325 19.1206L0.193359 14.1769L6.84282 9.29102L17.8 14.4082Z" fill="white"/>
<path d="M4.93555 14.6978L5.39812 6.28482L15.806 0.849609L15.6614 9.11807L4.93555 14.6978Z" fill="white"/>
<path d="M107.281 19.2949H25.377V19.6419H107.281V19.2949Z" fill="white"/>
<path d="M34.5992 39.9662C34.4547 39.1856 34.3679 38.7519 34.1945 38.1737L33.7608 36.7571H29.0484L28.6147 38.1737C28.4123 38.8387 28.2967 39.3591 28.21 39.9662H24.3359C24.5961 39.4747 24.7407 39.0699 25.1454 37.9424L28.7304 27.9682C29.0195 27.1587 29.164 26.6673 29.2508 26.1758H33.5874C33.703 26.6673 33.8186 27.1009 34.1367 27.9682L37.7216 37.9424C38.0396 38.8098 38.2998 39.5036 38.5022 39.9662H34.6281H34.5992ZM31.3612 29.009L29.829 33.9817H32.9513L31.3901 29.009H31.3612Z" fill="white"/>
<path d="M48.4772 30.975C48.1592 29.4716 47.2919 28.72 45.8463 28.72C43.8226 28.72 42.6373 30.3101 42.6373 33.0566C42.6373 35.8031 43.8515 37.3932 45.9042 37.3932C47.9568 37.3932 47.581 37.0173 48.0725 36.3524C48.3616 35.9476 48.4772 35.6296 48.5639 34.9358L52.0043 35.4562C51.6863 36.8728 51.3394 37.6823 50.6166 38.4918C49.5758 39.6771 47.9857 40.2842 45.9909 40.2842C43.9961 40.2842 42.2614 39.6482 41.0761 38.4629C39.8618 37.2197 39.168 35.2827 39.168 33.0566C39.168 30.8304 39.8618 28.8934 41.1628 27.6214C42.3192 26.5228 43.9671 25.8867 45.9042 25.8867C47.8412 25.8867 49.7204 26.6095 50.7901 28.055C51.3105 28.72 51.5996 29.356 51.8309 30.3101L48.4194 30.975H48.4772Z" fill="white"/>
<path d="M66.0824 26.1758C65.9956 26.8407 65.9378 27.4768 65.9378 28.6332V37.5088C65.9378 38.5785 65.9667 39.1567 66.0824 39.9662H62.5264C62.6131 39.2723 62.6709 38.6652 62.6709 37.5088V34.2997H57.0911V37.5088C57.0911 38.5785 57.1201 39.2145 57.2357 39.9662H53.6797C53.7664 39.3012 53.8242 38.6652 53.8242 37.5088V28.6332C53.8242 27.4768 53.7953 26.8985 53.6797 26.1758H57.2357C57.149 26.9564 57.0911 27.5924 57.0911 28.6332V31.3797H62.6709V28.6332C62.6709 27.4768 62.642 26.8407 62.5264 26.1758H66.0824Z" fill="white"/>
<path d="M71.8068 26.1758C71.7201 26.8407 71.6623 27.4189 71.6623 28.6332V37.5088C71.6623 38.6652 71.6912 39.2723 71.8068 39.9662H68.1641C68.2508 39.3301 68.3086 38.6363 68.3086 37.5088V28.6332C68.3086 27.39 68.2797 26.8985 68.1641 26.1758H71.8068Z" fill="white"/>
<path d="M84.2676 40.0822C83.5448 39.9955 82.9666 39.9666 81.5211 39.9666H76.3172C75.0451 39.9666 74.5825 39.9666 73.8887 40.0244C73.9754 39.3595 74.0332 38.7523 74.0332 37.5959V28.5469C74.0332 27.5061 74.0043 26.9279 73.8887 26.1184C74.5536 26.1473 75.0451 26.1762 76.3172 26.1762H81.6078C82.7353 26.1762 83.2846 26.1473 84.0652 26.0605V29.154C83.3136 29.0673 82.7064 29.0383 81.6078 29.0383H77.3001V31.4668H80.8851C81.9837 31.4668 82.3884 31.4668 83.3714 31.3512V34.4157C82.5908 34.329 82.0415 34.3001 80.8851 34.3001H77.3001V37.0755H81.5789C82.851 37.0755 83.5738 37.0466 84.2676 36.9599V40.0533V40.0822Z" fill="white"/>
<path d="M91.7569 35.9476C91.8532 36.2367 91.9592 36.6222 92.0749 37.104C92.2773 36.3813 92.3062 36.2656 92.3929 35.9476L94.7925 27.9682C94.9949 27.2166 95.1105 26.754 95.1683 26.1758H99.0713C98.84 26.6673 98.6954 27.0431 98.2618 28.1995L94.7636 38.1737C94.4745 38.9832 94.3299 39.5614 94.2432 39.9662H89.9355C89.8488 39.5325 89.6753 38.9832 89.4151 38.1737L85.888 28.1995C85.57 27.2455 85.3965 26.8118 85.1074 26.1758H88.9815C89.0393 26.6962 89.1838 27.3611 89.3862 27.9682L91.7858 35.9476H91.7569Z" fill="white"/>
<path d="M106.24 39.9662C106.153 39.388 105.98 38.7808 105.517 37.5088L103.985 33.1143C103.985 33.0276 103.465 31.4953 103.436 31.3508C103.32 30.946 103.233 30.6666 103.175 30.5124C103.262 31.5532 103.349 32.912 103.349 33.7793V37.3642C103.349 38.5206 103.378 39.2434 103.493 39.9373H100.227C100.313 39.1856 100.371 38.4917 100.371 37.3642V28.7488C100.371 27.7659 100.313 26.8696 100.227 26.1758H104.592C104.708 26.8985 104.852 27.4189 105.228 28.5175L107.714 35.6585L110.172 28.5175C110.548 27.4189 110.692 26.8696 110.779 26.1758H115.173C115.087 26.9564 115.029 27.6502 115.029 28.7488V37.3642C115.029 38.6363 115.058 39.2723 115.173 39.9373H111.906C111.993 39.1856 112.051 38.5496 112.051 37.3642V33.7504C112.051 33.3456 112.109 32.1025 112.138 31.611C112.176 31.0328 112.196 30.6569 112.196 30.4835C111.82 31.7845 111.675 32.3627 111.444 32.9698L109.825 37.5088C109.42 38.6941 109.189 39.4169 109.102 39.9373H106.211L106.24 39.9662Z" fill="white"/>
<path d="M127.635 40.0822C126.912 39.9955 126.334 39.9666 124.888 39.9666H119.684C118.412 39.9666 117.95 39.9666 117.256 40.0244C117.343 39.3595 117.4 38.7523 117.4 37.5959V28.5469C117.4 27.5061 117.372 26.9279 117.256 26.1184C117.921 26.1473 118.412 26.1762 119.684 26.1762H124.975C126.103 26.1762 126.652 26.1473 127.432 26.0605V29.154C126.681 29.0673 126.074 29.0383 124.975 29.0383H120.667V31.4668H124.252C125.351 31.4668 125.756 31.4668 126.739 31.3512V34.4157C125.958 34.329 125.409 34.3001 124.252 34.3001H120.667V37.0755H124.946C126.218 37.0755 126.941 37.0466 127.635 36.9599V40.0533V40.0822Z" fill="white"/>
<path d="M137.262 32.9694C137.753 33.6922 138.071 34.2126 138.447 34.9353C138.389 34.1837 138.36 33.4031 138.36 32.4779V28.6906C138.36 27.592 138.331 26.9271 138.216 26.1754H141.743C141.656 26.9271 141.598 27.6209 141.598 28.6906V37.4795C141.598 38.4913 141.656 39.243 141.743 39.9369H138.129C137.84 39.3008 137.464 38.6937 136.886 37.8264L133.821 33.2007C133.388 32.5357 133.099 32.0443 132.636 31.1769C132.723 31.9286 132.752 32.8249 132.752 33.6344V37.3349C132.752 38.4913 132.781 39.2141 132.896 39.908H129.369C129.456 39.2719 129.514 38.5203 129.514 37.306V28.6039C129.514 27.6498 129.485 26.8982 129.369 26.1465H132.954C133.128 26.5801 133.474 27.2451 134.139 28.2281L137.291 32.9405L137.262 32.9694Z" fill="white"/>
<path d="M150.907 37.4514C150.907 38.4343 150.936 39.186 151.051 39.9666H147.38C147.466 39.186 147.524 38.5211 147.524 37.4514V29.0962H145.558C144.517 29.0962 144.228 29.0962 143.043 29.2118V26.0605C143.592 26.1184 144.489 26.1762 145.5 26.1762H152.757C153.913 26.1762 154.578 26.1473 155.33 26.0605V29.2118C154.578 29.1251 153.942 29.0962 152.757 29.0962H150.878V37.4514H150.907Z" fill="white"/>
<path d="M34.5992 56.5306C34.4547 55.75 34.3679 55.3164 34.1945 54.7382L33.7608 53.3215H29.0484L28.6147 54.7382C28.4123 55.4031 28.2967 55.9235 28.21 56.5306H24.3359C24.5961 56.0392 24.7407 55.6344 25.1454 54.5069L28.7304 44.5327C29.0195 43.7232 29.164 43.2317 29.2508 42.7402H33.5874C33.703 43.2317 33.8186 43.6654 34.1367 44.5327L37.7216 54.5069C38.0396 55.3742 38.2998 56.0681 38.5022 56.5306H34.6281H34.5992ZM31.3612 45.5735L29.829 50.5461H32.9513L31.3901 45.5735H31.3612Z" fill="white"/>
<path d="M48.5931 56.5306C48.5353 56.0102 48.4197 55.432 48.2462 54.7671L46.9741 49.9101C46.8007 49.2741 46.685 48.4935 46.5115 47.3949C46.4248 48.0598 46.2224 49.1295 46.0201 49.9101L44.8058 54.796C44.6034 55.6344 44.4878 56.097 44.43 56.5595H41.1342C41.0474 56.0681 40.9607 55.7211 40.7294 54.7671L38.0696 44.8218C37.8383 43.9834 37.6071 43.2028 37.4336 42.7691H41.2209C41.2209 43.3763 41.3076 43.8967 41.4522 44.5905L42.5219 49.621C42.5797 49.8812 42.6953 50.6618 42.8977 51.9627C43.1579 50.575 43.2736 49.9679 43.3603 49.621L44.6902 44.4749C44.8925 43.7232 44.9793 43.2028 45.066 42.7402H48.0149C48.0727 43.1739 48.1884 43.6365 48.3907 44.4171L49.7206 49.5053C49.8652 50.0257 49.9808 50.575 50.1832 51.9338C50.2025 51.7218 50.2507 51.3845 50.3278 50.922C50.3856 50.5461 50.5012 49.7655 50.559 49.5053L51.5998 44.5616C51.7733 43.8099 51.8311 43.3184 51.86 42.7402H55.6184C55.445 43.1739 55.2137 43.9545 55.0113 44.7929L52.3515 54.7093C52.1491 55.4899 51.9757 56.1259 51.9468 56.5017H48.622L48.5931 56.5306Z" fill="white"/>
<path d="M64.8688 56.5306C64.7242 55.75 64.6375 55.3164 64.464 54.7382L64.0304 53.3215H59.3179L58.8843 54.7382C58.6819 55.4031 58.5662 55.9235 58.4795 56.5306H54.6055C54.8657 56.0392 55.0102 55.6344 55.415 54.5069L58.9999 44.5327C59.289 43.7232 59.4336 43.2317 59.5203 42.7402H63.8569C63.9725 43.2317 64.0882 43.6654 64.4062 44.5327L67.9911 54.5069C68.3091 55.3742 68.5693 56.0681 68.7717 56.5306H64.8977H64.8688ZM61.6597 45.5735L60.1274 50.5461H63.2498L61.6886 45.5735H61.6597Z" fill="white"/>
<path d="M77.9939 56.5306C77.9071 56.0102 77.7048 55.3164 77.1844 53.9576C76.664 52.512 76.4616 52.1362 76.0279 51.7604C75.681 51.4424 75.2763 51.3267 74.727 51.3267H73.0501V54.0443C73.0501 55.1718 73.079 55.779 73.1947 56.5595H69.6387C69.7254 55.8079 69.7832 55.2875 69.7832 54.0732V45.1687C69.7832 44.128 69.7543 43.5208 69.6387 42.7402C70.3614 42.7691 70.9686 42.7981 72.0961 42.7981H76.4038C79.0925 42.7981 80.6536 44.1858 80.6536 46.5854C80.6536 48.9849 80.3356 48.6958 79.6707 49.303C79.2659 49.6788 78.919 49.8523 78.1095 50.1414C78.9479 50.4016 79.3238 50.7774 79.8731 51.9627C80.1333 52.4831 80.3645 53.0614 81.0873 54.8538C81.2608 55.3164 81.4631 55.7211 81.8968 56.6174H78.0228L77.9939 56.5306ZM75.6521 48.4646C76.6351 48.4646 77.2133 47.8574 77.2133 46.9323C77.2133 46.0071 76.6929 45.5157 75.6521 45.5157H73.0501V48.4646H75.6232H75.6521Z" fill="white"/>
<path d="M83.1406 45.1394C83.1406 44.0119 83.1117 43.4626 82.9961 42.7109C83.661 42.7398 84.0658 42.7688 85.4535 42.7688H88.9228C90.9465 42.7688 92.5944 43.3181 93.722 44.4167C94.9362 45.602 95.5433 47.3366 95.5433 49.5628C95.5433 51.7889 94.8784 53.6681 93.6352 54.9112C92.5366 56.0099 90.9465 56.5592 88.9806 56.5592H85.4824C84.2103 56.5592 83.7478 56.5592 83.0539 56.617C83.1407 55.8942 83.1985 55.3449 83.1985 54.1885V45.1683L83.1406 45.1394ZM88.6337 53.6103C89.7034 53.6103 90.484 53.3212 91.0622 52.7429C91.7271 52.0491 92.103 50.9505 92.103 49.5628C92.103 48.1751 91.7849 47.1343 91.1489 46.4693C90.5129 45.8044 89.7612 45.6309 88.5759 45.6309H86.4076V53.6103H88.6337Z" fill="white"/>
<path d="M99.938 52.0218C99.9959 52.6289 100.111 52.918 100.372 53.236C100.776 53.7275 101.47 54.0166 102.309 54.0166C103.581 54.0166 104.332 53.4673 104.332 52.5133C104.332 51.5592 104.072 51.5592 103.639 51.3568C103.292 51.1834 102.887 51.0677 101.152 50.6919C99.62 50.3739 99.0996 50.1715 98.4925 49.7378C97.4517 49.0151 96.8735 47.8876 96.8735 46.5577C96.8735 44.0135 98.9262 42.3945 102.193 42.3945C105.46 42.3945 105.894 43.0306 106.79 44.2737C107.195 44.823 107.397 45.3145 107.628 46.2686L104.13 46.6444C103.928 45.5747 103.349 45.1121 102.077 45.1121C100.805 45.1121 100.314 45.6614 100.314 46.4131C100.314 47.1648 100.574 47.2226 101.094 47.4828C101.306 47.5792 102.068 47.7623 103.378 48.0321C104.65 48.2923 105.431 48.5814 106.067 48.9862C107.252 49.7378 107.86 50.8365 107.86 52.3687C107.86 53.901 107.455 54.6816 106.703 55.4043C105.749 56.3295 104.275 56.821 102.338 56.821C100.401 56.821 99.5333 56.5319 98.6371 56.0115C97.7986 55.5489 97.1915 54.8261 96.8446 53.901C96.6711 53.4962 96.5844 53.1204 96.4688 52.3687L99.9091 52.0507L99.938 52.0218Z" fill="white"/>
<path d="M114.277 55.0007L118.44 51.2423C120.319 49.5366 121.534 48.3512 121.534 46.472C121.534 44.5928 120.666 44.0435 118.903 44.0435C117.139 44.0435 116.012 45.1132 115.694 47.3104L114.422 47.2526C114.855 44.4483 116.156 42.916 118.903 42.916C121.649 42.916 122.835 44.3616 122.835 46.472C122.835 48.5825 121.331 50.2593 119.307 51.994L116.098 54.7983V54.8561H122.979V56.0126H114.248V55.0007H114.277Z" fill="white"/>
<path d="M124.889 49.592C124.889 45.1109 126.594 42.8848 129.659 42.8848C132.723 42.8848 134.429 45.1109 134.429 49.592C134.429 54.0732 132.723 56.2704 129.659 56.2704C126.594 56.2704 124.889 54.0443 124.889 49.592ZM133.128 49.592C133.128 45.8915 132.087 44.0701 129.688 44.0701C127.288 44.0701 126.219 45.9204 126.219 49.592C126.219 53.2637 127.259 55.114 129.688 55.114C132.116 55.114 133.128 53.2637 133.128 49.592Z" fill="white"/>
<path d="M136.132 55.0007L140.296 51.2423C142.175 49.5366 143.389 48.3512 143.389 46.472C143.389 44.5928 142.522 44.0435 140.758 44.0435C138.995 44.0435 137.867 45.1132 137.549 47.3104L136.277 47.2526C136.711 44.4483 138.012 42.916 140.758 42.916C143.505 42.916 144.69 44.3616 144.69 46.472C144.69 48.5825 143.187 50.2593 141.163 51.994L137.954 54.7983V54.8561H144.835V56.0126H136.104V55.0007H136.132Z" fill="white"/>
<path d="M152.816 53.0035H145.906V52.0494L152.44 43.1738H154.059V51.8759H155.707V52.9746H154.059V55.9813H152.787V52.9746L152.816 53.0035ZM152.816 51.8759V44.6194H152.758L147.41 51.8181V51.8759H152.787H152.816Z" fill="white"/>
</g>
<defs>
<clipPath id="clip0_10766_12887">
<rect width="155.511" height="56" fill="white" transform="translate(0.195312 0.849609)"/>
</clipPath>
</defs>
</svg>