<?xml version="1.0" encoding="utf-8"?>
<svg xmlns="http://www.w3.org/2000/svg" width="157" height="57" viewBox="0 0 157 57" fill="none">
<g clip-path="url(#clip0_10754_26064)">
<path d="M52.369 36.8678C52.369 36.8048 52.3061 36.4902 51.9286 36.4902H49.0971C48.8454 36.4902 48.6567 36.679 48.6567 36.9307C48.6567 37.6228 48.5308 37.8116 48.4679 38.0003L42.1758 55.6183C42.1758 55.8071 42.1758 55.9959 42.2387 56.0588C42.3016 56.1846 42.4904 56.2475 42.6162 56.2475H44.5668C44.8185 56.2475 45.0072 56.1217 45.0702 55.87L47.0836 50.2071H54.005L56.0814 55.9329C56.0814 56.0588 56.2702 56.2475 56.5848 56.2475H58.787C59.0387 56.2475 59.1016 56.1217 59.1645 56.0588C59.1645 55.9959 59.2904 55.8071 59.1645 55.6183L52.369 36.8678ZM47.9016 47.3756L48.4679 45.8026C49.223 43.6003 50.0409 41.3352 50.4814 39.7621C50.9848 41.3352 51.8027 43.7262 52.432 45.5509C52.6836 46.243 52.8724 46.8723 53.0612 47.3127H47.9016V47.3756Z" fill="white"/>
<path d="M83.9556 36.4902H81.8792C81.6275 36.4902 81.4387 36.6161 81.3758 36.8678C79.5511 44.2925 78.4185 49.2003 77.7893 51.843C77.0342 48.6341 76.1533 45.0475 75.2724 41.5239C74.8949 39.9509 74.5174 38.3779 74.1398 36.8678C74.1398 36.7419 74.014 36.4902 73.6365 36.4902H71.2455C70.9938 36.4902 70.805 36.6161 70.6792 36.8678C69.169 42.7824 68.2252 46.4947 67.5331 48.9487C67.2185 50.1442 66.9668 51.0251 66.778 51.7172C66.3376 49.7666 65.3938 45.8026 63.1286 36.8048C63.0028 36.5532 62.814 36.4902 62.6252 36.4902H60.423C60.2342 36.4902 60.1084 36.4902 60.0454 36.6161C59.9196 36.7419 59.9825 36.9307 59.9825 37.0565L64.9533 55.8071C65.0162 55.9959 65.1421 56.1846 65.5196 56.1846H67.7219C68.1623 56.1846 68.2252 55.87 68.2252 55.7442C69.4837 51.3397 71.4971 44.1037 72.3151 40.706C72.8185 42.9082 73.7623 46.7464 74.5803 50.2071C75.1466 52.4723 75.6499 54.6116 75.9016 55.87V55.9329C76.0275 56.1846 76.1533 56.2475 76.405 56.2475H78.7331C79.0477 56.2475 79.1735 56.1217 79.2365 55.87L84.2702 37.0565C84.2702 36.8678 84.2702 36.7419 84.2073 36.679C84.1443 36.5532 84.0185 36.4902 83.8297 36.4902H83.9556Z" fill="white"/>
<path d="M95.4706 36.8678C95.4706 36.8048 95.4077 36.4902 95.0302 36.4902H92.1987C91.947 36.4902 91.7582 36.679 91.7582 36.9307C91.7582 37.6228 91.6324 37.8116 91.5695 38.0003L85.2773 55.6183C85.2773 55.8071 85.2773 55.9959 85.3403 56.0588C85.4032 56.1846 85.5919 56.2475 85.7178 56.2475H87.6684C87.92 56.2475 88.1088 56.1217 88.1717 55.87L90.1852 50.2071H97.1066L99.183 55.9329C99.183 56.0588 99.3717 56.2475 99.6863 56.2475H101.889C102.14 56.2475 102.203 56.1217 102.266 56.0588C102.266 55.9959 102.392 55.8071 102.266 55.6183L95.4706 36.8678ZM91.0661 47.3756L91.6324 45.8026C92.3875 43.6003 93.2054 41.3352 93.6459 39.7621C94.1493 41.3352 94.9672 43.7262 95.5964 45.6138C95.8481 46.306 96.0369 46.8723 96.2257 47.3756H91.0661Z" fill="white"/>
<path d="M115.165 47.5023C117.556 46.5585 119.003 44.6079 119.003 42.2169C119.003 38.5046 116.297 36.3652 111.578 36.3652C106.859 36.3652 108.243 36.3652 106.544 36.4282C106.419 36.4282 106.041 36.4282 106.041 36.9315V55.6192C106.041 55.9338 106.23 56.1225 106.544 56.1225H108.558C108.872 56.1225 109.061 55.9338 109.061 55.6192V48.1945H112.081C112.207 48.1945 112.27 48.1945 112.522 48.5091L113.025 49.2641C114.472 51.5293 116.486 54.6124 117.304 55.8709C117.43 55.9967 117.619 56.0596 117.807 56.0596H120.261C120.45 56.0596 120.576 55.9967 120.639 55.8709C120.639 55.8079 120.765 55.6192 120.639 55.3675C119.947 54.172 116.486 49.1383 115.228 47.3765L115.165 47.5023ZM111.83 45.6147H109.061V39.1967C109.69 39.1967 110.571 39.1967 111.515 39.1967C114.41 39.1967 115.983 40.3293 115.983 42.4057C115.983 44.4821 114.41 45.6776 111.83 45.6776V45.6147Z" fill="white"/>
<path d="M129.699 36.4286C126.805 36.4286 125.358 36.4286 124.603 36.4915C124.162 36.5544 124.162 36.9319 124.162 36.9949V55.6196C124.162 56.123 124.477 56.123 124.603 56.123C125.609 56.123 127.749 56.123 129.447 56.123C134.355 56.123 140.144 53.4173 140.144 45.8668C140.144 38.3162 136.18 36.3027 129.762 36.3027L129.699 36.4286ZM129.322 53.5432C128.567 53.5432 127.749 53.5432 127.182 53.5432V39.26C127.937 39.26 128.755 39.26 129.636 39.26C134.23 39.26 136.998 41.8398 136.998 46.1185C136.998 50.9005 134.167 53.6061 129.322 53.6061V53.5432Z" fill="white"/>
<path d="M151.345 45.0492L150.087 44.5459C147.507 43.4133 146.941 42.4694 146.941 41.4627C146.941 40.456 147.193 39.0088 150.465 39.0088C153.736 39.0088 153.611 39.3234 154.554 39.9526C154.617 39.9526 154.743 40.0155 154.806 40.0155C155.058 40.0155 155.247 39.8268 155.247 39.5751V37.6245C155.247 37.4987 155.247 37.247 154.932 37.0582C153.988 36.5548 152.352 36.2402 150.528 36.2402C146.563 36.2402 143.984 38.3796 143.984 41.7144C143.984 45.0492 145.368 45.9301 148.577 47.3144L149.835 47.8178C152.541 49.0133 153.044 49.9571 153.044 51.0897C153.044 52.7886 151.723 53.7953 149.269 53.7953C146.815 53.7953 145.808 53.2919 144.487 52.411C144.424 52.3481 144.298 52.2852 144.172 52.2852C143.921 52.2852 143.795 52.4739 143.795 52.7256V54.802C143.795 54.9279 143.795 55.3054 144.11 55.4312C145.368 56.1863 147.193 56.5638 149.143 56.5638C153.296 56.5638 156.002 54.3616 156.002 50.9009C156.002 47.4402 154.554 46.5593 151.22 45.1751L151.345 45.0492Z" fill="white"/>
<path d="M47.7753 29.5069C47.7753 28.1226 47.7753 26.2979 47.7124 25.417C48.0899 26.6125 49.7258 30.9541 50.4809 32.9047H51.1101C52.1168 30.3878 53.7528 26.4867 54.0674 25.417C54.0674 26.235 54.0674 27.6822 54.0674 29.2552V32.9047H54.6966V24.9766H53.8157C52.6831 27.6193 51.1101 31.5833 50.9213 32.1496C50.6067 31.2687 49.2854 27.6822 48.1528 24.9766H47.209V32.9047H47.8382V29.5069H47.7753Z" fill="white"/>
<path d="M62.1216 32.3384H57.7171V29.0035H61.7441V28.4372H57.7171V25.5429H61.9328V24.9766H57.0879V32.9047H62.0587L62.1216 32.3384Z" fill="white"/>
<path d="M64.4495 29.1927C64.4495 27.7455 64.4495 26.6129 64.4495 25.5433C65.0158 26.4242 67.9731 31.0174 69.1686 32.8422H69.9866V24.9141H69.3574V28.5006C69.3574 29.8219 69.3574 30.9545 69.3574 32.0871C68.854 31.2062 65.9596 26.8017 64.7012 24.9141H63.8203V32.8422H64.4495V29.1298V29.1927Z" fill="white"/>
<path d="M73.0715 30.1361H76.4063L77.4131 32.9047H78.1052L75.085 24.9766H74.3299L71.4355 32.9047H72.0648L73.0715 30.1361ZM74.7075 25.5429C74.8962 26.0462 75.3367 27.1788 76.2176 29.5698H73.3232C74.0153 27.5563 74.5187 26.1721 74.7704 25.5429H74.7075Z" fill="white"/>
<path d="M85.6536 32.9665C87.2896 32.9665 87.9188 32.1485 88.2334 31.5822C88.2334 32.3373 88.2334 32.7777 88.2963 32.8406H88.7997V28.6878H85.6536V29.2541H88.2334C88.2334 31.0788 87.6671 32.4002 85.7165 32.4002C83.766 32.4002 82.8851 30.7642 82.8851 28.9395C82.8851 27.1148 83.766 25.4159 85.7795 25.4159C87.7929 25.4159 87.9188 26.108 88.2963 27.1777H88.9255C88.6738 25.7305 87.5413 24.8496 85.8424 24.8496C84.1435 24.8496 82.2559 26.6114 82.2559 29.0024C82.2559 31.3934 83.4514 32.9665 85.7165 32.9665H85.6536Z" fill="white"/>
<path d="M90.75 32.9044H91.3163V29.9471C91.3163 28.6258 92.1343 27.8078 93.2669 27.6819V27.0527C92.323 27.0527 91.6309 27.619 91.3163 28.437C91.3163 27.6819 91.3163 27.3673 91.3163 27.1786H90.75C90.75 27.3673 90.75 27.7449 90.75 28.6887V32.8415V32.9044Z" fill="white"/>
<path d="M96.3504 33.0318C97.7347 33.0318 98.3639 32.1509 98.5527 31.4588H97.9864C97.7976 31.8992 97.4201 32.5284 96.3504 32.5284C95.2808 32.5284 94.5257 31.6475 94.5257 30.1374H98.6785C98.6785 30.0116 98.6785 29.8228 98.6785 29.697C98.6785 28.6273 98.1122 27.1172 96.3504 27.1172C94.5886 27.1172 93.8965 28.5015 93.8965 30.1374C93.8965 31.7734 94.5886 33.0318 96.2875 33.0318H96.3504ZM96.4133 27.6206C97.5459 27.6206 98.1122 28.5015 98.1751 29.634H94.5886C94.7145 28.4385 95.2178 27.6206 96.4133 27.6206Z" fill="white"/>
<path d="M102.266 27.1172C100.63 27.1172 99.8125 28.5015 99.8125 30.1374C99.8125 31.7734 100.505 33.0318 102.204 33.0318C103.902 33.0318 104.217 32.1509 104.406 31.4588H103.839C103.651 31.8992 103.273 32.5284 102.204 32.5284C101.134 32.5284 100.379 31.6475 100.379 30.1374H104.532C104.532 30.0116 104.532 29.8228 104.532 29.697C104.532 28.6273 103.965 27.1172 102.204 27.1172H102.266ZM100.442 29.634C100.568 28.4385 101.071 27.6206 102.266 27.6206C103.462 27.6206 103.965 28.5015 104.028 29.634H100.442Z" fill="white"/>
<path d="M106.607 32.906V30.0116C106.607 28.7531 107.048 27.6835 108.432 27.6835C109.816 27.6835 109.816 28.3127 109.816 29.3194V32.906H110.383V29.2565C110.383 27.6835 109.502 27.1172 108.495 27.1172C107.488 27.1172 106.859 27.7464 106.607 28.3127C106.607 28.1239 106.607 27.4318 106.607 27.243H106.041C106.041 27.6835 106.041 28.1869 106.041 28.6902V32.906H106.607Z" fill="white"/>
<path d="M119.507 28.6264C120.136 28.4377 120.702 27.8084 120.702 26.8646C120.702 25.9208 119.884 24.9141 118.374 24.9141H115.605V32.8422H118.437C119.821 32.8422 121.017 32.15 121.017 30.577C121.017 29.004 120.073 28.7523 119.507 28.6264ZM116.172 25.5433H118.374C119.507 25.5433 120.01 26.1725 120.01 26.9905C120.01 27.8084 119.507 28.4377 118.122 28.4377H116.172V25.6062V25.5433ZM118.437 32.3388H116.235V28.941H118.122C119.695 28.941 120.387 29.6332 120.387 30.6399C120.387 31.6466 119.507 32.3388 118.5 32.3388H118.437Z" fill="white"/>
<path d="M126.238 31.8984C126.238 32.3388 126.238 32.7163 126.238 32.9051H126.804C126.804 32.7163 126.804 31.8354 126.804 31.2692V27.2422H126.238V30.1366C126.238 31.7725 125.734 32.4647 124.476 32.4647C123.218 32.4647 123.092 31.6467 123.092 30.8287V27.2422H122.525V31.0175C122.525 32.7793 123.595 33.0939 124.413 33.0939C125.231 33.0939 125.986 32.6534 126.238 31.9613V31.8984Z" fill="white"/>
<path d="M129.322 24.5352H128.756V25.6048H129.322V24.5352Z" fill="white"/>
<path d="M129.322 27.2422H128.756V32.9051H129.322V27.2422Z" fill="white"/>
<path d="M131.84 24.5352H131.273V32.9037H131.84V24.5352Z" fill="white"/>
<path d="M135.676 33.0295C136.683 33.0295 137.312 32.652 137.564 31.9599C137.564 32.2745 137.564 32.7779 137.564 32.9037H138.13C138.13 32.3374 138.13 31.834 138.13 31.2677V24.5352H137.564V27.9329C137.375 27.5554 136.935 27.052 135.802 27.052C134.669 27.052 133.285 28.3734 133.285 30.0722C133.285 31.7711 134.166 32.9666 135.613 32.9666L135.676 33.0295ZM135.802 27.6183C137.249 27.6183 137.627 28.4363 137.627 29.9464C137.627 31.4565 137.249 32.5262 135.739 32.5262C134.229 32.5262 133.977 31.7082 133.977 30.1352C133.977 28.5621 134.732 27.6812 135.865 27.6812L135.802 27.6183Z" fill="white"/>
<path d="M140.711 24.5352H140.145V25.6048H140.711V24.5352Z" fill="white"/>
<path d="M140.711 27.2422H140.145V32.9051H140.711V27.2422Z" fill="white"/>
<path d="M146.435 29.3194V32.906H147.002V29.2565C147.002 27.6835 146.121 27.1172 145.114 27.1172C144.107 27.1172 143.478 27.7464 143.226 28.3127C143.226 28.1239 143.226 27.4318 143.226 27.243H142.66C142.66 27.6835 142.66 28.1869 142.66 28.6902V32.906H143.226V30.0116C143.226 28.7531 143.667 27.6835 145.051 27.6835C146.435 27.6835 146.435 28.3127 146.435 29.3194Z" fill="white"/>
<path d="M150.842 32.906C151.849 32.906 152.415 32.5284 152.729 31.7734V32.3397C152.729 33.7868 152.352 34.7307 150.842 34.7307C149.332 34.7307 149.395 34.3531 149.206 33.5981H148.64C148.765 34.479 149.395 35.297 150.842 35.297C152.289 35.297 153.296 34.3531 153.296 32.5284V28.879C153.296 28.3127 153.296 27.4318 153.296 27.243H152.792C152.792 27.3689 152.792 27.7464 152.792 28.1239C152.604 27.6835 152.163 27.1172 150.968 27.1172C149.772 27.1172 148.514 28.1869 148.514 30.0745C148.514 31.9621 149.52 32.906 150.842 32.906ZM150.968 27.6206C152.352 27.6206 152.792 28.4385 152.792 29.9486C152.792 31.4588 152.352 32.3397 150.968 32.3397C149.583 32.3397 149.143 31.3958 149.143 30.0116C149.143 28.6273 149.646 27.6206 150.968 27.6206Z" fill="white"/>
<path d="M25.124 7.54643L3.54198 0.625082C2.84984 0.373397 2.15771 0.49924 1.65434 0.876768C1.08804 1.2543 0.773438 1.88351 0.773438 2.57564V41.8386C0.773438 43.4745 2.09479 44.8588 3.79366 44.8588H4.8004V45.6768C4.8004 47.3127 6.12175 48.697 7.82063 48.697H8.82737V49.4521C8.82737 50.27 9.14198 51.0251 9.70827 51.5914C10.2746 52.1577 11.0296 52.4723 11.8476 52.4723H12.7914V53.2903C12.7914 54.9262 14.1128 56.3105 15.8116 56.3105H28.6476V12.0768C28.6476 10.0004 27.3262 8.11272 25.3128 7.48351L25.124 7.54643ZM8.76445 47.3756H7.75771C6.81389 47.3756 5.99591 46.6206 5.99591 45.6138V44.7959H8.76445V47.3127V47.3756ZM12.6656 51.2138H11.7218C11.2813 51.2138 10.8409 51.0251 10.4633 50.7105C10.0858 50.3959 9.95996 49.9554 9.95996 49.4521V48.697H12.6656V51.2138ZM11.5959 21.3891C10.9667 21.2004 10.2746 21.3891 9.77119 21.7667C9.26782 22.1442 8.95321 22.7734 8.95321 23.4026L8.76445 43.6004H5.99591V9.74868C5.99591 9.49699 6.12175 9.24531 6.31052 9.05654C6.49928 8.86778 6.81389 8.86778 7.06557 8.9307L14.1128 11.1329C15.6229 11.5734 16.6296 12.9577 16.6296 14.5307V22.7734L11.5959 21.452V21.3891ZM21.4116 48.6341V36.2386C22.7959 36.7419 23.6768 38.0633 23.6768 39.5734V51.2138H13.924V48.697H21.4116V48.6341ZM27.2004 54.9891H15.6229C14.6791 54.9891 13.8611 54.2341 13.8611 53.2273V52.4094H24.8723V39.5105C24.8723 37.3082 23.4251 35.4206 21.3487 34.8543V27.6183C21.3487 25.479 19.9015 23.5285 17.8251 22.9622V14.4049C17.8251 12.2655 16.4409 10.4408 14.4274 9.8116L7.38018 7.60935C6.75097 7.42059 6.05883 7.54643 5.49254 7.92396C4.92625 8.30149 4.61164 8.9307 4.61164 9.62284V43.4745H3.6049C2.66108 43.4745 1.8431 42.7195 1.8431 41.7127V2.63857C1.8431 2.38688 1.96894 2.13519 2.22063 1.94643C2.47231 1.75767 2.724 1.75767 2.97568 1.82059L24.6206 8.74194C26.0678 9.24531 27.0746 10.5667 27.0746 12.1397V54.9891H27.2004Z" fill="white"/>
</g>
<defs>
<clipPath id="clip0_10754_26064">
<rect width="155.353" height="56" fill="white" transform="translate(0.773438 0.5)"/>
</clipPath>
</defs>
</svg>