<?xml version="1.0" encoding="utf-8"?>
<svg xmlns="http://www.w3.org/2000/svg" width="163" height="56" viewBox="0 0 163 56" fill="none">
<g clip-path="url(#clip0_10798_13162)">
<mask id="mask0_10798_13162" style="mask-type:luminance" maskUnits="userSpaceOnUse" x="1" y="0" width="197" height="56">
<path d="M198 0H1V56H198V0Z" fill="white"/>
</mask>
<g mask="url(#mask0_10798_13162)">
<path d="M4.32617 52.2597V45.6644H6.55466C7.06992 45.6644 7.49286 45.7524 7.82348 45.9284C8.1541 46.1024 8.39885 46.3418 8.55772 46.6466C8.7166 46.9515 8.79602 47.2982 8.79602 47.6867C8.79602 48.0754 8.7166 48.4199 8.55772 48.7205C8.39885 49.0211 8.15517 49.2572 7.8267 49.429C7.49822 49.5986 7.0785 49.6834 6.56754 49.6834H4.76413V48.9621H6.54177C6.89387 48.9621 7.17726 48.9106 7.39195 48.8075C7.60879 48.7044 7.76551 48.5584 7.86213 48.3695C7.96088 48.1784 8.01026 47.9508 8.01026 47.6867C8.01026 47.4227 7.96088 47.1919 7.86213 46.9944C7.76337 46.7969 7.60557 46.6445 7.38873 46.5371C7.1719 46.4276 6.88528 46.3729 6.52889 46.3729H5.12482V52.2597H4.32617ZM7.43059 49.297L9.05366 52.2597H8.12619L6.52889 49.297H7.43059ZM10.1268 52.2597V45.6644H14.1072V46.3729H10.9255V48.6013H13.9011V49.3098H10.9255V51.5512H14.1587V52.2597H10.1268ZM15.8172 52.2597H14.9799L17.4016 45.6644H18.2261L20.6478 52.2597H19.8105L17.8396 46.7078H17.7881L15.8172 52.2597ZM16.1264 49.6834H19.5013V50.3919H16.1264V49.6834ZM21.675 52.2597V45.6644H22.4737V51.5512H25.5395V52.2597H21.675ZM29.3266 52.2597V45.6644H33.307V46.3729H30.1253V48.6013H33.1009V49.3098H30.1253V51.5512H33.3585V52.2597H29.3266ZM38.3533 47.3132C38.3146 46.9869 38.1579 46.7335 37.8831 46.5532C37.6083 46.3729 37.2713 46.2827 36.8719 46.2827C36.58 46.2827 36.3245 46.3299 36.1055 46.4244C35.8887 46.5189 35.719 46.6488 35.5967 46.8141C35.4765 46.9793 35.4163 47.1672 35.4163 47.3776C35.4163 47.5537 35.4582 47.705 35.5419 47.8317C35.6278 47.9562 35.7373 48.0603 35.8704 48.144C36.0035 48.2257 36.1431 48.2933 36.2891 48.3469C36.435 48.3985 36.5692 48.4403 36.6916 48.4725L37.3614 48.6529C37.5332 48.698 37.7243 48.7603 37.9346 48.8397C38.1472 48.9191 38.3501 49.0275 38.5433 49.1649C38.7387 49.3002 38.8997 49.4741 39.0263 49.6866C39.153 49.8992 39.2164 50.16 39.2164 50.4691C39.2164 50.8256 39.123 51.1476 38.9362 51.4353C38.7515 51.7229 38.481 51.9516 38.1247 52.1212C37.7704 52.2908 37.34 52.3756 36.8333 52.3756C36.361 52.3756 35.952 52.2994 35.6063 52.147C35.2628 51.9946 34.9923 51.782 34.7948 51.5093C34.5994 51.2367 34.4889 50.92 34.4631 50.5594H35.2875C35.3089 50.8084 35.3927 51.0145 35.5387 51.1777C35.6868 51.3387 35.8736 51.4589 36.099 51.5383C36.3266 51.6156 36.5713 51.6542 36.8333 51.6542C37.1381 51.6542 37.4119 51.6049 37.6544 51.5062C37.8971 51.4052 38.0892 51.2657 38.2309 51.0875C38.3726 50.9071 38.4435 50.6967 38.4435 50.4563C38.4435 50.2373 38.3822 50.0591 38.2599 49.9217C38.1375 49.7843 37.9765 49.6727 37.7769 49.5868C37.5772 49.5009 37.3614 49.4258 37.1295 49.3613L36.318 49.1295C35.8027 48.9813 35.3949 48.7699 35.0943 48.4951C34.7937 48.2203 34.6434 47.8607 34.6434 47.4162C34.6434 47.047 34.7433 46.7249 34.9429 46.4502C35.1448 46.1732 35.4153 45.9585 35.7545 45.8061C36.0958 45.6515 36.4769 45.5742 36.8977 45.5742C37.3228 45.5742 37.7006 45.6505 38.0313 45.8029C38.3618 45.9532 38.6238 46.1593 38.817 46.4212C39.0124 46.6831 39.1154 46.9805 39.1261 47.3132H38.3533ZM40.1688 46.3729V45.6644H45.1152V46.3729H43.0413V52.2597H42.2427V46.3729H40.1688ZM45.8478 52.2597H45.0105L47.4323 45.6644H48.2567L50.6784 52.2597H49.8411L47.8702 46.7078H47.8187L45.8478 52.2597ZM46.157 49.6834H49.532V50.3919H46.157V49.6834ZM50.5745 46.3729V45.6644H55.521V46.3729H53.4471V52.2597H52.6484V46.3729H50.5745ZM56.7536 52.2597V45.6644H60.734V46.3729H57.5522V48.6013H60.5278V49.3098H57.5522V51.5512H60.7855V52.2597H56.7536ZM64.3633 46.3729V45.6644H69.3098V46.3729H67.2359V52.2597H66.4372V46.3729H64.3633ZM69.9756 45.6644H70.8902L72.7194 48.743H72.7966L74.6258 45.6644H75.5404L73.1573 49.5417V52.2597H72.3586V49.5417L69.9756 45.6644ZM81.5705 47.7254H80.7718C80.7246 47.4957 80.6419 47.2939 80.5239 47.12C80.4079 46.9461 80.2662 46.8001 80.0988 46.682C79.9335 46.5618 79.7499 46.4717 79.5481 46.4115C79.3463 46.3514 79.1359 46.3214 78.9169 46.3214C78.5176 46.3214 78.1558 46.4222 77.8317 46.6241C77.5096 46.8259 77.2531 47.1232 77.062 47.5161C76.8731 47.909 76.7786 48.391 76.7786 48.9621C76.7786 49.5331 76.8731 50.0151 77.062 50.408C77.2531 50.8009 77.5096 51.0982 77.8317 51.3C78.1558 51.5018 78.5176 51.6027 78.9169 51.6027C79.1359 51.6027 79.3463 51.5727 79.5481 51.5126C79.7499 51.4524 79.9335 51.3633 80.0988 51.2453C80.2662 51.125 80.4079 50.978 80.5239 50.8041C80.6419 50.6281 80.7246 50.4262 80.7718 50.1986H81.5705C81.5103 50.5357 81.4009 50.8374 81.242 51.1036C81.0831 51.3698 80.8856 51.5963 80.6495 51.7831C80.4133 51.9677 80.1482 52.1083 79.8541 52.2049C79.5621 52.3016 79.2497 52.3499 78.9169 52.3499C78.3545 52.3499 77.8542 52.2125 77.4162 51.9377C76.9783 51.6629 76.6337 51.2721 76.3825 50.7654C76.1313 50.2588 76.0057 49.6576 76.0057 48.9621C76.0057 48.2665 76.1313 47.6653 76.3825 47.1587C76.6337 46.6519 76.9783 46.2612 77.4162 45.9864C77.8542 45.7117 78.3545 45.5742 78.9169 45.5742C79.2497 45.5742 79.5621 45.6225 79.8541 45.7191C80.1482 45.8158 80.4133 45.9575 80.6495 46.1443C80.8856 46.3288 81.0831 46.5543 81.242 46.8205C81.4009 47.0846 81.5103 47.3862 81.5705 47.7254ZM88.4258 48.9621C88.4258 49.6576 88.3005 50.2588 88.0489 50.7654C87.7982 51.2721 87.453 51.6629 87.015 51.9377C86.577 52.2125 86.0771 52.3499 85.5145 52.3499C84.9519 52.3499 84.452 52.2125 84.014 51.9377C83.576 51.6629 83.2316 51.2721 82.9801 50.7654C82.7293 50.2588 82.6031 49.6576 82.6031 48.9621C82.6031 48.2665 82.7293 47.6653 82.9801 47.1587C83.2316 46.6519 83.576 46.2612 84.014 45.9864C84.452 45.7117 84.9519 45.5742 85.5145 45.5742C86.0771 45.5742 86.577 45.7117 87.015 45.9864C87.453 46.2612 87.7982 46.6519 88.0489 47.1587C88.3005 47.6653 88.4258 48.2665 88.4258 48.9621ZM87.653 48.9621C87.653 48.391 87.5577 47.909 87.3665 47.5161C87.1777 47.1232 86.9206 46.8259 86.5968 46.6241C86.2747 46.4222 85.9136 46.3214 85.5145 46.3214C85.1154 46.3214 84.7535 46.4222 84.429 46.6241C84.1076 46.8259 83.8505 47.1232 83.6601 47.5161C83.4704 47.909 83.376 48.391 83.376 48.9621C83.376 49.5331 83.4704 50.0151 83.6601 50.408C83.8505 50.8009 84.1076 51.0982 84.429 51.3C84.7535 51.5018 85.1154 51.6027 85.5145 51.6027C85.9136 51.6027 86.2747 51.5018 86.5968 51.3C86.9206 51.0982 87.1777 50.8009 87.3665 50.408C87.5577 50.0151 87.653 49.5331 87.653 48.9621ZM95.3332 48.9621C95.3332 49.6576 95.2078 50.2588 94.9571 50.7654C94.7056 51.2721 94.3612 51.6629 93.9232 51.9377C93.4852 52.2125 92.9845 52.3499 92.4227 52.3499C91.8601 52.3499 91.3594 52.2125 90.9214 51.9377C90.4834 51.6629 90.139 51.2721 89.8882 50.7654C89.6367 50.2588 89.5113 49.6576 89.5113 48.9621C89.5113 48.2665 89.6367 47.6653 89.8882 47.1587C90.139 46.6519 90.4834 46.2612 90.9214 45.9864C91.3594 45.7117 91.8601 45.5742 92.4227 45.5742C92.9845 45.5742 93.4852 45.7117 93.9232 45.9864C94.3612 46.2612 94.7056 46.6519 94.9571 47.1587C95.2078 47.6653 95.3332 48.2665 95.3332 48.9621ZM94.5603 48.9621C94.5603 48.391 94.4651 47.909 94.2739 47.5161C94.085 47.1232 93.8287 46.8259 93.5042 46.6241C93.182 46.4222 92.8218 46.3214 92.4227 46.3214C92.0227 46.3214 91.6609 46.4222 91.3372 46.6241C91.015 46.8259 90.7587 47.1232 90.5675 47.5161C90.3786 47.909 90.2842 48.391 90.2842 48.9621C90.2842 49.5331 90.3786 50.0151 90.5675 50.408C90.7587 50.8009 91.015 51.0982 91.3372 51.3C91.6609 51.5018 92.0227 51.6027 92.4227 51.6027C92.8218 51.6027 93.182 51.5018 93.5042 51.3C93.8287 51.0982 94.085 50.8009 94.2739 50.408C94.4651 50.0151 94.5603 49.5331 94.5603 48.9621ZM101.907 45.6644V52.2597H101.134L97.5391 47.0814H97.4749V52.2597H96.6766V45.6644H97.4495L101.056 50.8557H101.12V45.6644H101.907ZM106.326 52.2597H105.488L107.91 45.6644H108.735L111.156 52.2597H110.318L108.348 46.7078H108.297L106.326 52.2597ZM106.634 49.6834H110.01V50.3919H106.634V49.6834ZM112.868 52.2597L111.064 45.6644H111.876L113.254 51.0359H113.319L114.722 45.6644H115.624L117.028 51.0359H117.092L118.471 45.6644H119.283L117.479 52.2597H116.654L115.199 47.0041H115.148L113.692 52.2597H112.868ZM120.035 52.2597H119.197L121.619 45.6644H122.443L124.865 52.2597H124.028L122.057 46.7078H122.005L120.035 52.2597ZM120.343 49.6834H123.718V50.3919H120.343V49.6834ZM125.892 52.2597V45.6644H128.12C128.636 45.6644 129.059 45.7524 129.389 45.9284C129.72 46.1024 129.965 46.3418 130.124 46.6466C130.283 46.9515 130.362 47.2982 130.362 47.6867C130.362 48.0754 130.283 48.4199 130.124 48.7205C129.965 49.0211 129.721 49.2572 129.392 49.429C129.064 49.5986 128.645 49.6834 128.134 49.6834H126.33V48.9621H128.108C128.46 48.9621 128.743 48.9106 128.958 48.8075C129.175 48.7044 129.331 48.5584 129.428 48.3695C129.527 48.1784 129.577 47.9508 129.577 47.6867C129.577 47.4227 129.527 47.1919 129.428 46.9944C129.33 46.7969 129.172 46.6445 128.955 46.5371C128.738 46.4276 128.451 46.3729 128.095 46.3729H126.691V52.2597H125.892ZM128.997 49.297L130.62 52.2597H129.692L128.095 49.297H128.997ZM133.728 52.2597H131.693V45.6644H133.819C134.458 45.6644 135.006 45.7964 135.461 46.0605C135.916 46.3224 136.265 46.6992 136.508 47.1908C136.75 47.6803 136.871 48.2665 136.871 48.9492C136.871 49.6362 136.749 50.2277 136.505 50.7236C136.259 51.2174 135.903 51.5973 135.435 51.8636C134.967 52.1276 134.398 52.2597 133.728 52.2597ZM132.492 51.5512H133.677C134.222 51.5512 134.674 51.446 135.033 51.2356C135.391 51.0252 135.658 50.7258 135.834 50.3371C136.01 49.9485 136.098 49.4859 136.098 48.9492C136.098 48.4168 136.012 47.9584 135.837 47.5741C135.663 47.1876 135.404 46.8913 135.058 46.6853C134.713 46.477 134.282 46.3729 133.767 46.3729H132.492V51.5512ZM140.646 52.2597V51.68L142.822 49.297C143.078 49.0178 143.288 48.7753 143.454 48.5692C143.619 48.3609 143.741 48.1655 143.821 47.983C143.902 47.7984 143.944 47.6052 143.944 47.4034C143.944 47.1715 143.887 46.9708 143.775 46.8012C143.666 46.6316 143.516 46.5006 143.325 46.4083C143.133 46.316 142.919 46.2698 142.681 46.2698C142.427 46.2698 142.207 46.3224 142.018 46.4276C141.831 46.5307 141.686 46.6756 141.583 46.8624C141.482 47.0492 141.431 47.2681 141.431 47.5193H140.671C140.671 47.1329 140.76 46.7937 140.939 46.5017C141.117 46.2097 141.359 45.9822 141.666 45.819C141.976 45.6558 142.322 45.5742 142.707 45.5742C143.093 45.5742 143.436 45.6558 143.734 45.819C144.032 45.9822 144.267 46.2022 144.436 46.4791C144.605 46.7561 144.69 47.0642 144.69 47.4034C144.69 47.646 144.647 47.8832 144.559 48.1151C144.472 48.3448 144.322 48.6013 144.107 48.8848C143.895 49.166 143.6 49.5095 143.222 49.9153L141.741 51.4997V51.5512H144.806V52.2597H140.646ZM148.287 52.3499C147.802 52.3499 147.389 52.2178 147.048 51.9538C146.707 51.6876 146.445 51.3022 146.265 50.7976C146.084 50.291 145.995 49.6791 145.995 48.9621C145.995 48.2493 146.084 47.6406 146.265 47.1361C146.448 46.6294 146.71 46.243 147.051 45.9768C147.395 45.7084 147.806 45.5742 148.287 45.5742C148.768 45.5742 149.18 45.7084 149.521 45.9768C149.865 46.243 150.127 46.6294 150.307 47.1361C150.489 47.6406 150.58 48.2493 150.58 48.9621C150.58 49.6791 150.49 50.291 150.31 50.7976C150.13 51.3022 149.869 51.6876 149.527 51.9538C149.186 52.2178 148.773 52.3499 148.287 52.3499ZM148.287 51.6414C148.768 51.6414 149.142 51.4095 149.408 50.9458C149.674 50.4821 149.808 49.8208 149.808 48.9621C149.808 48.391 149.746 47.9047 149.624 47.5032C149.504 47.1018 149.33 46.7958 149.102 46.5854C148.877 46.375 148.605 46.2698 148.287 46.2698C147.811 46.2698 147.438 46.5049 147.17 46.9751C146.902 47.4431 146.768 48.1054 146.768 48.9621C146.768 49.5331 146.828 50.0184 146.948 50.4176C147.068 50.817 147.241 51.1208 147.466 51.329C147.694 51.5373 147.967 51.6414 148.287 51.6414ZM154.123 45.6644V52.2597H153.324V46.5017H153.285L151.675 47.5708V46.7593L153.324 45.6644H154.123ZM156.225 52.2597L159.176 46.4244V46.3729H155.775V45.6644H160V46.4115L157.063 52.2597H156.225Z" fill="white"/>
<path fill-rule="evenodd" clip-rule="evenodd" d="M150.553 27.4484H150.173C150.173 27.4484 150.077 27.4484 150.077 27.2579C150.077 27.0674 150.077 27.0674 150.363 27.0674H150.649V26.877H149.982C149.982 26.877 149.696 26.877 149.696 27.1627C149.696 27.1627 149.696 27.2579 149.696 27.3531V27.4484C149.696 27.4484 149.506 27.4484 149.506 27.6389H150.839L150.649 27.4484H150.553Z" fill="white"/>
<path fill-rule="evenodd" clip-rule="evenodd" d="M153.223 28.6852V26.5899C153.223 26.5899 153.223 26.3042 152.937 26.209C152.842 26.209 152.556 26.209 152.461 26.209V29.4471C152.461 29.4471 152.937 29.2566 153.128 29.0661C153.128 29.0661 153.223 28.9709 153.223 28.6852Z" fill="white"/>
<path fill-rule="evenodd" clip-rule="evenodd" d="M132.746 27.3526C132.746 27.4478 132.937 27.5431 133.127 27.5431C133.318 27.5431 133.508 27.5431 133.508 27.3526C133.508 27.1621 133.318 27.1621 133.127 27.1621C132.937 27.1621 132.746 27.1621 132.746 27.3526Z" fill="white"/>
<path fill-rule="evenodd" clip-rule="evenodd" d="M121.031 28.5899V26.4947C121.031 26.4947 121.031 26.3042 120.746 26.209C120.65 26.209 120.365 26.209 120.27 26.209V29.4471C120.27 29.4471 120.65 29.3518 120.841 29.0661C120.841 29.0661 120.936 28.9709 120.936 28.6852L121.031 28.5899Z" fill="white"/>
<path fill-rule="evenodd" clip-rule="evenodd" d="M149.221 30.3057V29.5438C149.221 29.5438 150.364 29.5438 150.745 29.5438C151.03 29.5438 151.697 29.4486 151.792 28.8771V28.4962C151.792 28.4962 151.792 28.2105 151.03 28.2105V28.7819C151.03 28.7819 151.03 29.1629 150.649 29.1629H149.221V28.4009C149.221 28.4009 149.221 28.1152 148.459 28.1152V30.9724C148.459 30.9724 148.745 30.8771 149.03 30.6867C149.03 30.6867 149.221 30.4962 149.221 30.3057Z" fill="white"/>
<path fill-rule="evenodd" clip-rule="evenodd" d="M156.841 28.8781C156.841 28.0209 155.603 28.2114 155.603 28.2114H154.27V28.5923H155.698C156.079 28.5923 156.079 28.9733 156.079 28.9733C156.079 29.259 155.698 29.3542 155.698 29.3542H153.889L153.508 29.7352H156.079C156.746 29.64 156.746 28.9733 156.746 28.9733L156.841 28.8781Z" fill="white"/>
<path fill-rule="evenodd" clip-rule="evenodd" d="M119.698 28.7819V26.4962C119.698 26.2105 119.508 26.1152 119.412 26.1152C119.127 26.1152 118.936 26.1152 118.936 26.1152V28.6867C118.936 29.0676 118.555 29.0676 118.555 29.0676H116.65L116.27 29.4486H118.936C119.603 29.4486 119.603 28.7819 119.603 28.7819H119.698Z" fill="white"/>
<path fill-rule="evenodd" clip-rule="evenodd" d="M110.649 28.4962C110.649 28.4962 110.744 28.4009 110.744 28.1152V26.4009C110.744 26.4009 110.744 26.2105 110.459 26.1152C110.363 26.1152 110.078 26.1152 109.982 26.1152V28.9724C109.982 28.9724 110.363 28.8771 110.649 28.5914V28.4962Z" fill="white"/>
<path fill-rule="evenodd" clip-rule="evenodd" d="M117.888 26.1152C117.793 26.1152 117.507 26.1152 117.412 26.1152V28.9724C117.412 28.9724 117.793 28.8771 118.079 28.5914C118.079 28.5914 118.174 28.4962 118.174 28.2105V26.4962C118.174 26.4962 118.174 26.3057 117.888 26.2105V26.1152Z" fill="white"/>
<path fill-rule="evenodd" clip-rule="evenodd" d="M108.269 28.7819V26.4962C108.269 26.2105 108.078 26.1152 107.983 26.1152C107.697 26.1152 107.507 26.1152 107.507 26.1152V28.6867C107.507 28.6867 107.507 29.1629 107.031 29.0676H104.364V27.9248C104.269 27.639 103.697 27.639 103.697 27.639V29.4486H107.602C108.364 29.4486 108.269 28.7819 108.269 28.7819Z" fill="white"/>
<path fill-rule="evenodd" clip-rule="evenodd" d="M117.983 25.3526H117.602C117.602 25.3526 117.507 25.3527 117.507 25.1622C117.507 24.9717 117.507 24.9717 117.793 24.9717H118.078V24.7813H117.412C117.412 24.7813 117.126 24.7811 117.126 25.0669C117.126 25.0669 117.126 25.1622 117.126 25.2574V25.3526C117.126 25.3526 116.936 25.3526 116.936 25.5431H118.269L118.078 25.3526H117.983Z" fill="white"/>
<path fill-rule="evenodd" clip-rule="evenodd" d="M106.366 27.1632H105.985C105.985 27.1632 105.89 27.1632 105.89 26.9727C105.89 26.7823 105.89 26.7823 106.176 26.7823H106.461V26.5918H105.795C105.795 26.5918 105.509 26.5918 105.509 26.8775C105.509 26.8775 105.509 26.9727 105.509 27.068V27.1632C105.509 27.1632 105.318 27.1632 105.318 27.3537H106.652L106.461 27.1632H106.366Z" fill="white"/>
<path fill-rule="evenodd" clip-rule="evenodd" d="M114.841 29.4485C115.888 29.4485 115.793 28.5913 115.793 28.5913C115.793 27.9246 115.126 27.9246 115.126 27.9246H113.317V28.9723H112.174C112.365 28.9723 112.365 28.6866 112.365 28.6866V26.2104C112.174 25.8294 111.603 25.9246 111.603 25.9246V28.4961C111.603 28.877 111.222 28.877 111.222 28.877H109.412L109.031 29.258H114.079H114.936L114.841 29.4485ZM113.984 28.4008H114.65C115.031 28.4008 115.031 28.6866 115.031 28.6866C115.031 29.0675 114.65 29.0675 114.65 29.0675H113.984V28.4008Z" fill="white"/>
<path fill-rule="evenodd" clip-rule="evenodd" d="M137.697 30.1152V28.4009C137.697 28.4009 137.697 28.2105 137.412 28.1152C137.316 28.1152 137.031 28.1152 136.936 28.1152V30.9724C136.936 30.9724 137.316 30.8771 137.602 30.5914C137.602 30.5914 137.697 30.4962 137.697 30.2105V30.1152Z" fill="white"/>
<path fill-rule="evenodd" clip-rule="evenodd" d="M136.27 28.5899V26.4947C136.27 26.4947 136.27 26.3042 135.984 26.209C135.889 26.209 135.603 26.209 135.508 26.209V29.4471C135.508 29.4471 135.889 29.3518 136.174 29.0661C136.174 29.0661 136.27 28.9709 136.27 28.6852V28.5899Z" fill="white"/>
<path fill-rule="evenodd" clip-rule="evenodd" d="M145.316 27.5431C145.507 27.5431 145.697 27.5431 145.697 27.3526C145.697 27.1621 145.507 27.1621 145.316 27.1621C145.126 27.1621 144.936 27.1621 144.936 27.3526C144.936 27.5431 145.126 27.5431 145.316 27.5431Z" fill="white"/>
<path fill-rule="evenodd" clip-rule="evenodd" d="M134.746 28.6848C134.746 28.0181 134.08 28.0181 134.08 28.0181H132.175C132.175 28.0181 132.175 27.7324 131.413 27.7324V29.161H130.461V28.3038C130.461 28.3038 130.461 28.1134 130.175 28.0181H128.556V28.78C128.556 28.78 128.556 29.161 128.175 29.161H126.651V28.0181C126.651 28.0181 126.651 27.7324 125.984 27.7324V29.5419H128.556C128.556 29.5419 128.842 29.5419 129.032 29.3515C129.032 29.3515 129.222 29.161 129.222 28.9705V28.4943H129.794V29.5419H131.318H133.699C134.746 29.5419 134.651 28.6848 134.651 28.6848H134.746ZM132.27 29.0658V28.3991H133.699C134.08 28.3991 134.08 28.6848 134.08 28.6848C134.08 29.0658 133.699 29.0658 133.699 29.0658H132.27Z" fill="white"/>
<path fill-rule="evenodd" clip-rule="evenodd" d="M138.365 29.4486H141.031C141.698 29.4486 141.698 28.7819 141.698 28.7819V26.4962C141.698 26.2105 141.508 26.1152 141.412 26.1152C141.127 26.1152 140.936 26.1152 140.936 26.1152V28.6867C140.936 29.0676 140.555 29.0676 140.555 29.0676H138.65L138.27 29.4486H138.365Z" fill="white"/>
<path fill-rule="evenodd" clip-rule="evenodd" d="M128.555 30.1143C128.555 30.0191 128.364 29.9238 128.174 29.9238C127.983 29.9238 127.793 29.9238 127.793 30.1143C127.793 30.3048 127.983 30.3048 128.174 30.3048C128.364 30.3048 128.555 30.3048 128.555 30.1143Z" fill="white"/>
<path fill-rule="evenodd" clip-rule="evenodd" d="M143.125 28.6856V26.5904C143.125 26.5904 143.125 26.3999 142.839 26.3047C142.744 26.3047 142.459 26.3047 142.363 26.3047V29.5428C142.363 29.5428 142.744 29.4475 142.935 29.1618C142.935 29.1618 143.03 29.0666 143.03 28.7809L143.125 28.6856Z" fill="white"/>
<path fill-rule="evenodd" clip-rule="evenodd" d="M145.318 29.5444H147.699V28.3063C147.699 28.3063 147.699 27.8301 146.937 27.8301V28.1158H145.032C145.032 28.1158 144.46 28.1158 144.365 28.6872C144.365 28.6872 144.365 29.4491 145.318 29.5444ZM145.508 28.4967H146.937V29.1634H145.508C145.508 29.1634 145.127 29.1634 145.127 28.7825C145.127 28.7825 145.127 28.4967 145.508 28.4967Z" fill="white"/>
<path fill-rule="evenodd" clip-rule="evenodd" d="M127.412 30.1143C127.412 30.0191 127.222 29.9238 127.031 29.9238C126.841 29.9238 126.65 29.9238 126.65 30.1143C126.65 30.3048 126.841 30.3048 127.031 30.3048C127.222 30.3048 127.412 30.3048 127.412 30.1143Z" fill="white"/>
<path fill-rule="evenodd" clip-rule="evenodd" d="M124.839 30.2095V27.9238H123.03C123.03 27.9238 122.459 27.9238 122.363 28.5905C122.363 28.5905 122.363 29.3524 123.316 29.4476H124.173V30.8762C124.935 30.5905 124.935 30.3048 124.935 30.3048L124.839 30.2095ZM123.411 29.0667C123.411 29.0667 123.03 29.0667 123.03 28.6857C123.03 28.6857 123.03 28.4 123.411 28.4H124.078V29.0667H123.411Z" fill="white"/>
<path fill-rule="evenodd" clip-rule="evenodd" d="M140.174 28.3047V26.5904C140.174 26.5904 140.174 26.3999 139.888 26.3047C139.793 26.3047 139.507 26.3047 139.412 26.3047V29.1618C139.412 29.1618 139.793 29.0666 140.079 28.7809C140.079 28.7809 140.174 28.6856 140.174 28.3999V28.3047Z" fill="white"/>
<path fill-rule="evenodd" clip-rule="evenodd" d="M139.222 25.2584C139.222 25.2584 139.222 25.3536 139.222 25.4488V25.5441C139.222 25.5441 139.031 25.5441 139.031 25.7346H140.365L140.174 25.5441H139.793C139.793 25.5441 139.698 25.5441 139.698 25.3536C139.698 25.1631 139.698 25.1631 139.984 25.1631H140.269V24.9727H139.603C139.603 24.9727 139.317 24.9727 139.317 25.2584H139.222Z" fill="white"/>
<path fill-rule="evenodd" clip-rule="evenodd" d="M146.365 27.5431C146.556 27.5431 146.746 27.5431 146.746 27.3526C146.746 27.1621 146.556 27.1621 146.365 27.1621C146.175 27.1621 145.984 27.1621 145.984 27.3526C145.984 27.5431 146.175 27.5431 146.365 27.5431Z" fill="white"/>
<path fill-rule="evenodd" clip-rule="evenodd" d="M155.603 35.6387V34.4006H156.841C156.841 34.4006 156.841 34.0196 156.27 33.9244H155.508V33.6387C155.508 33.6387 154.937 33.6387 154.746 33.9244H154.365V34.4006H154.746V35.6387H155.508H155.603Z" fill="white"/>
<path fill-rule="evenodd" clip-rule="evenodd" d="M135.126 33.4473V33.733H133.221C133.221 33.733 132.65 33.733 132.555 34.4949C132.555 34.4949 132.555 35.352 133.221 35.4473H135.888V33.8282C135.888 33.8282 135.888 33.4473 135.126 33.4473ZM135.126 35.0663H133.698C133.698 35.0663 133.412 35.0663 133.317 34.6854C133.317 34.5901 133.317 34.3044 133.602 34.2092H135.031V35.0663H135.126Z" fill="white"/>
<path fill-rule="evenodd" clip-rule="evenodd" d="M136.555 35.4487H137.221V34.2106H139.031C139.031 34.2106 139.031 33.7344 138.174 33.7344H136.555V35.4487Z" fill="white"/>
<path fill-rule="evenodd" clip-rule="evenodd" d="M120.84 34.7814V32.4957H122.65C123.031 32.4957 123.031 32.7814 123.031 32.7814V34.591C123.031 34.9719 122.65 34.9719 122.65 34.9719H121.031L120.65 35.3529H122.84C123.698 35.3529 123.888 34.9719 123.888 34.591C123.888 34.1148 123.888 32.6862 123.888 32.6862C123.888 32.0195 123.221 32.0195 123.221 32.0195H120.174V35.3529C120.936 35.0672 120.936 34.6862 120.936 34.6862L120.84 34.7814Z" fill="white"/>
<path fill-rule="evenodd" clip-rule="evenodd" d="M115.031 34.5918C115.031 34.5918 115.031 35.068 115.221 35.2585C115.412 35.3537 115.507 35.4489 115.983 35.4489H118.269V33.2585C118.269 33.2585 118.364 32.8775 117.507 32.5918V34.0204H115.602C115.602 34.0204 115.031 34.0204 114.936 34.5918H115.031ZM116.078 34.4013H117.507V35.068C117.507 35.068 117.412 35.068 115.983 35.068C115.888 35.068 115.697 34.9728 115.697 34.687C115.697 34.687 115.697 34.4013 116.078 34.4013Z" fill="white"/>
<path fill-rule="evenodd" clip-rule="evenodd" d="M141.317 33.8306H140.555V33.5449C140.555 33.5449 139.984 33.5449 139.793 33.8306H139.412V34.3068H139.793V35.5449H140.555V34.3068H141.793C141.793 34.3068 141.793 33.9259 141.222 33.8306H141.317Z" fill="white"/>
<path fill-rule="evenodd" clip-rule="evenodd" d="M127.411 34.782C128.077 34.782 127.982 34.2106 127.982 34.2106C127.982 33.7344 127.411 33.7344 127.411 33.7344H124.744V34.9725C124.744 35.3534 125.316 35.3534 125.316 35.3534H127.316C127.887 35.3534 127.982 34.9725 127.982 34.9725H125.411V34.6868H127.411V34.782ZM127.03 34.1153C127.03 34.1153 127.22 34.1153 127.22 34.3058C127.22 34.3058 127.22 34.4963 127.03 34.4963H125.411V34.2106H127.03V34.1153Z" fill="white"/>
<path fill-rule="evenodd" clip-rule="evenodd" d="M150.65 35.5429H151.317V34.3048H153.031C153.031 34.3048 153.317 34.3048 153.222 34.5905V35.5429H153.984V34.4953C153.984 34.4953 153.984 33.9238 153.317 33.9238H150.746V35.5429H150.65Z" fill="white"/>
<path fill-rule="evenodd" clip-rule="evenodd" d="M149.221 34.8757C149.888 34.8757 149.793 34.3043 149.793 34.3043C149.793 33.8281 149.221 33.8281 149.221 33.8281H146.555V35.0662C146.555 35.4472 147.126 35.4472 147.126 35.4472H149.126C149.698 35.4472 149.793 35.0662 149.793 35.0662H147.221V34.7805H149.221V34.8757ZM148.84 34.2091C148.84 34.2091 149.031 34.2091 149.031 34.3996C149.031 34.3996 149.031 34.59 148.84 34.59H147.221V34.3043H148.84V34.2091Z" fill="white"/>
<path fill-rule="evenodd" clip-rule="evenodd" d="M114.461 35.4481V34.591C114.461 34.591 114.461 34.0195 113.794 34.0195H111.223V35.5433H111.889V34.4957H113.604C113.604 34.4957 113.794 34.4957 113.794 34.7814V35.5433H114.556L114.461 35.4481Z" fill="white"/>
<path fill-rule="evenodd" clip-rule="evenodd" d="M104.27 35.4479H106.937L106.556 35.0669H104.746C104.365 35.0669 104.365 34.7812 104.365 34.7812V32.4955C104.365 32.1146 103.604 32.2098 103.604 32.2098V34.7812C103.604 35.4479 104.365 35.4479 104.365 35.4479H104.27Z" fill="white"/>
<path fill-rule="evenodd" clip-rule="evenodd" d="M145.697 35.5424V34.3996C145.697 34.3996 145.697 33.8281 145.03 33.8281H142.363V35.5424H143.125V34.2091C143.125 34.2091 143.697 34.1138 143.697 34.59V35.5424H144.459V34.4948C144.459 34.4948 144.459 34.2091 144.363 34.2091C144.363 34.2091 145.03 34.2091 145.03 34.4948V35.4472H145.792L145.697 35.5424Z" fill="white"/>
<path fill-rule="evenodd" clip-rule="evenodd" d="M131.984 34.6853C131.984 33.8281 131.317 33.8281 131.317 33.8281H128.65V37.1615C129.317 37.1615 129.412 36.7805 129.412 36.7805V35.5424H131.222C132.079 35.5424 131.984 34.6853 131.984 34.6853ZM130.841 34.971H129.412V34.1138H130.936C130.936 34.1138 131.222 34.1138 131.222 34.4948C131.222 34.4948 131.222 34.8757 130.936 34.971H130.841Z" fill="white"/>
<path fill-rule="evenodd" clip-rule="evenodd" d="M109.699 34.0201H107.889C107.889 34.0201 107.223 34.0201 107.223 34.6868C107.223 34.6868 107.223 35.3534 107.889 35.4487H110.461V34.1153C110.461 34.1153 110.461 33.7344 109.699 33.7344V34.0201ZM109.699 35.0677H108.366C108.366 35.0677 107.889 35.0677 107.889 34.6868C107.889 34.5915 107.889 34.401 108.366 34.401H109.604V35.0677H109.699Z" fill="white"/>
<path fill-rule="evenodd" clip-rule="evenodd" d="M122.27 9.44801C122.27 9.44801 123.031 8.20991 123.793 7.82896C123.793 7.82896 123.031 8.59087 123.031 9.25753C123.031 9.25753 123.793 7.9242 124.746 7.44801C124.746 7.44801 123.698 8.40039 123.698 8.97182C123.698 8.97182 124.555 7.82896 125.317 7.44801C125.317 7.44801 124.555 8.11468 124.365 8.6861C124.365 8.6861 125.222 7.63849 126.174 7.25753C126.174 7.25753 125.031 8.20991 124.936 8.59087C124.936 8.59087 126.27 7.44801 127.031 7.25753C127.031 7.25753 126.079 7.9242 125.603 8.49563C125.603 8.49563 127.222 7.35277 128.46 7.35277C128.46 7.35277 126.936 7.73372 126.365 8.30515C126.365 8.30515 127.412 7.82896 129.127 7.9242C129.127 7.9242 124.46 9.35277 125.222 13.448C125.222 13.448 125.603 11.6385 125.793 11.3528C125.793 11.3528 125.793 12.7813 125.984 13.0671C125.984 13.0671 126.174 10.9718 126.365 10.5909C126.365 10.5909 126.46 12.2099 126.555 12.4004C126.555 12.4004 126.746 10.5909 126.936 10.2099C126.936 10.2099 126.936 11.7337 127.031 11.9242C127.031 11.9242 127.317 9.82896 127.508 9.63849C127.508 9.63849 127.508 11.2575 127.508 11.5432C127.508 11.5432 127.889 9.63849 128.174 9.1623C128.174 9.1623 128.079 10.6861 128.174 11.0671C128.174 11.0671 128.555 9.1623 128.841 8.78134C128.841 8.78134 128.65 10.2099 128.841 10.6861C128.841 10.6861 129.222 8.97182 129.508 8.6861L129.793 10.3052H129.508L129.889 11.829H129.603L129.984 13.2575H129.793L130.079 14.7813H129.889L130.174 16.3052H129.984L130.27 17.9242H130.079L130.365 19.3528L127.698 19.7337H130.746V0.400391C130.746 0.400391 130.46 1.25753 130.65 2.40039C130.65 2.40039 130.27 1.73372 130.174 1.35277C130.174 1.35277 130.174 2.30515 130.555 3.06706C130.555 3.06706 129.984 2.20991 129.889 1.9242C129.889 1.9242 129.793 1.9242 130.46 3.73372C130.46 3.73372 129.793 2.87658 129.698 2.59087C129.698 2.59087 129.698 2.87658 130.46 4.40039C130.46 4.40039 129.793 3.63849 129.603 3.1623C129.603 3.1623 129.603 3.82896 130.46 5.06706C130.46 5.06706 129.889 4.59087 129.508 3.82896C129.508 3.82896 129.412 4.01944 130.365 5.63849C130.365 5.63849 129.603 4.78134 129.412 4.49563C129.412 4.49563 129.412 5.06706 130.174 6.20991C130.174 6.20991 126.27 2.6861 123.222 4.40039C123.222 4.40039 124.746 4.11468 125.698 4.40039C125.698 4.40039 124.27 4.59087 123.889 4.87658C123.889 4.87658 125.698 4.59087 126.365 4.6861C126.365 4.6861 125.127 4.87658 124.841 5.1623C124.841 5.1623 126.555 4.87658 127.317 5.1623C127.317 5.1623 126.079 5.25753 125.412 5.54325C125.412 5.54325 127.412 5.44801 128.174 5.63849C128.174 5.63849 126.65 5.63849 126.079 5.82896C126.079 5.82896 128.079 5.82896 128.936 6.01944C128.936 6.01944 127.222 5.9242 126.746 6.20991C126.746 6.20991 128.46 6.11468 129.603 6.49563C129.603 6.49563 128.27 6.30515 127.412 6.49563C127.412 6.49563 129.127 6.6861 129.603 7.06706C129.603 7.06706 123.603 5.73372 122.555 9.63849L122.27 9.44801Z" fill="white"/>
<path fill-rule="evenodd" clip-rule="evenodd" d="M131.222 5.63867C131.126 5.63867 131.031 5.73391 131.031 5.82915V6.59105C131.031 6.68629 131.031 6.78153 131.222 6.78153H131.984C132.079 6.78153 132.174 6.68629 132.174 6.59105V5.82915C132.174 5.73391 132.174 5.63867 131.984 5.63867H131.222Z" fill="white"/>
<path fill-rule="evenodd" clip-rule="evenodd" d="M132.745 6.02028H133.412C133.507 6.02028 133.602 6.02027 133.602 5.8298V5.16313C133.602 5.06789 133.602 4.97266 133.412 4.97266H132.745C132.65 4.97266 132.555 4.97266 132.555 5.16313V5.8298C132.555 5.92504 132.555 6.02028 132.745 6.02028Z" fill="white"/>
<path fill-rule="evenodd" clip-rule="evenodd" d="M134.269 7.73363V6.97173C134.269 6.87649 134.269 6.78125 134.079 6.78125H133.222C133.126 6.78125 133.031 6.87649 133.031 6.97173V7.73363C133.031 7.82887 133.031 7.92411 133.222 7.92411H134.079C134.174 7.92411 134.269 7.82887 134.269 7.73363Z" fill="white"/>
<path fill-rule="evenodd" clip-rule="evenodd" d="M132.938 8.68657V9.35324C132.938 9.44847 132.937 9.54371 133.128 9.54371H133.889C133.984 9.54371 134.079 9.54371 134.079 9.35324V8.68657C134.079 8.59133 134.079 8.49609 133.889 8.49609H133.128C133.033 8.49609 132.938 8.49609 132.938 8.68657Z" fill="white"/>
<path fill-rule="evenodd" clip-rule="evenodd" d="M134.651 10.3996H135.318C135.318 10.3996 135.509 10.3996 135.509 10.2092V9.63774C135.509 9.5425 135.509 9.44727 135.318 9.44727H134.651C134.651 9.44727 134.461 9.44727 134.461 9.63774V10.2092C134.461 10.3044 134.461 10.3996 134.651 10.3996Z" fill="white"/>
<path fill-rule="evenodd" clip-rule="evenodd" d="M135.318 10.878V11.3542C135.318 11.3542 135.318 11.5446 135.414 11.5446H135.985C135.985 11.5446 136.08 11.5446 136.08 11.3542V10.878C136.08 10.878 136.08 10.6875 135.985 10.6875H135.414C135.414 10.6875 135.318 10.6875 135.318 10.878Z" fill="white"/>
<path fill-rule="evenodd" clip-rule="evenodd" d="M136.365 12.591C136.365 12.591 136.46 12.591 136.46 12.4957V12.1148C136.46 12.1148 136.46 12.0195 136.365 12.0195H135.984C135.984 12.0195 135.889 12.0195 135.889 12.1148V12.4957C135.889 12.4957 135.889 12.591 135.984 12.591H136.365Z" fill="white"/>
<path fill-rule="evenodd" clip-rule="evenodd" d="M136.555 13.4478V13.1621H136.27V13.4478H136.555Z" fill="white"/>
<path fill-rule="evenodd" clip-rule="evenodd" d="M134.935 7.44847H135.506C135.506 7.44847 135.697 7.44847 135.697 7.258V6.68657C135.697 6.68657 135.697 6.49609 135.506 6.49609H134.935C134.935 6.49609 134.744 6.49609 134.744 6.68657V7.258C134.744 7.258 134.744 7.44847 134.935 7.44847Z" fill="white"/>
<path fill-rule="evenodd" clip-rule="evenodd" d="M136.174 6.97219V7.44838C136.174 7.44838 136.174 7.54362 136.269 7.54362H136.745C136.745 7.54362 136.841 7.54362 136.841 7.44838V6.97219C136.841 6.97219 136.841 6.87695 136.745 6.87695H136.269C136.269 6.87695 136.174 6.87695 136.174 6.97219Z" fill="white"/>
<path fill-rule="evenodd" clip-rule="evenodd" d="M137.318 7.54446V8.02065C137.318 8.02065 137.318 8.11589 137.414 8.11589H137.89C137.89 8.11589 137.985 8.11589 137.985 8.02065V7.54446C137.985 7.54446 137.985 7.44922 137.89 7.44922H137.414C137.414 7.44922 137.318 7.44922 137.318 7.54446Z" fill="white"/>
<path fill-rule="evenodd" clip-rule="evenodd" d="M138.365 8.30422V8.68517C138.365 8.68517 138.365 8.78041 138.46 8.78041H138.841C138.841 8.78041 138.937 8.78041 138.937 8.68517V8.30422C138.937 8.30422 138.937 8.20898 138.841 8.20898H138.46C138.46 8.20898 138.365 8.20898 138.365 8.30422Z" fill="white"/>
<path d="M139.031 9.16211H139.317V9.44782H139.031V9.16211Z" fill="white"/>
<path fill-rule="evenodd" clip-rule="evenodd" d="M134.079 5.35277H134.651C134.651 5.35277 134.841 5.35277 134.841 5.1623V4.59087C134.841 4.59087 134.841 4.40039 134.651 4.40039H134.079C134.079 4.40039 133.889 4.40039 133.889 4.59087V5.1623C133.889 5.1623 133.889 5.35277 134.079 5.35277Z" fill="white"/>
<path fill-rule="evenodd" clip-rule="evenodd" d="M135.222 4.7819H135.698C135.698 4.7819 135.794 4.7819 135.794 4.68666V4.21047C135.794 4.21047 135.794 4.11523 135.698 4.11523H135.222C135.222 4.11523 135.127 4.11523 135.127 4.21047V4.68666C135.127 4.68666 135.127 4.7819 135.222 4.7819Z" fill="white"/>
<path fill-rule="evenodd" clip-rule="evenodd" d="M136.269 4.39955H136.65C136.65 4.39955 136.745 4.39955 136.745 4.30432V3.92337C136.745 3.92337 136.745 3.82812 136.65 3.82812H136.269C136.269 3.82812 136.174 3.82814 136.174 3.92337V4.30432C136.174 4.30432 136.174 4.39955 136.269 4.39955Z" fill="white"/>
<path fill-rule="evenodd" clip-rule="evenodd" d="M137.318 4.39955H137.699C137.699 4.39955 137.699 4.39955 137.699 4.30432V3.92337V3.82812H137.318C137.318 3.82812 137.318 3.82814 137.318 3.92337V4.30432V4.39955Z" fill="white"/>
<path fill-rule="evenodd" clip-rule="evenodd" d="M138.555 4.4947V4.20898H138.27V4.4947H138.555Z" fill="white"/>
<path fill-rule="evenodd" clip-rule="evenodd" d="M131.222 5.16285H131.888C131.888 5.16285 132.079 5.16285 132.079 4.97238V4.30571C132.079 4.21047 132.079 4.11523 131.888 4.11523H131.222C131.222 4.11523 131.031 4.11523 131.031 4.30571V4.97238C131.031 5.06762 131.031 5.16285 131.222 5.16285Z" fill="white"/>
<path fill-rule="evenodd" clip-rule="evenodd" d="M131.031 3.06594V3.54213C131.031 3.54213 131.031 3.63737 131.126 3.63737H131.603C131.603 3.63737 131.698 3.63737 131.698 3.54213V3.06594C131.698 3.06594 131.698 2.9707 131.603 2.9707H131.126C131.126 2.9707 131.031 2.9707 131.031 3.06594Z" fill="white"/>
<path fill-rule="evenodd" clip-rule="evenodd" d="M131.031 2.01907V2.40002C131.031 2.40002 131.031 2.49526 131.126 2.49526H131.507C131.507 2.49526 131.603 2.49526 131.603 2.40002V2.01907C131.603 2.01907 131.603 1.92383 131.507 1.92383H131.126C131.126 1.92383 131.031 1.92383 131.031 2.01907Z" fill="white"/>
<path fill-rule="evenodd" clip-rule="evenodd" d="M131.127 1.63923H131.413V1.35352H131.127V1.63923Z" fill="white"/>
<path fill-rule="evenodd" clip-rule="evenodd" d="M131.317 0.781343V0.400391H131.127V0.590867H131.317V0.781343Z" fill="white"/>
<path fill-rule="evenodd" clip-rule="evenodd" d="M131.031 7.63923V8.59161C131.031 8.78209 131.126 8.87732 131.317 8.87732H132.269C132.365 8.87732 132.555 8.78209 132.555 8.59161V7.63923C132.555 7.44875 132.46 7.35352 132.269 7.35352H131.317C131.222 7.35352 131.031 7.44875 131.031 7.63923Z" fill="white"/>
<path fill-rule="evenodd" clip-rule="evenodd" d="M131.317 10.8758H132.175C132.27 10.8758 132.365 10.7806 132.365 10.5901V9.73298C132.365 9.63774 132.27 9.44727 132.175 9.44727H131.317C131.222 9.44727 131.127 9.5425 131.127 9.73298V10.5901C131.127 10.6854 131.222 10.8758 131.317 10.8758Z" fill="white"/>
<path fill-rule="evenodd" clip-rule="evenodd" d="M131.031 12.5911C131.031 12.6863 131.031 12.7815 131.222 12.7815H131.984C132.079 12.7815 132.174 12.6863 132.174 12.5911V11.8291C132.174 11.7339 132.174 11.6387 131.984 11.6387H131.222C131.126 11.6387 131.031 11.7339 131.031 11.8291V12.5911Z" fill="white"/>
<path fill-rule="evenodd" clip-rule="evenodd" d="M131.031 14.3039C131.031 14.3992 131.031 14.4944 131.222 14.4944H131.984C132.079 14.4944 132.174 14.4944 132.174 14.3039V13.542C132.174 13.4468 132.174 13.3516 131.984 13.3516H131.222C131.126 13.3516 131.031 13.3516 131.031 13.542V14.3039Z" fill="white"/>
<path fill-rule="evenodd" clip-rule="evenodd" d="M131.126 16.0207H131.793C131.793 16.0207 131.983 16.0207 131.983 15.8303V15.2588C131.983 15.1636 131.983 15.0684 131.793 15.0684H131.126C131.126 15.0684 130.936 15.0684 130.936 15.2588V15.8303C130.936 15.9255 130.936 16.0207 131.126 16.0207Z" fill="white"/>
<path fill-rule="evenodd" clip-rule="evenodd" d="M131.126 17.4485H131.698C131.698 17.4485 131.793 17.4485 131.793 17.258V16.6866C131.793 16.6866 131.793 16.4961 131.698 16.4961H131.126C131.126 16.4961 131.031 16.4961 131.031 16.6866V17.258C131.031 17.258 131.031 17.4485 131.126 17.4485Z" fill="white"/>
<path fill-rule="evenodd" clip-rule="evenodd" d="M131.031 18.6867C131.031 18.6867 131.031 18.7819 131.126 18.7819H131.603C131.603 18.7819 131.698 18.7819 131.698 18.6867V18.2105C131.698 18.2105 131.698 18.1152 131.603 18.1152H131.126C131.126 18.1152 131.031 18.1152 131.031 18.2105V18.6867Z" fill="white"/>
<path fill-rule="evenodd" clip-rule="evenodd" d="M131.126 19.3535C131.126 19.3535 131.031 19.3535 131.031 19.4488V19.8297C131.031 19.8297 131.031 19.9249 131.126 19.9249H131.603C131.603 19.9249 131.698 19.9249 131.698 19.8297V19.4488C131.698 19.4488 131.698 19.3535 131.603 19.3535H131.126Z" fill="white"/>
<path fill-rule="evenodd" clip-rule="evenodd" d="M132.839 19.4473H132.459C132.459 19.4473 132.363 19.4473 132.363 19.5425V19.9235C132.363 19.9235 132.363 20.0187 132.459 20.0187H132.839C132.839 20.0187 132.935 20.0187 132.935 19.9235V19.5425C132.935 19.5425 132.935 19.4473 132.839 19.4473Z" fill="white"/>
<path fill-rule="evenodd" clip-rule="evenodd" d="M133.983 19.543H133.697V19.8287H133.983V19.543Z" fill="white"/>
<path d="M160.459 43.9238H3.31641V44.1143H160.459V43.9238Z" fill="white"/>
<path fill-rule="evenodd" clip-rule="evenodd" d="M35.2214 15.9258L34.5547 17.1639L35.888 18.1163L36.4594 16.7829L35.2214 15.9258Z" fill="white"/>
<path fill-rule="evenodd" clip-rule="evenodd" d="M23.1261 23.1621L22.5547 24.4002L23.7928 25.3526L24.4594 24.0193L23.1261 23.1621Z" fill="white"/>
<path fill-rule="evenodd" clip-rule="evenodd" d="M26.4594 23.7341L25.2214 22.877L24.5547 24.115L25.888 25.0674L26.4594 23.7341Z" fill="white"/>
<path fill-rule="evenodd" clip-rule="evenodd" d="M42.2693 16.21L42.9361 14.8767L41.6027 14.0195L41.0312 15.2576L42.2693 16.21Z" fill="white"/>
<path fill-rule="evenodd" clip-rule="evenodd" d="M43.0312 14.9725L44.3647 15.9249L44.9361 14.5915L43.6979 13.7344L43.0312 14.9725Z" fill="white"/>
<path fill-rule="evenodd" clip-rule="evenodd" d="M11.8878 18.9722C11.9831 19.0674 13.7926 20.6865 18.2688 21.6389C20.2688 22.115 24.0783 21.9246 25.8878 21.6389C27.3164 21.3531 30.5545 20.5912 32.364 19.3531C32.2688 19.5436 32.1736 19.8293 32.0783 20.2103C31.7926 20.7817 31.5069 22.4008 32.0783 22.9722C32.6497 23.5436 33.3164 23.3531 34.364 22.877C35.6021 22.3055 39.6974 19.8293 40.5545 18.877C40.364 19.6389 40.5545 20.5912 40.5545 20.6865C40.5545 21.6389 41.2212 23.3531 42.0783 23.3531C42.9355 23.3531 43.2212 22.115 43.3164 21.9246C43.5069 21.4484 43.6974 20.4008 44.2688 19.2579C44.745 18.2103 45.7926 18.2103 45.7926 18.2103C45.7926 18.2103 46.8402 20.4008 48.364 20.496C49.9831 20.496 50.4593 19.2579 50.6497 19.0674C50.745 18.7817 50.9355 18.7817 50.9355 18.6865H51.0307C51.3164 19.1627 53.1259 20.2103 53.5069 19.8293C53.8878 19.4484 54.1736 18.7817 54.1736 18.5912C54.1736 18.4008 53.7926 16.3055 53.0307 16.2103C52.1735 16.0198 51.4116 17.3531 51.4116 17.3531C51.4116 17.3531 51.3164 17.3531 51.2212 17.3531C51.2212 17.3531 50.6497 18.115 50.5545 18.2103C49.6974 19.3531 48.8402 19.2579 48.8402 19.2579C47.2212 19.2579 46.6497 17.8293 46.6497 17.7341C46.2688 16.9722 46.2688 16.9722 46.1736 16.9722C46.0783 16.9722 45.6021 16.9722 44.8402 17.5436C44.1736 18.115 43.6021 19.7341 43.6021 19.8293C42.745 22.6865 42.364 22.5912 41.9831 22.5912C41.6974 22.5912 41.4116 22.2103 41.1259 21.7341C40.8402 21.2579 40.745 19.9246 40.745 19.3531C40.745 18.877 40.745 18.6865 40.745 18.6865C40.9355 18.3055 41.0307 18.0198 41.0307 17.8293C41.0307 17.7341 41.1259 16.6865 40.6497 16.3055C40.364 16.0198 40.1736 15.9246 39.5069 15.5436C38.9355 15.2579 37.3164 14.4008 36.6497 13.6389L36.364 13.4484H36.8402H37.0307C37.0307 13.4484 37.0307 13.2579 36.8402 13.1627C36.8402 13.1627 35.5069 12.3055 35.1259 12.2103L34.8402 13.6389C34.8402 13.6389 35.1259 13.6389 35.2212 13.7341C35.2212 13.8293 35.8878 14.6865 36.1736 14.9722C36.4593 15.2579 37.4116 16.2103 39.4116 17.0674C40.1735 17.2579 40.364 17.7341 40.364 17.7341C40.364 17.7341 39.5069 18.4008 38.8402 18.877C38.6497 19.0674 35.3164 21.1627 33.8878 21.7341C33.8878 21.7341 32.5545 22.4008 32.1736 21.7341C31.8878 21.2579 31.7926 20.7817 32.364 19.2579C32.364 19.2579 32.364 19.2579 32.364 19.1627C32.6497 18.9722 32.8402 18.7817 33.0307 18.5912C33.0307 18.496 33.7926 17.2579 33.6974 16.877C33.6974 16.4008 33.4116 16.115 33.1259 16.0198C32.8402 16.0198 31.6974 15.6389 31.6021 15.6389C31.6021 15.6389 32.745 14.9722 32.745 13.7341C32.745 12.7817 32.5545 12.496 32.4593 12.3055C32.4593 12.115 31.5069 10.6865 31.5069 10.6865V10.496C31.5069 10.4008 32.1736 10.496 32.1736 10.496C32.1736 10.496 32.1736 10.4008 32.0783 10.2103C32.0783 10.115 30.6497 8.87695 30.6497 8.87695L30.2688 10.3055C30.2688 10.3055 30.5545 10.496 30.5545 10.5912C30.5545 10.5912 30.8402 11.4484 31.0307 11.7341C31.1259 12.0198 31.9831 13.3531 32.1736 13.6389C32.1736 13.6389 32.364 13.8293 32.364 14.2103C32.364 14.2103 31.5069 14.7817 30.4593 14.877H29.7926L29.2212 16.0198C29.2212 16.0198 29.8878 16.3055 29.9831 16.3055C29.9831 16.3055 30.9355 16.6865 31.4116 16.877C31.8878 17.0674 32.6497 17.1627 32.745 17.2579C33.0307 17.3531 33.0307 17.6389 33.0307 17.6389C33.0307 17.6389 31.1259 19.1627 26.8402 20.115C26.4593 20.115 20.745 21.3531 15.6974 19.4484C15.6974 19.4484 13.2212 18.5912 11.5069 17.1627C11.3164 16.9722 9.98307 15.8293 9.98307 15.8293L9.31641 15.0674L9.60212 15.8293C9.60212 15.8293 11.6021 18.877 11.7926 18.9722H11.8878ZM53.1259 18.6865C53.1259 18.6865 52.0783 18.4008 51.8878 17.9246C51.8878 17.9246 52.745 16.877 53.2212 18.6865H53.1259Z" fill="white"/>
<path fill-rule="evenodd" clip-rule="evenodd" d="M25.4121 14.7812C25.4121 14.7812 23.9835 15.3526 23.5073 15.5431L23.4121 15.6383C23.4121 15.6383 25.0312 15.5431 25.4121 15.3526C25.8883 14.9716 26.555 14.0193 26.555 13.8288C26.555 13.7335 26.555 13.6383 26.555 13.6383C26.555 13.6383 26.2693 13.2573 25.3169 13.1621C24.2693 13.1621 24.0788 13.1621 24.0788 13.1621L23.4121 14.305C23.4121 14.305 25.1264 14.305 25.4121 14.4002C25.6026 14.4002 25.4121 14.5907 25.4121 14.5907V14.7812Z" fill="white"/>
<path fill-rule="evenodd" clip-rule="evenodd" d="M33.5063 6.9734L34.0778 5.92578C34.0778 5.92578 27.8873 8.02102 24.5539 9.06864C21.2206 10.2115 16.2682 12.2115 16.2682 12.2115L15.6016 13.4496C15.6016 13.4496 24.0778 10.3067 24.4587 10.2115C24.8397 10.021 33.6968 6.9734 33.6968 6.9734H33.5063Z" fill="white"/>
<path fill-rule="evenodd" clip-rule="evenodd" d="M35.8874 10.0196C35.1255 10.4958 33.2207 11.8291 33.2207 11.8291L33.6969 11.6387C33.9826 11.5434 35.2207 10.7815 36.2683 10.2101C37.3159 9.63867 38.554 7.92439 38.554 7.92439C38.7445 8.01962 39.0302 8.49581 39.0302 8.49581C39.0302 8.40058 39.1255 7.82915 39.1255 7.73391C39.1255 7.63867 38.7445 7.35296 38.7445 7.35296C39.3159 6.01962 38.8398 5.73391 38.7445 5.63867C38.7445 5.63867 38.6493 5.63867 38.554 5.63867C38.3636 5.63867 38.0778 5.82915 37.8874 6.01962C37.5064 6.30534 37.3159 6.59105 37.4112 6.97201C37.4112 7.35296 38.0778 7.82915 38.2683 7.82915C37.9826 8.2101 36.8398 9.25772 35.6969 10.0196H35.8874ZM38.0778 6.59105C37.9826 6.59105 37.9826 6.40058 37.9826 6.40058C38.554 6.01962 38.7445 6.30534 38.8398 6.40058C38.935 6.68629 38.8398 7.16248 38.8398 7.16248C38.8398 7.16248 38.2683 6.68629 38.1731 6.59105H38.0778Z" fill="white"/>
<path fill-rule="evenodd" clip-rule="evenodd" d="M43.89 10.4958C44.9376 9.92433 46.1757 8.21004 46.1757 8.21004C46.3662 8.30528 46.6519 8.78147 46.6519 8.78147C46.6519 8.68623 46.7471 8.1148 46.7471 8.01957C46.7471 7.92433 46.3662 7.63861 46.3662 7.63861C46.9376 6.30528 46.4614 6.01957 46.3662 5.92433C46.0804 5.73385 45.7947 5.92433 45.4138 6.21004C45.0328 6.49576 44.8424 6.78147 44.9376 7.16242C44.9376 7.54338 45.6043 8.01957 45.7947 8.01957C45.509 8.40052 44.3662 9.44814 43.2233 10.21C42.4614 10.6862 40.5566 12.0196 40.5566 12.0196L41.0328 11.8291C41.3185 11.7339 42.5566 10.9719 43.6043 10.4005L43.89 10.4958ZM45.6995 6.97195C45.6043 6.97195 45.6043 6.78147 45.6043 6.78147C46.1757 6.40052 46.3662 6.68623 46.4614 6.78147C46.5566 7.06719 46.4614 7.54338 46.4614 7.54338C46.4614 7.54338 45.89 7.06719 45.7947 6.97195H45.6995Z" fill="white"/>
<path fill-rule="evenodd" clip-rule="evenodd" d="M68.1744 11.1619C67.9839 11.4476 67.0315 12.3047 66.0792 12.9714C65.5077 13.3523 63.8887 14.4 63.8887 14.4C63.8887 14.4 64.2696 14.3047 64.2696 14.2095C64.4601 14.1142 65.5077 13.5428 66.3649 13.0666C67.222 12.5904 68.2696 11.2571 68.2696 11.2571C68.4601 11.2571 68.6506 11.7333 68.6506 11.7333C68.6506 11.7333 68.7458 11.2571 68.7458 11.0666C68.7458 10.8761 68.4601 10.6857 68.4601 10.6857C68.9363 9.63805 68.5553 9.44757 68.4601 9.35234C68.2696 9.16186 67.9839 9.35234 67.6982 9.54281C67.4125 9.73329 67.222 10.019 67.3172 10.3047C67.3172 10.5904 67.8887 10.9714 67.9839 10.9714L68.1744 11.1619ZM68.4601 10.1142C68.5553 10.3047 68.4601 10.6857 68.4601 10.6857L67.9839 10.3047C67.8887 10.3047 67.8887 10.1142 67.8887 10.1142C68.2696 9.82853 68.4601 10.019 68.5553 10.1142H68.4601Z" fill="white"/>
<path fill-rule="evenodd" clip-rule="evenodd" d="M49.8878 8.68583C49.8878 8.68583 50.4593 9.25725 50.6497 10.4001C50.6497 10.4001 50.6497 10.4001 50.745 10.2096C50.745 10.1144 50.745 9.92392 50.9355 9.25725C50.9355 8.59059 51.0307 8.1144 51.3164 8.1144C51.4116 8.1144 51.6974 8.40011 51.6974 8.40011L51.8878 7.92392C51.8878 7.92392 51.5069 7.54297 51.3164 7.54297C51.1259 7.54297 50.9355 7.82868 50.9355 8.01916C50.9355 8.1144 50.745 9.44773 50.745 9.44773V9.73345L50.5545 9.16202C50.2688 7.92392 49.6021 7.73344 49.6021 7.73344C49.6021 7.73344 49.4116 7.73345 49.4116 7.82868L49.3164 8.40011C49.6021 8.49535 49.8878 8.68583 49.8878 8.68583Z" fill="white"/>
<path fill-rule="evenodd" clip-rule="evenodd" d="M61.8886 11.2565C61.8886 11.3517 61.6981 12.6851 61.6981 12.6851V12.9708L61.5076 12.3994C61.2219 11.1613 60.5552 10.9708 60.5552 10.9708C60.5552 10.9708 60.3648 10.9708 60.3648 11.066L60.2695 11.6375C60.5552 11.7327 60.841 11.9232 60.841 11.9232V11.7327C60.841 11.7327 61.4124 12.3041 61.6029 13.447C61.6029 13.447 61.6029 13.447 61.6981 13.2565C61.6981 13.1613 61.6981 12.9708 61.8886 12.3041C62.0791 11.6375 61.9838 11.1613 62.2695 11.1613C62.3648 11.1613 62.6505 11.447 62.6505 11.447L62.841 10.9708C62.841 10.9708 62.46 10.5898 62.2695 10.5898C62.0791 10.5898 61.8886 10.8756 61.8886 11.066V11.2565Z" fill="white"/>
<path fill-rule="evenodd" clip-rule="evenodd" d="M50.1745 14.2091L50.365 13.8281C50.365 13.8281 50.2698 13.8281 50.1745 13.9234C50.1745 13.9234 49.6983 14.4948 49.5079 15.3519C49.3174 16.3043 49.7936 16.3996 49.7936 16.3996C49.7936 16.3996 50.0793 16.59 50.4602 15.8281C50.4602 15.8281 50.5555 15.5424 50.5555 15.4472C50.365 15.5424 50.4602 15.7329 50.365 15.8281C50.2698 15.9234 50.2698 15.9234 50.2698 15.9234C50.2698 15.9234 49.7936 15.9234 49.8888 15.1615C50.0793 14.59 50.1745 14.3996 50.2698 14.1138L50.1745 14.2091Z" fill="white"/>
<path fill-rule="evenodd" clip-rule="evenodd" d="M27.6023 16.4962L27.7927 16.1152C27.7927 16.1152 27.6975 16.1152 27.6023 16.2105C27.6023 16.2105 27.1261 16.7819 26.9356 17.639C26.7451 18.5914 27.2213 18.6867 27.2213 18.6867C27.2213 18.6867 27.507 18.8771 27.888 18.1152C27.888 18.1152 27.9832 17.8295 27.9832 17.7343C27.7927 17.8295 27.888 18.02 27.7927 18.1152C27.6975 18.2105 27.6975 18.2105 27.6975 18.2105C27.6975 18.2105 27.2213 18.2105 27.3166 17.4486C27.507 16.8771 27.6023 16.6867 27.6975 16.4009L27.6023 16.4962Z" fill="white"/>
<path fill-rule="evenodd" clip-rule="evenodd" d="M46.1744 13.449L45.8887 14.1157C45.8887 14.1157 53.603 11.0681 54.1744 10.9728L54.6506 10.2109C54.6506 10.2109 51.5077 11.2586 50.0791 11.83C48.6506 12.3062 46.0791 13.449 46.0791 13.449H46.1744Z" fill="white"/>
<path fill-rule="evenodd" clip-rule="evenodd" d="M59.9834 18.0195C59.9834 18.21 60.0786 18.3052 59.9834 18.4005C59.7929 18.591 58.65 18.9719 58.65 18.9719V18.7814C56.8405 15.6386 55.4119 18.3052 55.4119 18.4005C54.9357 19.4481 55.4119 19.9243 55.4119 19.9243C56.0786 20.8767 57.9834 20.21 57.9834 20.3052L58.1738 20.6862C55.7929 23.3529 53.2215 23.9243 52.8405 23.9243C50.2691 24.1148 50.4595 22.0195 50.5548 21.2576C50.5548 20.591 51.1262 19.0671 51.1262 19.0671L50.9357 19.2576C50.9357 19.2576 50.9357 19.2576 50.8405 19.4481C50.2691 20.4957 50.1738 22.0195 50.1738 22.21C50.1738 25.9243 53.1262 25.8291 55.4119 24.21C57.7929 22.591 58.1738 21.9243 58.4595 21.5433C58.7453 21.1624 58.8405 20.0195 58.8405 20.0195L59.7929 19.6386C59.7929 19.6386 60.3643 19.1624 60.4595 18.3052C60.5548 17.3529 60.2691 16.8767 60.2691 16.8767C60.2691 16.7814 60.9357 17.8291 61.9834 19.2576C63.031 20.6862 64.2691 20.4957 64.2691 20.4957V21.3529H64.4595C64.4595 21.3529 64.4595 21.3529 64.5548 21.1624C64.5548 20.9719 64.65 20.4957 64.65 20.4957H64.9357C66.0786 20.3052 69.1262 18.7814 70.2691 18.4957C70.8405 18.4957 71.5072 18.4957 71.5072 18.4957L72.0786 17.2576C72.0786 17.2576 71.9834 17.2576 71.6024 17.2576C71.1262 17.2576 69.5072 16.8767 67.7929 15.9243C66.0786 15.0671 65.1262 15.2576 65.1262 15.2576C63.4119 15.6386 63.4119 17.5433 63.4119 17.8291C63.4119 18.1148 63.6976 19.1624 63.6976 19.1624H63.5072C62.2691 18.6862 61.5072 17.2576 61.3167 17.0671C60.2691 15.3529 58.0786 13.0671 57.8881 12.7814C57.6976 12.591 55.7929 10.7814 55.7929 10.7814L56.9357 10.21C60.3643 8.78143 63.6976 7.82905 65.4119 7.54334C66.65 7.35286 66.4595 8.21 66.3643 8.30524C66.3643 8.30524 65.6976 9.35286 65.6976 9.4481C65.6976 9.54334 64.9357 11.0671 64.7453 11.4481C64.4595 12.1148 64.5548 12.3052 64.5548 12.3052L64.7453 11.8291C65.1262 11.0671 65.6976 9.82905 66.2691 8.87667C66.65 8.30524 67.031 7.73381 67.1262 6.78143C67.1262 5.82905 64.5548 6.40048 64.4595 6.40048C59.1262 7.63858 55.4119 9.63858 55.4119 9.63858L55.031 10.4005L54.7453 11.3529L55.8881 12.7814C57.5072 14.6862 59.5072 18.0195 59.6024 18.0195H59.9834ZM56.1738 18.9719C56.1738 18.9719 56.1738 18.9719 56.1738 18.8767C56.1738 18.8767 56.3643 18.4957 56.8405 18.591C56.8405 18.591 57.4119 18.7814 57.6024 19.2576C57.6024 19.2576 56.5548 19.3529 56.1738 19.0671V18.9719ZM64.8405 16.591C65.2214 16.4957 65.9834 16.4005 66.8405 16.7814C67.6024 17.1624 68.8405 17.7338 69.031 17.7338C69.1262 17.7338 69.2214 17.7338 69.2214 17.7338C69.2214 17.7338 67.5072 18.3052 67.3167 18.4005C66.2691 18.7814 64.7453 19.0671 64.7453 19.0671C64.7453 19.0671 64.1738 17.2576 64.1738 17.1624C64.1738 17.0671 64.4595 16.591 64.8405 16.4957V16.591Z" fill="white"/>
<path fill-rule="evenodd" clip-rule="evenodd" d="M4.45991 32.3057C4.74563 32.4009 5.12658 32.4962 5.50753 32.4962C5.88849 32.4962 6.07896 32.4962 6.36468 32.4962C6.65039 32.4962 6.93611 32.4009 7.22182 32.3057C7.22182 32.3057 7.22182 32.2105 7.22182 32.1152C7.22182 32.1152 7.22182 31.9248 7.22182 31.8295V31.639C7.22182 31.5438 7.22182 31.4486 7.22182 31.3533C7.22182 31.2581 7.22182 31.1629 7.22182 31.0676C7.22182 30.9724 7.22182 30.8771 7.22182 30.7819C7.22182 30.7819 7.22182 30.6867 7.22182 30.5914C7.22182 30.5914 7.12658 30.5914 7.03134 30.5914C7.03134 30.5914 6.84087 30.5914 6.65039 30.5914C6.45991 30.5914 6.45991 30.5914 6.36468 30.5914C6.36468 30.5914 6.26944 30.5914 6.1742 30.5914C6.1742 30.5914 6.1742 30.7819 6.1742 30.9724C6.1742 31.1629 6.1742 31.3533 6.1742 31.7343C6.1742 32.1152 6.1742 31.9248 6.1742 32.02C6.1742 32.02 6.1742 32.1152 6.1742 32.2105C6.1742 32.2105 6.1742 32.2105 6.07896 32.2105C6.07896 32.2105 5.98372 32.2105 5.88849 32.2105C5.88849 32.2105 5.79325 32.2105 5.69801 32.2105C5.69801 32.2105 5.60277 32.2105 5.50753 32.2105C5.22182 32.2105 5.03134 32.2105 4.84087 32.1152C4.65039 32.1152 4.45991 31.9248 4.36468 31.7343C4.26944 31.5438 4.1742 31.3533 4.07896 31.1629C4.07896 30.9724 3.98372 30.6867 3.98372 30.4009C3.98372 30.1152 3.98372 29.7343 4.07896 29.5438C4.07896 29.2581 4.26944 29.0676 4.45991 28.8771C4.65039 28.6867 4.74563 28.5914 4.9361 28.4962C5.12658 28.4962 5.31706 28.4009 5.50753 28.4009C5.79325 28.4009 6.07896 28.4009 6.26944 28.5914C6.45991 28.6867 6.65039 28.8771 6.74563 29.0676C6.74563 28.9724 6.74563 28.8771 6.74563 28.7819C6.74563 28.6867 6.74563 28.5914 6.84087 28.4962C6.65039 28.4009 6.36468 28.3057 6.1742 28.2105C5.88849 28.2105 5.69801 28.1152 5.31706 28.1152C4.9361 28.1152 4.55515 28.1152 4.26944 28.3057C3.98372 28.4009 3.69801 28.5914 3.4123 28.7819C3.12658 28.9724 3.03134 29.2581 2.84087 29.5438C2.74563 29.8295 2.65039 30.2105 2.65039 30.5914C2.65039 30.9724 2.65039 31.2581 2.84087 31.4486C2.9361 31.7343 3.12658 31.9248 3.4123 32.1152C3.60277 32.3057 3.88849 32.4009 4.1742 32.4962L4.45991 32.3057Z" fill="white"/>
<path fill-rule="evenodd" clip-rule="evenodd" d="M8.55487 31.9253C8.74535 32.1158 9.03106 32.211 9.31678 32.3063C9.60249 32.3063 9.88821 32.4015 10.2692 32.4015C10.6501 32.4015 10.9358 32.4015 11.2215 32.211C11.5072 32.1158 11.793 31.9253 11.9834 31.7348C12.1739 31.5444 12.3644 31.2586 12.4596 30.9729C12.5549 30.6872 12.6501 30.4015 12.6501 30.1158C12.6501 29.8301 12.6501 29.3539 12.4596 29.0682C12.3644 28.7825 12.1739 28.4967 11.9834 28.3063C11.793 28.1158 11.5072 28.0206 11.2215 27.9253C10.9358 27.9253 10.6501 27.8301 10.2692 27.8301C9.88821 27.8301 9.50725 27.8301 9.22154 28.0206C8.93583 28.1158 8.65011 28.3063 8.45964 28.4967C8.26916 28.6872 8.07868 28.9729 7.98345 29.2586C7.88821 29.5444 7.79297 29.8301 7.79297 30.1158C7.79297 30.4015 7.79297 30.8777 7.98345 31.1634C8.07868 31.4491 8.26916 31.7348 8.55487 31.9253ZM9.03106 29.4491C9.03106 29.1634 9.22154 28.9729 9.31678 28.7825C9.41202 28.592 9.60249 28.4967 9.79297 28.3063C9.98344 28.211 10.1739 28.1158 10.3644 28.1158C10.5549 28.1158 10.7453 28.1158 10.9358 28.211C11.1263 28.211 11.2215 28.4015 11.412 28.592C11.5072 28.7825 11.6025 28.9729 11.6977 29.1634C11.6977 29.3539 11.793 29.6396 11.793 29.9253C11.793 30.211 11.793 30.592 11.6977 30.8777C11.6977 31.1634 11.5072 31.3539 11.412 31.5444C11.3168 31.7348 11.1263 31.8301 10.9358 31.9253C10.7453 31.9253 10.5549 32.0206 10.3644 32.0206C10.1739 32.0206 9.98345 32.0206 9.88821 31.9253C9.69773 31.9253 9.60249 31.7348 9.41202 31.6396C9.31678 31.4491 9.22154 31.2587 9.1263 31.0682C9.1263 30.8777 9.03106 30.4967 9.03106 30.211C9.03106 29.9253 9.03106 29.6396 9.03106 29.4491Z" fill="white"/>
<path fill-rule="evenodd" clip-rule="evenodd" d="M15.8899 29.5444C15.6994 30.1158 15.5089 30.6872 15.2232 31.1634C15.128 30.8777 15.0327 30.592 14.9375 30.3063C14.8423 30.0206 14.747 29.7348 14.6518 29.4491C14.5565 29.1634 14.4613 28.8777 14.3661 28.592C14.3661 28.3063 14.1756 28.1158 14.0804 27.8301C14.0804 27.8301 13.8899 27.8301 13.7946 27.8301C13.7946 27.8301 13.6042 27.8301 13.5089 27.8301C13.4137 27.8301 13.3185 27.8301 13.2232 27.8301C13.128 27.8301 13.0327 27.8301 12.9375 27.8301C12.9375 28.0206 13.128 28.211 13.2232 28.4015C13.2232 28.592 13.4137 28.8777 13.5089 29.1634C13.6042 29.4491 13.6994 29.7348 13.8899 30.0206C13.9851 30.3063 14.0804 30.592 14.1756 30.8777C14.2708 31.1634 14.3661 31.4491 14.4613 31.6396C14.4613 31.9253 14.6518 32.1158 14.6518 32.3063C14.6518 32.3063 14.8423 32.3063 14.9375 32.3063C15.0327 32.3063 15.128 32.3063 15.2232 32.3063C15.3185 31.9253 15.5089 31.5444 15.6042 31.1634C15.7946 30.7825 15.8899 30.3063 16.0804 29.9253C16.2708 29.5444 16.3661 29.1634 16.5565 28.7825C16.747 28.4015 16.8423 28.1158 16.9375 27.8301C16.8423 27.8301 16.747 27.8301 16.6518 27.8301C16.5565 27.8301 16.4613 27.8301 16.3661 27.8301C16.1756 28.3063 15.9851 28.8777 15.7946 29.4491L15.8899 29.5444Z" fill="white"/>
<path fill-rule="evenodd" clip-rule="evenodd" d="M19.6016 27.9253C19.3158 27.9253 19.0301 27.9253 18.7444 27.9253C18.4587 27.9253 18.3635 27.9253 18.173 27.9253C17.9825 27.9253 17.792 27.9253 17.6016 27.9253C17.6016 28.211 17.6016 28.4967 17.6016 28.7825C17.6016 29.0682 17.6016 29.3539 17.6016 29.7348V30.592C17.6016 30.9729 17.6016 31.2587 17.6016 31.5444C17.6016 31.8301 17.6016 32.1158 17.6016 32.4015C17.6016 32.4015 17.6016 32.4015 17.6968 32.4015C17.6968 32.4015 17.792 32.4015 17.8873 32.4015H18.9349C19.2206 32.4015 19.5063 32.4015 19.6016 32.4015C19.792 32.4015 19.8873 32.4015 20.0778 32.4015C20.0778 32.4015 20.0778 32.4015 20.0778 32.3063C20.0778 32.3063 20.0778 32.3063 20.0778 32.1158C20.0778 31.9253 20.0778 32.0206 20.0778 31.9253C20.0778 31.9253 20.0778 31.9253 20.0778 31.8301C19.792 31.8301 19.6016 31.8301 19.3158 31.8301C19.0301 31.8301 18.8397 31.8301 18.5539 31.8301C18.5539 31.5444 18.5539 31.2587 18.5539 31.0682C18.5539 30.8777 18.5539 30.7825 18.5539 30.6872C18.5539 30.592 18.5539 30.4015 18.5539 30.3063C19.0301 30.3063 19.5063 30.3063 19.9825 30.3063C19.9825 30.3063 19.9825 30.211 19.9825 30.1158C19.9825 30.1158 19.9825 30.1158 19.9825 30.0206C19.9825 29.9253 19.9825 30.0206 19.9825 29.9253C19.9825 29.9253 19.9825 29.9253 19.9825 29.7348C19.6968 29.7348 19.5063 29.7348 19.3158 29.7348C19.1254 29.7348 18.8397 29.7348 18.5539 29.7348C18.5539 29.5444 18.5539 29.2587 18.5539 29.0682C18.5539 28.8777 18.5539 28.592 18.5539 28.4015C18.5539 28.4015 18.6492 28.4015 18.8397 28.4015C18.9349 28.4015 19.0301 28.4015 19.2206 28.4015C19.3158 28.4015 19.5063 28.4015 19.6968 28.4015C19.8873 28.4015 19.9825 28.4015 20.0778 28.4015C20.0778 28.4015 20.0778 28.4015 20.0778 28.3063C20.0778 28.3063 20.0778 28.3063 20.0778 28.1158C20.0778 28.0206 20.0778 27.9253 20.0778 27.8301C20.0778 27.8301 19.792 27.8301 19.6016 27.8301V27.9253Z" fill="white"/>
<path fill-rule="evenodd" clip-rule="evenodd" d="M21.8879 30.3052L23.0308 32.3052C23.126 32.3052 23.2213 32.3052 23.3165 32.3052H23.8879C23.8879 32.3052 24.0784 32.3052 24.1736 32.3052C23.9832 31.9243 23.6975 31.5433 23.507 31.2576C23.3165 30.8767 23.0308 30.4957 22.8403 30.1148C23.126 30.1148 23.4117 29.9243 23.6022 29.7338C23.7927 29.5433 23.8879 29.2576 23.8879 28.9719C23.8879 28.6862 23.8879 28.591 23.7927 28.4957C23.7927 28.4005 23.6022 28.21 23.507 28.1148C23.507 28.1148 23.4117 28.1148 23.3165 28.0195C23.3165 28.0195 23.2213 28.0195 23.126 28.0195C23.126 28.0195 22.9355 28.0195 22.8403 28.0195C22.7451 28.0195 22.5546 28.0195 22.4594 28.0195C22.3641 28.0195 22.0784 28.0195 21.8879 28.0195C21.6975 28.0195 21.6022 28.0195 21.507 28.0195C21.4117 28.0195 21.3165 28.0195 21.2213 28.0195C21.2213 28.0195 21.0308 28.0195 20.9355 28.0195C20.9355 28.3052 20.9355 28.591 20.9355 28.8767C20.9355 29.1624 20.9355 29.4481 20.9355 29.8291V30.6862C20.9355 31.0671 20.9355 31.3529 20.9355 31.6386C20.9355 31.9243 20.9355 32.21 20.9355 32.4957C20.9355 32.4957 21.126 32.4957 21.2213 32.4957H21.7927C21.7927 32.4957 21.9832 32.4957 22.0784 32.4957C22.0784 32.21 22.0784 31.9243 22.0784 31.6386C22.0784 31.3529 22.0784 31.0671 22.0784 30.6862V30.4005L21.8879 30.3052ZM21.8879 28.3052C22.0784 28.3052 22.1736 28.3052 22.3641 28.3052C22.4594 28.3052 22.5546 28.3052 22.6498 28.4005C22.6498 28.4005 22.7451 28.591 22.8403 28.6862C22.8403 28.7814 22.8403 28.9719 22.8403 29.1624C22.8403 29.4481 22.8403 29.7338 22.6498 29.8291C22.4594 30.0195 22.2689 30.0195 21.9832 30.0195C21.9832 29.4481 21.9832 28.8767 21.9832 28.3052H21.8879Z" fill="white"/>
<path fill-rule="evenodd" clip-rule="evenodd" d="M25.3156 29.6386C25.3156 29.5433 25.3156 29.3529 25.3156 29.2576C26.268 30.3052 27.2203 31.3529 28.1727 32.4005C28.1727 32.4005 28.3632 32.4005 28.4584 32.4005C28.5537 32.4005 28.6489 32.4005 28.7441 32.4005V31.6386C28.7441 31.3529 28.7441 31.0671 28.7441 30.7814C28.7441 30.4957 28.7441 30.21 28.7441 29.9243C28.7441 29.6386 28.7441 29.3529 28.7441 29.0672C28.7441 28.7814 28.7441 28.4005 28.7441 28.0195C28.6489 28.0195 28.5537 28.0195 28.4584 28.0195C28.3632 28.0195 28.268 28.0195 28.1727 28.0195C28.1727 28.0195 28.1727 28.1148 28.1727 28.3052C28.1727 28.4005 28.1727 28.591 28.1727 28.7814C28.1727 28.9719 28.1727 29.1624 28.1727 29.3529C28.1727 29.5433 28.1727 29.7338 28.1727 30.0195V31.1624C27.6965 30.6862 27.2203 30.1148 26.7441 29.6386C26.268 29.1624 25.7918 28.591 25.3156 28.1148C25.2203 28.1148 25.1251 28.1148 25.0299 28.1148C24.9346 28.1148 24.8394 28.1148 24.7441 28.1148C24.7441 28.3052 24.7441 28.4957 24.7441 28.6862C24.7441 28.8767 24.7441 29.1624 24.7441 29.4481C24.7441 29.7338 24.7441 30.1148 24.7441 30.4957C24.7441 30.8767 24.7441 31.1624 24.7441 31.4481C24.7441 31.7338 24.7441 32.0195 24.7441 32.21C24.7441 32.4005 24.7441 32.591 24.7441 32.591C24.8394 32.591 24.9346 32.591 25.0299 32.591H25.2203C25.2203 32.591 25.3156 32.591 25.4108 32.591C25.4108 32.591 25.4108 32.4957 25.4108 32.4005C25.4108 32.4005 25.4108 32.21 25.4108 32.1148C25.4108 32.0195 25.4108 31.8291 25.4108 31.6386C25.4108 31.4481 25.4108 31.2576 25.4108 30.9719V30.21C25.4108 30.1148 25.4108 29.9243 25.4108 29.8291L25.3156 29.6386Z" fill="white"/>
<path fill-rule="evenodd" clip-rule="evenodd" d="M34.3654 29.1619C34.3654 28.781 34.2702 28.3048 34.2702 27.9238C34.1749 27.9238 34.0797 27.9238 33.9845 27.9238C33.8892 27.9238 33.794 27.9238 33.6988 27.9238C33.5083 28.4 33.2226 28.9714 32.9368 29.5429C32.6511 30.1143 32.4607 30.5905 32.1749 31.0667C32.0797 30.8762 31.9845 30.5905 31.794 30.3048C31.6988 30.0191 31.5083 29.8286 31.413 29.5429C31.3178 29.2572 31.1273 28.9714 31.0321 28.781C30.9368 28.4953 30.7464 28.2095 30.6511 28.0191C30.6511 28.0191 30.6511 28.0191 30.5559 28.0191C30.5559 28.0191 30.5559 28.0191 30.4607 28.0191C30.3654 28.0191 30.4607 28.0191 30.3654 28.0191C30.3654 28.0191 30.3654 28.0191 30.2702 28.0191C30.2702 28.781 30.0797 29.5429 29.9845 30.2095C29.8892 30.9714 29.794 31.6381 29.6035 32.4C29.6035 32.4 29.6988 32.4 29.794 32.4H30.0797C30.0797 32.4 30.1749 32.4 30.2702 32.4C30.2702 31.9238 30.2702 31.4476 30.3654 30.9714C30.3654 30.4953 30.3654 30.0191 30.5559 29.5429C30.8416 30.0191 31.0321 30.4953 31.2226 30.9714C31.413 31.4476 31.6988 31.9238 31.8892 32.4C32.0797 31.9238 32.3654 31.4476 32.5559 30.8762C32.7464 30.4 33.0321 29.9238 33.3178 29.3524C33.3178 29.8286 33.413 30.4 33.5083 30.8762C33.5083 31.3524 33.5083 31.8286 33.6035 32.3048C33.6035 32.3048 33.794 32.3048 33.8892 32.3048H34.4607C34.4607 32.3048 34.6511 32.3048 34.7464 32.3048C34.7464 32.1143 34.7464 31.8286 34.6511 31.4476C34.6511 31.0667 34.6511 30.6857 34.5559 30.3048C34.5559 29.9238 34.4607 29.4476 34.3654 29.0667V29.1619Z" fill="white"/>
<path fill-rule="evenodd" clip-rule="evenodd" d="M37.5078 27.9253C37.2221 27.9253 36.9364 27.9253 36.6507 27.9253C36.365 27.9253 36.2697 27.9253 36.0792 27.9253C35.8888 27.9253 35.6983 27.9253 35.5078 27.9253C35.5078 28.211 35.5078 28.4967 35.5078 28.7825C35.5078 29.0682 35.5078 29.3539 35.5078 29.7348V30.592C35.5078 30.9729 35.5078 31.2587 35.5078 31.5444C35.5078 31.8301 35.5078 32.1158 35.5078 32.4015C35.5078 32.4015 35.5078 32.4015 35.603 32.4015C35.603 32.4015 35.6983 32.4015 35.7935 32.4015H36.8411C37.1269 32.4015 37.4126 32.4015 37.5078 32.4015C37.6983 32.4015 37.7935 32.4015 37.984 32.4015C37.984 32.4015 37.984 32.4015 37.984 32.3063C37.984 32.3063 37.984 32.3063 37.984 32.1158C37.984 31.9253 37.984 32.0206 37.984 31.9253C37.984 31.9253 37.984 31.9253 37.984 31.8301C37.6983 31.8301 37.5078 31.8301 37.2221 31.8301C36.9364 31.8301 36.7459 31.8301 36.4602 31.8301C36.4602 31.5444 36.4602 31.2587 36.4602 31.0682C36.4602 30.8777 36.4602 30.7825 36.4602 30.6872C36.4602 30.592 36.4602 30.4015 36.4602 30.3063C36.9364 30.3063 37.4126 30.3063 37.8888 30.3063C37.8888 30.3063 37.8888 30.211 37.8888 30.1158C37.8888 30.1158 37.8888 30.1158 37.8888 30.0206C37.8888 30.0206 37.8888 30.0206 37.8888 29.9253C37.8888 29.9253 37.8888 29.9253 37.8888 29.7348C37.6031 29.7348 37.4126 29.7348 37.2221 29.7348C37.0316 29.7348 36.7459 29.7348 36.4602 29.7348C36.4602 29.5444 36.4602 29.2587 36.4602 29.0682C36.4602 28.8777 36.4602 28.592 36.4602 28.4015C36.4602 28.4015 36.5554 28.4015 36.7459 28.4015C36.8411 28.4015 36.9364 28.4015 37.1269 28.4015C37.2221 28.4015 37.4126 28.4015 37.6031 28.4015C37.7935 28.4015 37.8888 28.4015 37.984 28.4015C37.984 28.4015 37.984 28.4015 37.984 28.3063C37.984 28.3063 37.984 28.3063 37.984 28.1158C37.984 28.0206 37.984 27.9253 37.984 27.8301C37.984 27.8301 37.6983 27.8301 37.5078 27.8301V27.9253Z" fill="white"/>
<path fill-rule="evenodd" clip-rule="evenodd" d="M39.3175 29.6386C39.3175 29.5433 39.3175 29.3529 39.3175 29.2576C40.2699 30.3052 41.2223 31.3529 42.1747 32.4005C42.1747 32.4005 42.3651 32.4005 42.4604 32.4005C42.5556 32.4005 42.6509 32.4005 42.7461 32.4005V31.6386C42.7461 31.3529 42.7461 31.0671 42.7461 30.7814C42.7461 30.4957 42.7461 30.21 42.7461 29.9243C42.7461 29.6386 42.7461 29.3529 42.7461 29.0672C42.7461 28.7814 42.7461 28.4005 42.7461 28.0195C42.6509 28.0195 42.5556 28.0195 42.4604 28.0195C42.3651 28.0195 42.2699 28.0195 42.1747 28.0195C42.1747 28.0195 42.1747 28.1148 42.1747 28.3052C42.1747 28.4005 42.1747 28.591 42.1747 28.7814C42.1747 28.9719 42.1747 29.1624 42.1747 29.3529C42.1747 29.5433 42.1747 29.7338 42.1747 30.0195V31.1624C41.6985 30.6862 41.2223 30.1148 40.7461 29.6386C40.2699 29.1624 39.7937 28.591 39.3175 28.1148C39.2223 28.1148 39.127 28.1148 39.0318 28.1148C38.9366 28.1148 38.8413 28.1148 38.7461 28.1148C38.7461 28.3052 38.7461 28.4957 38.7461 28.6862C38.7461 28.8767 38.7461 29.1624 38.7461 29.4481C38.7461 29.7338 38.7461 30.1148 38.7461 30.4957C38.7461 30.8767 38.7461 31.1624 38.7461 31.4481C38.7461 31.7338 38.7461 32.0195 38.7461 32.21C38.7461 32.4005 38.7461 32.591 38.7461 32.591C38.8413 32.591 38.9366 32.591 39.0318 32.591H39.2223C39.2223 32.591 39.3175 32.591 39.4128 32.591C39.4128 32.591 39.4128 32.4957 39.4128 32.4005C39.4128 32.4005 39.4128 32.21 39.4128 32.1148C39.4128 32.0195 39.4128 31.8291 39.4128 31.6386C39.4128 31.4481 39.4128 31.2576 39.4128 30.9719V30.21C39.4128 30.1148 39.4128 29.9243 39.4128 29.8291L39.3175 29.6386Z" fill="white"/>
<path fill-rule="evenodd" clip-rule="evenodd" d="M46.7459 27.9238C46.6507 27.9238 46.4602 27.9238 46.365 27.9238C46.2697 27.9238 46.1745 27.9238 45.984 27.9238C45.8888 27.9238 45.6983 27.9238 45.6031 27.9238C45.4126 27.9238 45.3173 27.9238 45.1269 27.9238C44.9364 27.9238 44.7459 27.9238 44.6507 27.9238C44.4602 27.9238 44.365 27.9238 44.2697 27.9238C44.1745 27.9238 43.984 27.9238 43.8888 27.9238C43.7935 27.9238 43.6031 27.9238 43.5078 27.9238C43.5078 27.9238 43.5078 27.9238 43.5078 28.0191C43.5078 28.0191 43.5078 28.0191 43.5078 28.1143C43.5078 28.1143 43.5078 28.1143 43.5078 28.2095V28.3048C43.5078 28.3048 43.6983 28.3048 43.7935 28.3048C43.8888 28.3048 43.984 28.3048 44.0792 28.3048C44.1745 28.3048 44.2697 28.3048 44.365 28.3048C44.365 28.3048 44.5554 28.3048 44.6507 28.3048C44.6507 28.3048 44.6507 28.4 44.6507 28.4953C44.6507 28.5905 44.6507 28.6857 44.6507 28.8762V30.4953C44.6507 30.8762 44.6507 31.1619 44.6507 31.4476C44.6507 31.7334 44.6507 32.0191 44.6507 32.3048C44.6507 32.3048 44.8411 32.3048 44.9364 32.3048H45.5078C45.5078 32.3048 45.6983 32.3048 45.7935 32.3048C45.7935 32.0191 45.7935 31.7334 45.7935 31.4476C45.7935 31.1619 45.7935 30.8762 45.7935 30.4953V28.4953V28.4C45.7935 28.4 45.984 28.4 46.0792 28.4C46.0792 28.4 46.2697 28.4 46.365 28.4C46.4602 28.4 46.5554 28.4 46.6507 28.4C46.7459 28.4 46.8411 28.4 46.9364 28.4C46.9364 28.4 46.9364 28.4 46.9364 28.3048C46.9364 28.3048 46.9364 28.3048 46.9364 28.2095C46.9364 28.1143 46.9364 28.2095 46.9364 28.1143C46.9364 28.1143 46.9364 28.1143 46.9364 28.0191L46.7459 27.9238Z" fill="white"/>
<path fill-rule="evenodd" clip-rule="evenodd" d="M52.3641 28.0191C52.0784 28.0191 51.7927 27.9238 51.4117 27.9238C51.0308 27.9238 50.6498 27.9238 50.3641 28.1143C50.0784 28.2095 49.7927 28.4 49.6022 28.5905C49.4117 28.781 49.2213 29.0667 49.126 29.3524C49.0308 29.6381 48.9355 29.9238 48.9355 30.2095C48.9355 30.4953 48.9355 30.9714 49.126 31.2572C49.2213 31.5429 49.4117 31.8286 49.6975 32.0191C49.8879 32.2095 50.1736 32.3048 50.4594 32.4C50.7451 32.4 51.0308 32.4953 51.4117 32.4953C51.7927 32.4953 52.0784 32.4953 52.3641 32.3048C52.6498 32.2095 52.9355 32.0191 53.126 31.8286C53.3165 31.6381 53.507 31.3524 53.6022 31.0667C53.6975 30.781 53.7927 30.4953 53.7927 30.2095C53.7927 29.9238 53.7927 29.4476 53.6022 29.1619C53.507 28.8762 53.3165 28.5905 53.126 28.4C52.9355 28.2095 52.6498 28.1143 52.3641 28.0191ZM52.6498 30.9714C52.6498 31.2572 52.4594 31.4476 52.3641 31.6381C52.2689 31.8286 52.0784 31.9238 51.8879 32.0191C51.6975 32.0191 51.507 32.1143 51.3165 32.1143C51.126 32.1143 50.9355 32.1143 50.8403 32.0191C50.6498 32.0191 50.5546 31.8286 50.3641 31.7334C50.2689 31.5429 50.1736 31.3524 50.0784 31.1619C50.0784 30.9714 49.9832 30.5905 49.9832 30.3048C49.9832 30.0191 49.9832 29.7334 49.9832 29.5429C49.9832 29.2572 50.1736 29.0667 50.2689 28.8762C50.3641 28.6857 50.5546 28.5905 50.7451 28.4C50.9355 28.3048 51.126 28.2095 51.3165 28.2095C51.507 28.2095 51.6975 28.2095 51.8879 28.3048C52.0784 28.3048 52.1736 28.4953 52.3641 28.6857C52.4594 28.8762 52.5546 29.0667 52.6498 29.2572C52.6498 29.4476 52.7451 29.7334 52.7451 30.0191C52.7451 30.3048 52.7451 30.6857 52.6498 30.9714Z" fill="white"/>
<path fill-rule="evenodd" clip-rule="evenodd" d="M56.4609 27.9253C56.1752 27.9253 55.8895 27.9253 55.6038 27.9253C55.3181 27.9253 55.2228 27.9253 55.0324 27.9253C54.8419 27.9253 54.6514 27.9253 54.4609 27.9253C54.4609 28.211 54.4609 28.4967 54.4609 28.7825C54.4609 29.0682 54.4609 29.3539 54.4609 29.7348V30.592C54.4609 30.9729 54.4609 31.2587 54.4609 31.5444C54.4609 31.8301 54.4609 32.1158 54.4609 32.4015C54.4609 32.4015 54.6514 32.4015 54.7467 32.4015H55.3181C55.3181 32.4015 55.5086 32.4015 55.6038 32.4015C55.6038 32.1158 55.6038 31.8301 55.6038 31.5444C55.6038 31.2587 55.6038 30.9729 55.6038 30.592V30.3063C56.08 30.3063 56.5562 30.3063 57.0324 30.3063C57.0324 30.3063 57.0324 30.211 57.0324 30.1158C57.0324 30.1158 57.0324 30.1158 57.0324 30.0206C57.0324 30.0206 57.0324 30.0206 57.0324 29.9253C57.0324 29.9253 57.0324 29.9253 57.0324 29.7348C56.7467 29.7348 56.5562 29.7348 56.3657 29.7348C56.1752 29.7348 55.8895 29.7348 55.6038 29.7348C55.6038 29.5444 55.6038 29.2587 55.6038 29.0682C55.6038 28.8777 55.6038 28.592 55.6038 28.4015C55.6038 28.4015 55.699 28.4015 55.8895 28.4015C55.9847 28.4015 56.08 28.4015 56.2705 28.4015C56.3657 28.4015 56.5562 28.4015 56.7467 28.4015C56.9371 28.4015 57.0324 28.4015 57.1276 28.4015C57.1276 28.4015 57.1276 28.4015 57.1276 28.3063C57.1276 28.3063 57.1276 28.3063 57.1276 28.1158C57.1276 28.0206 57.1276 27.9253 57.1276 27.8301C57.1276 27.8301 56.8419 27.8301 56.6514 27.8301L56.4609 27.9253Z" fill="white"/>
<path fill-rule="evenodd" clip-rule="evenodd" d="M59.6035 31.5444C59.6035 31.8301 59.6035 32.1158 59.6035 32.4015C59.6035 32.4015 59.794 32.4015 59.8892 32.4015H60.1749C60.3654 32.4015 60.5559 32.4015 60.7464 32.4015C60.9368 32.4015 61.2226 32.4015 61.6035 32.4015C61.9845 32.4015 62.1749 32.4015 62.4607 32.211C62.7464 32.1158 62.9368 31.9253 63.1273 31.7348C63.3178 31.5444 63.5083 31.2586 63.6035 30.9729C63.6988 30.6872 63.794 30.4015 63.794 30.0206C63.794 29.6396 63.794 29.2587 63.6035 28.9729C63.5083 28.6872 63.3178 28.4967 63.1273 28.3063C62.9368 28.1158 62.6511 28.0206 62.3654 27.9253C62.0797 27.9253 61.6988 27.8301 61.3178 27.8301C60.9368 27.8301 60.8416 27.8301 60.6511 27.8301C60.4607 27.8301 60.2702 27.8301 60.1749 27.8301C60.0797 27.8301 59.9845 27.8301 59.8892 27.8301C59.8892 27.8301 59.6988 27.8301 59.6035 27.8301C59.6035 28.1158 59.6035 28.4015 59.6035 28.6872C59.6035 28.9729 59.6035 29.2587 59.6035 29.6396V30.4967C59.6035 30.8777 59.6035 31.1634 59.6035 31.4491V31.5444ZM60.5559 31.0682V28.8777C60.5559 28.7825 60.5559 28.592 60.5559 28.4967C60.5559 28.4015 60.5559 28.3063 60.5559 28.3063C60.6511 28.3063 60.7464 28.3063 60.8416 28.3063C60.9368 28.3063 61.0321 28.3063 61.2226 28.3063C61.413 28.3063 61.6035 28.3063 61.794 28.4015C61.9845 28.4015 62.1749 28.592 62.2702 28.7825C62.3654 28.9729 62.4607 29.0682 62.5559 29.3539C62.5559 29.5444 62.6511 29.8301 62.6511 30.1158C62.6511 30.7825 62.5559 31.2586 62.2702 31.6396C61.9845 31.9253 61.6035 32.1158 61.1273 32.1158C60.6511 32.1158 60.8416 32.1158 60.7464 32.1158H60.5559C60.5559 32.1158 60.5559 32.0206 60.5559 31.9253C60.5559 31.8301 60.5559 31.7348 60.5559 31.5444V31.1634V31.0682Z" fill="white"/>
<path fill-rule="evenodd" clip-rule="evenodd" d="M66.6514 32.4957C67.3181 32.4957 67.7943 32.3052 68.08 32.0195C68.3657 31.7338 68.5562 31.1624 68.5562 30.4005C68.5562 29.6386 68.5562 29.8291 68.5562 29.6386C68.5562 29.3529 68.5562 29.1624 68.5562 28.9719C68.5562 28.7814 68.5562 28.591 68.5562 28.4005C68.5562 28.21 68.5562 28.1148 68.5562 28.0195C68.5562 28.0195 68.4609 28.0195 68.3657 28.0195C68.3657 28.0195 68.2705 28.0195 68.1752 28.0195C68.08 28.0195 68.08 28.0195 67.9848 28.0195C67.9848 28.0195 67.8895 28.0195 67.7943 28.0195C67.7943 28.3052 67.7943 28.591 67.7943 28.8767C67.7943 29.1624 67.7943 29.4481 67.7943 29.7338C67.7943 30.0195 67.7943 30.3052 67.7943 30.591C67.7943 30.8767 67.7943 31.1624 67.699 31.3529C67.699 31.5433 67.5086 31.7338 67.4133 31.8291C67.2228 31.9243 67.0324 32.0195 66.8419 32.0195C66.6514 32.0195 66.4609 32.0195 66.2705 32.0195C66.08 32.0195 65.9847 31.9243 65.8895 31.7338C65.7943 31.6386 65.699 31.4481 65.6038 31.1624C65.6038 30.8767 65.6038 30.591 65.6038 30.21C65.6038 29.8291 65.6038 29.4481 65.6038 29.1624C65.6038 28.7814 65.6038 28.4005 65.6038 28.0195C65.6038 28.0195 65.4133 28.0195 65.3181 28.0195C65.3181 28.0195 65.1276 28.0195 65.0324 28.0195C64.9371 28.0195 64.8419 28.0195 64.7467 28.0195C64.7467 28.0195 64.5562 28.0195 64.4609 28.0195C64.4609 28.1148 64.4609 28.3052 64.4609 28.4957C64.4609 28.6862 64.4609 28.9719 64.4609 29.3529C64.4609 29.4481 64.4609 29.5433 64.4609 29.7338C64.4609 29.8291 64.4609 29.9243 64.4609 30.1148C64.4609 30.3052 64.4609 30.4005 64.4609 30.4957C64.4609 30.591 64.4609 30.7814 64.4609 30.9719C64.4609 31.2576 64.4609 31.5433 64.6514 31.7338C64.7467 31.9243 64.9371 32.1148 65.0324 32.21C65.2228 32.3052 65.4133 32.4005 65.699 32.4957C65.9847 32.4957 66.1752 32.4957 66.4609 32.4957H66.6514Z" fill="white"/>
<path fill-rule="evenodd" clip-rule="evenodd" d="M71.8892 28.0195C71.6988 28.0195 71.5083 28.0195 71.3178 28.0195C71.1273 28.0195 70.9368 28.0195 70.7464 28.0195C70.5559 28.0195 70.3654 28.0195 70.1749 28.0195C69.9845 28.0195 69.9845 28.0195 69.8892 28.0195C69.8892 28.0195 69.6988 28.0195 69.6035 28.0195C69.6035 28.3052 69.6035 28.591 69.6035 28.8767C69.6035 29.1624 69.6035 29.4481 69.6035 29.8291V30.6862C69.6035 31.0671 69.6035 31.3529 69.6035 31.6386C69.6035 31.9243 69.6035 32.21 69.6035 32.4957C69.6035 32.4957 69.794 32.4957 69.8892 32.4957H70.2702C70.4607 32.4957 70.5559 32.4957 70.7464 32.4957C70.9368 32.4957 71.0321 32.4957 71.2226 32.4957C71.413 32.4957 71.6035 32.4957 71.794 32.4957C71.9845 32.4957 72.1749 32.4005 72.2702 32.3052C72.3654 32.21 72.5559 32.1148 72.6511 31.9243C72.6511 31.7338 72.7464 31.5433 72.7464 31.3529C72.7464 31.1624 72.7464 30.9719 72.6511 30.8767C72.6511 30.7814 72.4607 30.591 72.3654 30.591C72.2702 30.591 72.0797 30.4005 71.9845 30.4005C71.8892 30.4005 71.6988 30.4005 71.6035 30.4005C71.6988 30.4005 71.794 30.4005 71.9845 30.3052C72.0797 30.3052 72.2702 30.21 72.3654 30.1148C72.4607 30.1148 72.5559 29.9243 72.6511 29.8291C72.6511 29.7338 72.7464 29.5433 72.7464 29.3529C72.7464 29.1624 72.7464 29.0671 72.7464 28.8767C72.7464 28.7814 72.5559 28.6862 72.4607 28.591C72.3654 28.591 72.1749 28.4957 72.0797 28.4005L71.8892 28.0195ZM71.6988 31.1624C71.6988 31.2576 71.6988 31.4481 71.6988 31.5433C71.6988 31.6386 71.6988 31.7338 71.5083 31.8291C71.5083 31.8291 71.413 31.9243 71.3178 32.0195C71.3178 32.0195 71.1273 32.0195 71.0321 32.0195C70.9368 32.0195 70.9369 32.0195 70.8416 32.0195C70.8416 32.0195 70.7464 32.0195 70.6511 32.0195C70.6511 32.0195 70.6511 31.9243 70.6511 31.8291C70.6511 31.8291 70.6511 31.6386 70.6511 31.5433C70.6511 31.4481 70.6511 31.3529 70.6511 31.2576C70.6511 31.1624 70.6511 31.0671 70.6511 30.9719C70.6511 30.8767 70.6511 30.6862 70.6511 30.591C70.6511 30.4957 70.6511 30.4005 70.6511 30.3052C70.6511 30.3052 70.6511 30.3052 70.7464 30.3052C70.7464 30.3052 70.7464 30.3052 70.9369 30.3052C71.2226 30.3052 71.413 30.3052 71.5083 30.4957C71.6035 30.6862 71.6988 30.8767 71.6988 31.1624ZM71.6035 29.4481C71.6035 29.5433 71.5083 29.6386 71.413 29.7338C71.413 29.7338 71.2226 29.8291 71.2226 29.9243C71.2226 29.9243 71.0321 29.9243 70.9369 29.9243H70.6511C70.6511 29.8291 70.6511 29.7338 70.6511 29.6386C70.6511 29.5433 70.6511 29.4481 70.6511 29.3529C70.6511 29.2576 70.6511 29.0672 70.6511 28.9719C70.6511 28.7814 70.6511 28.6862 70.6511 28.4957C70.6511 28.4957 70.6511 28.4957 70.7464 28.4957C70.7464 28.4957 70.8416 28.4957 70.9369 28.4957C71.0321 28.4957 71.1273 28.4957 71.2226 28.4957C71.2226 28.4957 71.413 28.4957 71.413 28.6862C71.413 28.6862 71.5083 28.8767 71.5083 28.9719C71.5083 28.9719 71.5083 29.1624 71.5083 29.2576C71.5083 29.3529 71.5083 29.5433 71.5083 29.6386L71.6035 29.4481Z" fill="white"/>
<path fill-rule="evenodd" clip-rule="evenodd" d="M73.2222 32.4H73.4127C73.4127 32.4 73.5079 32.4 73.6031 32.4C73.6031 32.2095 73.6984 32.0191 73.7936 31.7334C73.7936 31.5429 73.9841 31.2572 74.0793 31.0667C74.1746 31.0667 74.2698 31.0667 74.4603 31.0667C74.5555 31.0667 74.6508 31.0667 74.8412 31.0667C75.0317 31.0667 75.127 31.0667 75.2222 31.0667C75.3174 31.0667 75.5079 31.0667 75.6031 31.0667C75.6031 31.2572 75.7936 31.5429 75.7936 31.7334C75.7936 31.9238 75.9841 32.2095 75.9841 32.4C75.9841 32.4 76.1746 32.4 76.2698 32.4H76.8412C76.8412 32.4 77.0317 32.4 77.127 32.4C77.0317 32.1143 76.8412 31.8286 76.746 31.4476C76.5555 31.0667 76.4603 30.6857 76.2698 30.3048C76.0793 29.9238 75.9841 29.4476 75.7936 29.0667C75.6031 28.6857 75.5079 28.3048 75.3174 27.9238C75.3174 27.9238 75.3174 27.9238 75.2222 27.9238C75.2222 27.9238 75.2222 27.9238 75.127 27.9238C75.0317 27.9238 75.127 27.9238 75.0317 27.9238C75.0317 27.9238 75.0317 27.9238 74.9365 27.9238C74.9365 28.2095 74.746 28.4 74.6508 28.6857C74.5555 28.9714 74.4603 29.2572 74.2698 29.5429C74.1746 29.8286 74.0793 30.1143 73.8889 30.4C73.7936 30.6857 73.6984 30.9714 73.6031 31.1619C73.5079 31.4476 73.4127 31.6381 73.3174 31.8286C73.3174 32.0191 73.127 32.2095 73.127 32.3048C73.127 32.3048 73.2222 32.3048 73.3174 32.3048H73.5079L73.2222 32.4ZM74.4603 29.9238C74.5555 29.6381 74.6508 29.4476 74.746 29.1619C74.8412 29.4476 74.9365 29.6381 75.0317 29.9238C75.0317 30.2095 75.2222 30.4 75.3174 30.6857H74.1746C74.1746 30.4 74.365 30.2095 74.4603 29.9238Z" fill="white"/>
<path fill-rule="evenodd" clip-rule="evenodd" d="M77.6992 31.5429C77.6992 31.8286 77.6992 32.1143 77.6992 32.4C77.6992 32.4 77.8897 32.4 77.9849 32.4H78.5564C78.5564 32.4 78.7468 32.4 78.8421 32.4C78.8421 32.1143 78.8421 31.8286 78.8421 31.5429C78.8421 31.2572 78.8421 30.9714 78.8421 30.5905V29.7334C78.8421 29.3524 78.8421 29.0667 78.8421 28.781C78.8421 28.4953 78.8421 28.2095 78.8421 27.9238C78.8421 27.9238 78.6516 27.9238 78.5564 27.9238C78.5564 27.9238 78.3659 27.9238 78.2706 27.9238C78.1754 27.9238 78.0802 27.9238 77.9849 27.9238C77.9849 27.9238 77.7945 27.9238 77.6992 27.9238C77.6992 28.2095 77.6992 28.4953 77.6992 28.781C77.6992 29.0667 77.6992 29.3524 77.6992 29.7334V30.5905C77.6992 30.9714 77.6992 31.2572 77.6992 31.5429Z" fill="white"/>
</g>
</g>
<defs>
<clipPath id="clip0_10798_13162">
<rect width="163" height="56" fill="white"/>
</clipPath>
</defs>
</svg>