<?xml version="1.0" encoding="utf-8"?>
<svg xmlns="http://www.w3.org/2000/svg" width="196" height="48" viewBox="0 0 196 48" fill="none">
<g clip-path="url(#clip0_10754_26093)">
<path d="M8.87464 5.58963L5.66943 15.8307L0.431641 25.2509L6.49027 34.1238L10.5554 44.0522L21.2655 44.873L31.5847 47.9219L38.9333 40.0261L47.689 33.8502L46.0864 23.2183L46.7509 12.5082L37.4479 7.11406L29.5131 -0.078125L19.4675 3.83067L8.87464 5.58963ZM10.0473 6.91862L18.0994 5.58963C17.8649 6.09777 17.6694 6.48865 17.3958 6.95771L10.9854 8.01308L8.32741 16.0652L12.6662 24.6645L10.1255 30.9968C9.73457 30.8795 9.3046 30.8404 8.87464 30.7232L11.259 24.5864L7.07659 16.1825L10.0473 6.87953V6.91862ZM29.2004 1.68083L35.259 7.15314C34.7509 7.27041 34.3209 7.38767 33.8127 7.46585L28.8486 3.04891L20.9528 6.13686L17.044 14.8144L10.5163 16.8079C10.36 16.417 10.1255 16.0261 9.9691 15.6352L16.0277 13.7981L20.0147 5.23784L29.1613 1.64174L29.2004 1.68083ZM28.5359 4.88604L32.0147 7.97399L27.8323 9.02937L24.2362 6.52774L28.5359 4.88604ZM12.1971 9.42025L16.7704 8.63849C16.2232 9.85021 15.5196 11.2965 14.8942 12.6255L10.7509 13.8372L12.1971 9.42025ZM22.2818 7.03588L27.5587 10.632L36.6662 8.36487L45.2655 13.329L44.7574 21.4984C44.4447 21.2248 44.0929 20.9512 43.7802 20.7167L44.0147 13.9154L36.6662 9.65477C33.461 10.4365 30.6466 11.1401 27.4023 11.961L21.7737 8.09126C21.93 7.70038 22.0864 7.38767 22.2818 6.99679V7.03588ZM21.1873 9.49842L27.1287 13.6417L34.1255 11.9219L34.6336 19.075L40.3795 23.4919L35.0245 28.417L35.1417 35.6483L28.0277 34.5538L22.4382 39.1271L18.8421 32.8339L11.7281 31.3486L14.4251 24.6255L11.1808 18.1759L18.0603 16.0652L21.1483 9.49842H21.1873ZM6.29483 17.9414C6.52936 18.3714 6.7248 18.7623 6.92024 19.1922L3.67594 25.1336L8.40558 32.1303C17.8258 34.1629 8.40558 32.1303 17.7867 34.1629L21.1873 40.0652C20.8746 40.3388 20.5619 40.5733 20.2492 40.847L17.044 35.2574L7.78017 33.2639L2.26877 25.0945L6.29483 17.8632V17.9414ZM35.6499 11.4919C36.0408 11.3746 36.4316 11.3356 36.8225 11.2183L37.3307 17.7851L44.6792 23.4137L46.1645 33.2248L39.5587 37.9154V36.6645L45.1483 32.6385L43.8974 24.2346L36.3535 18.3714L35.7281 11.4919H35.6499ZM7.74109 20.873C8.36649 22.1238 8.9919 23.4137 9.6564 24.7427L8.05379 28.9251L5.47399 25.0554L7.74109 20.873ZM38.386 12.43L42.4121 14.7362L42.1776 19.5831L38.6987 16.9251L38.386 12.3909V12.43ZM41.5912 24.4691C41.904 24.7036 42.2167 24.9772 42.5294 25.1727L37.7997 29.7069L37.9561 38.9316L31.1157 46.202L23.3372 43.9349C23.6499 43.6613 24.0017 43.3877 24.3144 43.1141L30.8812 44.9512L36.6662 38.7362L36.5489 29.0815L41.5522 24.5082L41.5912 24.4691ZM8.52284 35.0619C9.03099 35.1792 9.57822 35.2965 10.0864 35.3746L12.7443 41.5896L21.1483 42.2541L28.5359 36.1173L35.259 37.1727V38.5017L28.7313 37.5636L21.6173 43.4268L11.689 42.645L8.56193 35.0228L8.52284 35.0619ZM11.8844 35.7655L16.0668 36.6645L18.2557 40.5342L13.7215 40.2215L11.8453 35.8046L11.8844 35.7655ZM42.6466 27.2053L43.3502 31.8567L39.4414 34.7101L39.3241 30.3714L42.6466 27.2443V27.2053ZM29.1222 39.2053L33.5782 39.8698L30.373 43.2704L25.7215 41.9414C26.816 41.0424 27.9105 40.1043 29.0831 39.1662L29.1222 39.2053Z" fill="white"/>
<path d="M12.7447 10.0843L15.4418 9.6543C15.1291 10.3579 14.7773 11.1396 14.3864 11.9214L11.8848 12.625L12.7056 10.0843H12.7447Z" fill="white"/>
<path d="M6.41211 25.0543L7.7411 22.6309C8.13198 23.3344 8.52286 24.0771 8.91374 24.8198L7.97563 27.2432L6.41211 25.0543Z" fill="white"/>
<path d="M14.2292 39.4001L13.1738 36.8594C13.9556 37.0157 14.7764 37.1721 15.5973 37.4066L16.8481 39.6737L14.1901 39.4001H14.2292Z" fill="white"/>
<path d="M30.1775 42.3316L27.4805 41.5499C28.1059 41.0417 28.7313 40.4945 29.3958 39.9473L31.9756 40.3381L30.1384 42.3316H30.1775Z" fill="white"/>
<path d="M42.4897 31.5447L40.3008 33.1864C40.2617 32.3656 40.2617 31.5838 40.2617 30.6848L42.1379 28.8477L42.5288 31.5056L42.4897 31.5447Z" fill="white"/>
<path d="M41.6695 15.3232L41.5132 18.0984C40.8487 17.5903 40.2624 17.1212 39.5197 16.5349L39.2852 13.9551L41.6695 15.3232Z" fill="white"/>
<path d="M28.5368 5.74609L25.957 6.6842C26.6215 7.19235 27.286 7.62232 27.9896 8.13046L30.5303 7.58323L28.5368 5.74609Z" fill="white"/>
<path d="M18.061 16.0661L14.3477 24.6655L18.7646 32.8739L27.9893 34.5156L35.0643 28.3397V28.027L34.6734 19.0368L27.1294 13.5254L18.1001 16.0661H18.061ZM19.0382 17.2387L26.7776 15.0889L33.3053 19.7795L33.6962 27.7925L27.6766 33.0694L19.7809 31.6231L15.9112 24.5482L19.0382 17.1997V17.2387Z" fill="white"/>
<path d="M65.1614 14.7751H69.1875V19.7393C68.1321 20.1693 66.9204 20.4038 65.5914 20.4038C64.2624 20.4038 62.5425 19.8957 61.6044 18.9576C60.6663 17.9804 60.2363 16.5732 60.2363 14.8142C60.2363 13.0553 60.4709 12.7035 60.9008 11.8436C61.3308 10.9445 61.9953 10.28 62.8943 9.85007C63.7152 9.34192 64.7314 9.14648 65.8259 9.14648C66.9204 9.14648 68.093 9.38101 69.0311 9.81098L68.7184 10.4755C67.7803 10.0455 66.8031 9.81098 65.7868 9.81098C64.3406 9.81098 63.207 10.2409 62.3862 11.14C61.5653 12.039 61.1353 13.2507 61.1353 14.7361C61.1353 16.2214 61.5262 17.5895 62.3471 18.4494C63.1679 19.2703 64.3406 19.7002 65.865 19.7002C67.3894 19.7002 67.7412 19.5439 68.4448 19.2703V15.4006H65.2005V14.7751H65.1614Z" fill="white"/>
<path d="M79.976 9.3418V16.4167C79.976 17.6675 79.5851 18.6838 78.8816 19.3483C78.178 20.0519 77.1226 20.4037 75.8327 20.4037C74.5428 20.4037 73.5656 20.091 72.862 19.3483C72.1584 18.6056 71.8066 17.6284 71.8066 16.3776V9.38088H72.5884V16.4558C72.5884 17.5112 72.862 18.332 73.4874 18.9574C74.1128 19.5828 74.9337 19.8565 75.989 19.8565C77.0444 19.8565 77.8653 19.5828 78.4125 18.9574C78.9597 18.4102 79.3115 17.5894 79.3115 16.534V9.38088H80.0151L79.976 9.3418Z" fill="white"/>
<path d="M82.9844 20.2864V9.38086H83.7661V19.5828H89.0039V20.2864H82.9844Z" fill="white"/>
<path d="M91.5845 20.2864H90.8027V9.38086H96.8223V10.0844H91.5845V14.7359H96.5487V15.4004H91.5845V20.3255V20.2864Z" fill="white"/>
<path d="M104.64 14.1887H105.422C106.126 14.1887 106.673 14.0714 107.025 13.7978C107.337 13.5633 107.533 13.1724 107.533 12.6252C107.533 12.078 107.376 11.7262 106.985 11.5307C106.673 11.2962 106.086 11.218 105.344 11.218H104.64V14.1887ZM104.64 16.0649V20.2473H102.334V9.3418H105.539C107.025 9.3418 108.119 9.61541 108.862 10.1626C109.565 10.7099 109.917 11.5307 109.917 12.6643C109.917 13.7978 109.761 13.876 109.37 14.3841C109.057 14.8923 108.471 15.2832 107.884 15.5568C109.526 18.0584 110.582 19.5828 111.09 20.2864H108.51L105.93 16.104H104.718L104.64 16.0649Z" fill="white"/>
<path d="M118.711 20.2864H112.418V9.38086H118.711V11.2571H114.724V13.6805H118.438V15.5568H114.724V18.3711H118.711V20.2864Z" fill="white"/>
<path d="M127.703 20.2864L126.921 17.7066H122.895L122.113 20.2864H119.611L123.481 9.30273H126.295L130.165 20.2864H127.663H127.703ZM126.374 15.7522C125.67 13.3679 125.201 12.0389 125.123 11.7262C125.005 11.4135 124.966 11.179 124.888 11.0226C124.732 11.6871 124.224 13.2115 123.442 15.7522H126.374Z" fill="white"/>
<path d="M131.572 20.2864V9.38086H133.878V18.4102H138.295V20.3255H131.572V20.2864Z" fill="white"/>
<path d="M150.529 20.2864H144.236V9.38086H150.529V11.2571H146.543V13.6805H150.256V15.5568H146.543V18.3711H150.529V20.2864Z" fill="white"/>
<path d="M159.245 17.2376C159.245 18.2148 158.932 18.9966 158.189 19.5438C157.486 20.091 156.47 20.3646 155.219 20.3646C153.968 20.3646 153.03 20.1301 152.131 19.7002V17.5503C152.834 17.863 153.499 18.0975 154.007 18.2539C154.515 18.3712 154.984 18.4884 155.453 18.4884C155.922 18.4884 156.352 18.3712 156.626 18.2148C156.9 17.9803 157.017 17.7067 157.017 17.3158C157.017 16.9249 156.978 16.9249 156.86 16.7686C156.743 16.6122 156.587 16.4559 156.313 16.2604C156.079 16.1041 155.61 15.8695 154.867 15.5568C154.203 15.2441 153.694 14.9314 153.382 14.6578C153.069 14.3842 152.756 14.0324 152.561 13.6806C152.326 13.2897 152.287 12.8598 152.287 12.3516C152.287 11.3744 152.6 10.6317 153.264 10.0845C153.929 9.53729 154.828 9.26367 155.961 9.26367C157.095 9.26367 157.056 9.30276 157.564 9.4982C158.072 9.61546 158.619 9.8109 159.167 10.0454L158.385 11.8826C157.76 11.648 157.33 11.4917 156.939 11.3744C156.548 11.2572 156.157 11.2181 155.844 11.2181C155.532 11.2181 155.062 11.3353 154.867 11.5308C154.632 11.7653 154.554 12.0389 154.554 12.3516C154.554 12.6643 154.593 12.7425 154.711 12.8989C154.828 13.0552 154.945 13.1725 155.141 13.3288C155.336 13.4852 155.844 13.7197 156.626 14.1106C157.681 14.6187 158.346 15.0878 158.737 15.5959C159.128 15.8695 159.284 16.4949 159.284 17.1985L159.245 17.2376Z" fill="white"/>
<path d="M165.5 20.2864H163.193V11.2962H160.223V9.38086H168.509V11.2962H165.539V20.2864H165.5Z" fill="white"/>
<path d="M176.874 20.2864L176.093 17.7066H172.106L171.324 20.2864H168.822L172.692 9.30273H175.506L179.376 20.2864H176.835H176.874ZM175.467 15.7522C174.764 13.3679 174.295 12.0389 174.216 11.7262C174.099 11.4135 174.06 11.179 173.982 11.0226C173.826 11.6871 173.317 13.2115 172.536 15.7522H175.467Z" fill="white"/>
<path d="M184.927 20.2864H182.621V11.2962H179.65V9.38086H187.937V11.2962H184.966V20.2864H184.927Z" fill="white"/>
<path d="M195.871 20.2864H189.578V9.38086H195.871V11.2571H191.884V13.6805H195.598V15.5568H191.884V18.3711H195.871V20.2864Z" fill="white"/>
<path d="M67.8591 33.498H62.2304L60.3151 38.3449H59.2598L64.8493 24.5078H65.4747L70.8689 38.3449H69.7744L67.8982 33.498H67.8591ZM62.6213 32.6381H67.5464L65.6702 27.6739C65.5138 27.2831 65.3575 26.7358 65.123 26.0713C64.9666 26.6967 64.8103 27.244 64.5757 27.713L62.6604 32.6381H62.6213Z" fill="white"/>
<path d="M83.846 38.3059H83.0642L80.0154 27.6739C79.7418 26.7749 79.5854 26.0713 79.4682 25.5241C79.3509 26.0713 79.2336 26.6967 79.0382 27.4003C78.8818 28.1039 77.8265 31.7391 75.9893 38.3059H75.1685L71.377 24.5078H72.3542L74.7776 33.3808C74.8949 33.6935 74.934 34.0844 75.0512 34.358C75.0903 34.6316 75.2076 34.9834 75.2857 35.257C75.3248 35.5306 75.403 35.7651 75.4421 36.0388C75.4812 36.2733 75.5594 36.5469 75.5984 36.8205C75.7548 35.9215 76.1066 34.6707 76.5366 32.9117L78.9209 24.5078H79.9763L82.7515 34.1234C83.0642 35.2179 83.2988 36.1169 83.416 36.8205C83.4551 36.3905 83.5724 35.8824 83.7287 35.3743C83.846 34.8661 84.8232 31.2309 86.6603 24.5469H87.6375L83.846 38.2668V38.3059Z" fill="white"/>
<path d="M97.8786 33.498H92.25L90.3347 38.3449H89.2793L94.8689 24.5078H95.4943L100.888 38.3449H99.794L97.9177 33.498H97.8786ZM92.6409 32.6381H97.5659L95.6897 27.6739C95.5334 27.2831 95.377 26.7358 95.1425 26.0713C94.9861 26.6967 94.8298 27.244 94.5953 27.713L92.68 32.6381H92.6409Z" fill="white"/>
<path d="M104.876 32.2863V38.3059H103.938V24.5078H107.182C108.902 24.5078 110.152 24.8205 110.973 25.4459C111.794 26.0713 112.185 27.0485 112.185 28.2993C112.185 29.5502 111.951 30.0192 111.481 30.6055C110.973 31.27 110.27 31.7 109.293 31.9736L113.045 38.2668H111.872L108.354 32.2472H104.876V32.2863ZM104.876 31.4655H107.534C108.706 31.4655 109.566 31.1919 110.231 30.6837C110.895 30.1756 111.169 29.4329 111.169 28.3775C111.169 27.3221 110.856 26.5404 110.231 26.0713C109.605 25.5632 108.589 25.3677 107.143 25.3677H104.876V31.5046V31.4655Z" fill="white"/>
<path d="M126.999 31.3091C126.999 33.6153 126.374 35.3743 125.162 36.5469C123.95 37.7195 122.191 38.3059 119.807 38.3059H116.484V24.5078H120.237C122.426 24.5078 124.107 25.055 125.24 26.2277C126.335 27.4003 126.96 29.0811 126.96 31.3091H126.999ZM125.944 31.3091C125.944 29.3156 125.436 27.8303 124.458 26.8531C123.481 25.8759 121.957 25.3677 120.041 25.3677H117.501V37.4459H119.768C123.833 37.485 125.944 35.4133 125.944 31.3091Z" fill="white"/>
<path d="M138.92 34.9443C138.92 36.1169 138.49 36.9768 137.669 37.7195C136.848 38.384 135.675 38.6967 134.307 38.6967C132.939 38.6967 131.337 38.5404 130.438 38.1495V37.2114C131.415 37.6413 132.705 37.8368 134.229 37.8368C135.753 37.8368 136.262 37.5632 136.926 37.055C137.591 36.5469 137.903 35.8433 137.903 35.0224C137.903 34.2016 137.786 34.0843 137.591 33.7716C137.356 33.4589 137.043 33.1071 136.535 32.8335C136.027 32.5599 135.323 32.2081 134.346 31.8954C132.9 31.3873 131.962 30.9182 131.415 30.3319C130.867 29.7847 130.594 29.0029 130.594 28.0648C130.594 27.1267 130.985 26.1886 131.806 25.5241C132.626 24.8596 133.682 24.5469 134.933 24.5469C136.183 24.5469 137.473 24.7814 138.568 25.2505L138.255 26.0713C137.082 25.5632 135.988 25.3677 135.011 25.3677C134.034 25.3677 133.174 25.6022 132.587 26.0713C131.962 26.5794 131.688 27.1658 131.688 27.9866C131.688 28.8075 131.806 28.9247 131.962 29.2374C132.118 29.5501 132.47 29.8628 132.9 30.1365C133.33 30.4101 134.073 30.6837 135.05 31.0746C136.105 31.4654 136.926 31.7781 137.473 32.169C138.021 32.4817 138.411 32.8726 138.646 33.3808C138.802 33.7716 138.92 34.3189 138.92 34.9443Z" fill="white"/>
<path d="M142.399 29.1593V25.1723H140.914V24.4688H144.706V25.1723H143.142V29.1593H142.36H142.399ZM145.214 29.1593V24.5078H146.386L147.559 28.2212L148.732 24.5078H149.826V29.1593H149.123V25.2896L147.911 29.1984H147.246L145.995 25.2114V29.1202H145.292L145.214 29.1593Z" fill="white"/>
<path d="M161.356 38.4622H151.701V36.4296L155.18 32.9508C156.235 31.8954 156.9 31.1918 157.174 30.8009C157.486 30.4101 157.721 30.0192 157.838 29.6283C157.994 29.3156 158.073 28.9247 158.073 28.5729C158.073 28.0257 157.916 27.6348 157.643 27.3612C157.369 27.0876 156.939 26.9703 156.431 26.9703C155.923 26.9703 155.375 27.0876 154.867 27.3612C154.359 27.5957 153.812 27.9866 153.265 28.4166L151.662 26.5404C152.327 25.9931 152.913 25.5632 153.382 25.3286C153.812 25.0941 154.32 24.8987 154.828 24.7814C155.375 24.6641 155.923 24.5469 156.587 24.5469C157.252 24.5469 158.19 24.7032 158.854 25.055C159.519 25.3677 160.027 25.8368 160.418 26.384C160.809 26.9312 160.965 27.5957 160.965 28.2993C160.965 29.0029 160.848 29.511 160.652 30.0583C160.457 30.6055 160.105 31.1527 159.597 31.7781C159.167 32.4036 158.346 33.2244 157.095 34.2798L155.336 35.9215V36.0387H161.356V38.4622Z" fill="white"/>
<path d="M172.848 31.6218C172.848 34.0452 172.457 35.8042 171.636 36.9768C170.855 38.1495 169.643 38.6967 168.001 38.6967C166.359 38.6967 165.187 38.0713 164.405 36.9377C163.584 35.726 163.193 33.967 163.193 31.6609C163.193 29.3547 163.584 27.4003 164.366 26.3058C165.148 25.1332 166.359 24.5859 168.001 24.5859C169.643 24.5859 170.816 25.2113 171.597 26.4231C172.496 27.5957 172.848 29.3547 172.848 31.6609V31.6218ZM166.086 31.6218C166.086 33.3416 166.242 34.5534 166.516 35.2569C166.789 35.9605 167.298 36.3514 168.001 36.3514C168.705 36.3514 169.174 35.9605 169.487 35.2569C169.76 34.5534 169.916 33.3416 169.916 31.6218C169.916 29.9019 169.76 28.6902 169.487 27.9866C169.213 27.283 168.705 26.8921 168.04 26.8921C167.376 26.8921 166.868 27.283 166.555 27.9866C166.242 28.6902 166.047 29.9019 166.047 31.6218H166.086Z" fill="white"/>
<path d="M184.379 38.4622H174.725V36.4296L178.203 32.9508C179.259 31.8954 179.923 31.1918 180.197 30.8009C180.51 30.4101 180.744 30.0192 180.861 29.6283C181.018 29.3156 181.096 28.9247 181.096 28.5729C181.096 28.0257 180.94 27.6348 180.666 27.3612C180.392 27.0876 179.962 26.9703 179.454 26.9703C178.946 26.9703 178.399 27.0876 177.891 27.3612C177.383 27.5957 176.835 27.9866 176.288 28.4166L174.686 26.5404C175.35 25.9931 175.936 25.5632 176.405 25.3286C176.874 25.0941 177.344 24.8987 177.852 24.7814C178.399 24.6641 178.946 24.5469 179.611 24.5469C180.275 24.5469 181.213 24.7032 181.878 25.055C182.542 25.3677 183.05 25.8368 183.441 26.384C183.832 26.9312 183.988 27.5957 183.988 28.2993C183.988 29.0029 183.871 29.511 183.676 30.0583C183.441 30.6055 183.129 31.1527 182.62 31.7781C182.19 32.4036 181.37 33.2244 180.119 34.2798L178.36 35.9215V36.0387H184.379V38.4622Z" fill="white"/>
<path d="M195.872 38.4622H186.217V36.4296L189.696 32.9508C190.751 31.8954 191.416 31.1918 191.689 30.8009C192.002 30.4101 192.236 30.0192 192.354 29.6283C192.51 29.3156 192.588 28.9247 192.588 28.5729C192.588 28.0257 192.432 27.6348 192.158 27.3612C191.885 27.0876 191.455 26.9703 190.946 26.9703C190.438 26.9703 189.891 27.0876 189.383 27.3612C188.875 27.5957 188.328 27.9866 187.78 28.4166L186.178 26.5404C186.842 25.9931 187.429 25.5632 187.898 25.3286C188.367 25.0941 188.836 24.8987 189.344 24.7814C189.891 24.6641 190.438 24.5469 191.103 24.5469C191.767 24.5469 192.705 24.7032 193.37 25.055C194.034 25.3677 194.543 25.8368 194.933 26.384C195.324 26.9312 195.481 27.5957 195.481 28.2993C195.481 29.0029 195.363 29.511 195.168 30.0583C194.933 30.6055 194.621 31.1527 194.113 31.7781C193.683 32.4036 192.862 33.2244 191.611 34.2798L189.852 35.9215V36.0387H195.872V38.4622Z" fill="white"/>
</g>
<defs>
<clipPath id="clip0_10754_26093">
<rect width="195.44" height="48" fill="white"/>
</clipPath>
</defs>
</svg>